<svg xmlns="http://www.w3.org/2000/svg" xmlns:xlink="http://www.w3.org/1999/xlink" viewBox="0 0 1200 1100"><defs><style>.cls-1{fill:none;}.cls-2{opacity:0.1;}.cls-3{fill:url(#hexagone10);}</style><pattern id="hexagone10" data-name="hexagone10" width="30.5" height="49.5" patternTransform="translate(8 -4.2) scale(1 1.03)" patternUnits="userSpaceOnUse" viewBox="0 0 30.5 49.5"><rect class="cls-1" width="30.5" height="49.5"/><polygon class="cls-2" points="43.02 58.62 28.77 64.69 16.25 55.57 17.98 40.38 32.23 34.31 44.75 43.43 43.02 58.62"/><polygon class="cls-2" points="12.52 58.62 -1.73 64.69 -14.25 55.57 -12.52 40.38 1.73 34.31 14.25 43.43 12.52 58.62"/><polygon class="cls-2" points="27.77 33.87 13.52 39.94 1 30.82 2.73 15.63 16.98 9.56 29.5 18.68 27.77 33.87"/><polygon class="cls-2" points="43.02 9.12 28.77 15.19 16.25 6.07 17.98 -9.12 32.23 -15.19 44.75 -6.07 43.02 9.12"/><polygon class="cls-2" points="12.52 9.12 -1.73 15.19 -14.25 6.07 -12.52 -9.12 1.73 -15.19 14.25 -6.07 12.52 9.12"/></pattern></defs><title>Samuel_Pepys_transperent</title><g id="Слой_2" data-name="Слой 2"><g id="Слой_1-2" data-name="Слой 1"><g id="Main_Samuel" data-name="Main Samuel"><g id="shadows"><polygon class="cls-3" points="299.81 716.3 308.14 730.25 313.54 765.28 331.81 785.12 349.78 797.72 364.68 796.21 393.9 790.17 405.01 781.55 418.81 768.06 433.89 754.48 440.55 745.38 457.26 719.2 453.99 727.65 457.26 719.2 465.18 714.24 476.65 723.5 492.43 716.81 495.5 695.75 508.98 689.99 508.94 672.34 526.12 663.77 521.58 657.86 532.71 650.94 533.86 648.75 606.87 590.97 627.62 621.36 663.93 631.6 861.54 867.48 903.62 1001.28 931 1098.82 834.43 1099.54 721.77 1100 721.77 1100 722.08 1082.29 736.29 1075.57 737.87 1058.14 722.43 1047.8 722.95 1031.28 736.68 1022.77 738.39 1003.5 751.16 997.68 752.15 979.72 766.78 973.56 768.64 956.63 752.72 945.7 753.39 928.28 766.53 922 768.02 905.58 751.16 893.77 753.96 878.02 680.14 916.52 677.83 912.46 677.42 902.06 691.13 895.65 691.83 876.72 708 868.78 707.95 853.34 691.9 842.4 692.52 824.93 706.36 818.54 708.29 802.05 701.61 798.3 652.42 821.84 645.69 815.5 647.11 800.12 660.88 793.35 661.56 776.7 646.77 766.49 637.63 760.03 604.26 780.21 596.41 773.65 584.89 764.63 585.78 755.05 585.98 749.24 600 741.07 600 723.76 614.79 716.31 617.07 700.39 600 688.54 601.25 670.86 614.8 665.15 616.31 649.25 611.79 643.33 462.89 772.43 419.87 814.98 364.75 883.64 341.18 866.48 340.5 852.23 330.5 844.7 340.57 829.95 308.81 870.41 294.19 878.21 287.3 872.69 280.2 868.22 279.29 862.23 280.5 849.3 303.26 842.45 323.2 827.37 309.18 816.49 312.23 807.58 295.08 803.7 307.01 781.59 310.17 769.31 294.19 775.51 280.99 766.35 264.73 774.76 265.36 792.23 248.87 801.66 234.38 791.19 234.62 773.11 230.46 773.38 222.29 767.3 217.91 763.19 220.7 747.74 233.63 741.36 256.7 723.15 299.81 716.3"/><polygon class="cls-3" points="248.87 1099.16 297.67 1099.54 465.19 881.63 450.1 880.16 427.32 889.58 424.9 889 420.47 894.73 407.35 899.23 404.3 899.82 402.54 914.94 400.59 921.01 388.5 926.62 387.02 945.97 372.6 952.6 371.23 971.84 357.03 979.74 342.46 971.03 324.98 979.43 320.79 977.14 315.34 977.25 301.5 997.8 248.87 1099.16"/><polygon class="cls-3" points="127.11 1099.54 158.15 1099.54 154.77 1091.58 144.38 1089.84 144.04 1082.38 145.38 1066.78 145.88 1043.54 139.01 1045.62 127.11 1099.54"/><path class="cls-3" d="M410.49,571.5a19.16,19.16,0,0,1,.47-2.17c-3.48-2.92-5.52-6.84-9.77-9-9.37-4.7-16.19-5.72-26.51-1.65-6.84,2.71-13.09,5.25-20.42,1.26a5.38,5.38,0,0,0-2.79-.29c-8,1-13.35,4.66-19,10.29-1.45,1.46-2.05,3.46-3,5.22,1.9.33,4.9.64,6.58-.05a56.42,56.42,0,0,1,20.93-3.88c7.89-.13,15.42-.5,23-.49,8.15,0,15.81.26,23.81.4C406.17,571.21,408.22,571.43,410.49,571.5Z"/><polygon class="cls-3" points="331.3 582.65 331.92 585.58 338.1 592.88 341.22 598.42 349.54 605.24 359.09 608 365.99 610.07 372.57 610.07 372.13 596.01 357.64 588.34 354.55 576.9 345.23 579.48 331.3 582.65"/><path class="cls-3" d="M407.93,282.5c1.8.63,5.1-.4,6.58-.54,5.18-.52,9.69-.89,14.55-1.36,11-1.07,21.64-1.73,32.68-1.8,13-.08,25.74.86,38.89.55,5-.12,11.65,1.2,16.15-1.87C528.72,269.33,531.2,255.3,532,242c.65-11-1.46-19.73-1-30,.16-3.86.63-5.89,3.92-8,1.6-1,5.58,8.66,5.81,9.45,5.63,20.17,8.5,39.45,7.22,60-.33,5.18-1.33,10.17-2,14.87-.58,3.84-2.09,5.6.37,8.69,2.67,3.37,6.1,5.65,8.79,9.19,5.81,7.65,10.46,16.34,15.18,24.79,0-1.78,1.6-3.61,2.1-5.09,1.18-3.51,2.16-6.41,1.54-10,4.35,6.84,3.5,14.22,3.75,21.84.26,8.18,3.46,14.74,6.38,21.86,2.28,5.54,3.79,10.28,6.21,15.75,2,4.59,1.2,10.3,6,13.68,5,3.58,9.74.61,15.77-2.86,2.85-1.63,12.23-5.45,13.92-10.08.44,9-1.91,15.92-7.45,23-3.53,4.48-8.68,7.41-12.84,11-3.08,2.67-3,4.26-2.26,8.27,1.06,5.57,2.36,10.53,3.16,16.54,2,15.11,2.56,27.78,3,44.06.39,15.54-5.38,30.84,3.08,47.9,1.21,2.45,28.78,9.41,31.57,9.69a220.73,220.73,0,0,0,51.75-.36c12.25-1.46,22.56-3.54,34.47-5,6.09-.78,11.36-1.34,17.76-1.83,3.26-.25,8.16-.89,10,3.11a2.8,2.8,0,0,1-.41,2.6c-4.95,7.94-14.21,12.49-21.92,15.91-19.48,8.66-38,14.13-58.28,19.58-21.29,5.73-42.57,10.43-65.13,9.93-3.17-.07-7.23-1.22-11.58-.33-2.06.42-7.08,10.22-8,11.91-9,16.07-20.66,27.69-34.15,38.4-8.4,6.68-16.38,12.05-24.76,18-16.92,12.1-31.87,23.56-51.12,32.5a253.32,253.32,0,0,1-46.74,15.94c-7.9,1.84-15.24,1.93-23.51,2.55-4.12.3-15.66.59-17.29-4.09-3.26-9.39-.85-18.65,1.62-27.14,10.7-36.86,26.16-72.55,50-102.08,4.51-5.57,9.32-11.68,13.4-17,7.27-9.51,14.27-16.89,17.8-28.33.22-.71.24-.59-.21-1.33-4.62-7.74-11.38-12-17-19.46a208,208,0,0,1-16.27-25.64c-9-16.87-16.23-34-23.14-51.8a77.12,77.12,0,0,1-4.64-16.65c-.61-3.75-1.8-10.38,2.18-13.35,2.25-1.69,6.49-.53,8.64.85,2.94,1.89,4.05,5.13,6,7.66,2.4,3.17,4.5,6.14,6.82,9.22,9.25,12.28,17.4,24.52,27.45,36.37a156.44,156.44,0,0,0,29,26.35c5.5,3.87,12,6.72,18.34,9.16,5.5,2.11,10.8,3.74,15.61-.74,3-2.77,5.16-6.85,7-10.33,3.85-7.18,6.39-14.54,8.91-22.17a59,59,0,0,0,3.07-12.07c.71-5.87.28-11.28-.12-17.43-.64-9.88-1.48-20-2.31-30.24-.27-3.37.32-8-2.29-10.85-1.6-1.78-4.45-2-6.38-3.29a43,43,0,0,1-9.21-8.4c2.12-.07,4.9.51,6.83-.34,9.63-4.25,7.22-15.23,5.46-23-1.85-8.1-3-14-4.87-21.07s-2.26-12-7.6-17.18c-1.53-1.5-6.36,2.17-8.41,2.5a56.78,56.78,0,0,1-14.09.33c-17.66-1.55-35.57-3-52.82-7C437.48,297.13,422.9,290.07,407.93,282.5Z"/></g><path id="hair" d="M1191.59,985.3c-4.21-15.32-15.93-26.64-27-37.19C1150.75,935,1134,921.23,1139.86,900c2.18-7.93,9.11-11,13.34-17.31,13.18-19.77,12.74-43.69,1-64s-30.88-32.48-50.24-43c-21.43-11.6-46.84-24.52-44.71-52.91.69-9.15,7.35-14.15,8.53-23,4.06-30.33-24.36-47.78-35.4-72.87-7.29-16.55-5.75-36.83-17.71-51.29-10.27-12.41-28-13.54-36.26-28.32-13-23.3,8.67-48,2.42-72.68-5.32-21.08-28-30.53-37.58-49.42-4.36-8.61-5-18.54-6.73-28.21-6.75-37.48-23.74-71.32-41.65-104.31-9.35-17.22-18.71-34.47-32-48.78-19.73-21.2-45.87-34.09-65.2-55.85-16.33-18.37-25.39-41.23-38.43-62.31-46.69-75.51-130.38-119.2-217-113.4-13.84.92-27,3.48-40.85,2.42-15-1.15-28.64-6.38-43.31-9.66C370-14.51,278,23,226.45,99.64c-5.56,8.28-10.16,16.78-19.84,20.28-8.86,3.19-16.52-2.12-18.84-11.18-2.2,11.8-4.21,23.78-6.4,35.67-23.11,4.44-36.07,23-47.43,42.69-16.17,28-32,55.7-48,83.73a24.31,24.31,0,0,1-5.29-18.33C58.54,267.77,54.77,296.41,72.52,317a46.46,46.46,0,0,1-28.86-6.53c.72,16.28,5,29.26,13.94,42.66L40.52,341.29c-9.11,27.33,0,54,23.67,69.29a296.78,296.78,0,0,1-14.75,88.88c-2.81,8.76-7.26,17.22-6.27,26.45,3.87,36.24,50.29,58,40.17,94.43-41.56,17.12-56,73.12-28.56,109.53C27,743.45,6.2,767.22,1.12,799.26s7.55,61.32,29.53,83.46c-20,5.61-27,18.57-26.22,38.64s10.13,33.55,16.12,51.31,8.41,33.82,1.09,51.25c-3.48,8.3-11.87,12.33-14.61,20.62-6.68,20.2,4,38.51,14.49,55.13,19.78-.11,44.06,0,62.6-.2s29.34.35,46.6-.65c3.07-13.31,10.1-37.23,12.89-48s0-1.34.73-5.56c.51-3.15-.32-3.32.43-6.37.32-1.28.69-2.86,1.23-4.67s1-4,1.81-6.33c.56-1.49,1.35-4,1.94-6a37.48,37.48,0,0,0,1.38-5,35.21,35.21,0,0,0,0-5c-.12-10.7-1.7-16.23-1.43-28a254.84,254.84,0,0,1,4-42.17c6.59-36.53,16.09-71.21,28.14-108.23,8.82-27.08,19.12-57.54,32.77-84.86,9.49-19,24.48-38.69,44.19-48.51a16.9,16.9,0,0,0,1.45-1.63c2.15-2,6.4-5.4,8.24-6.87,3.47-2.76,5.69-4.55,8.64-6.91s5.43-4,8.25-6.49c-.21-4.6-.54-12.73-.51-16.71a110.05,110.05,0,0,1,2-20.63c1.2-5.81,2.86-7.21,4-12.48-1.34-5.49-3.73-16.59-4.91-21-2.67-10.09-3.8-13-7.09-22.58-5.26-15.41-11.89-33-16.46-49.62a347.11,347.11,0,0,1-8.15-40.09c-5.82-39.25-5.2-78.95-4.21-118.58.25-10-1-19.95-1.32-30.31-.35-12.13,4.53-41.47,4.68-42.49,1-6.35,1.73-12.74,3-19.06,1.79-9.13,3.32-18.22,5.84-27.2,3.36-12,7-23.51,11.43-35.32.76-2.05,3.93-3.27,6-4.46,4.46-2.6,10-5.68,13.9-8.94,3.35-2.81,6-2.85,9.44-1.3,9.83,4.4,17.41,4.27,25-3.42,9-9.05,16-12.37,28.38-12,.2,0,.35,0,.54,0,12.3-.09,12,.42,10.14,12.68-.17,1.08-.47,2.51-.55,3.35-.87,9.71-4.07,13.84-10.88,20.1,2.5.52,6,2.52,8.5,1.92,10.95-2.67,17.63-7.82,22.77-18,4.28-8.47,6-17.05,8-26.45a36.63,36.63,0,0,1,7.57-15.47c7.65-9.12,14.36-17.89,19.09-29,1.57-3.67,2.23-8,4-11.69a19.09,19.09,0,0,1,1.14,3.7c1.68,13.13,1.63,26.15,3.59,39.32,3,19.83,9.05,34.9,26.06,46.22,10,6.66,20.79,8.41,33,7,16.89-2,31.87.59,47.65,7.75,10.61,4.82,21,6.6,32.61,6.62,4.26,0,5.66.77,6.32,5.61,2.46,18.14,8.39,29.46,21.39,42.88s13.8,21.15,9.2,39.86c-3.91,15.9-9.13,31.09-8.21,47.92.37,6.73,3.32,13.21,5.37,19.73,1.61,5.13,2,8-.58,13.34-6.78,14.07-9.71,27.09-5.88,42.9,1.83,7.58,5.73,13.9,10.06,20.51a9.78,9.78,0,0,1,1.05,7.25c-2.53,8.91-5.51,17-8,26.06-3.43,12.22-6,23.23-3.21,36.19a22.17,22.17,0,0,1-.07,8.43c-1.86,10.51-1.64,18-.06,29.53.59,4.35,2.27,13.76,6.61,18.12,1.36,1.37,6.16,4.79,7.65,6.2,2.79,2.63,7.38,8,8.5,10.41,1.78,3.72,5.73,7,7,8.71,4.76,6.62,19,7.58,23.06,8.45,18.27,3.85,18.37,9.79,23.26,24.5,1.2,3.63.05,9.08.33,10.75,4,24.12,12.24,41.59,23.11,62.34,7.23,16.91,16.42,29.59,31.79,39.59,15.83,10.31,35.22,15.39,50.89,25.62,23.53,15.37,38.11,37.56,53.12,61.16,16.53,26,32.11,53.07,44.27,81.73,4.86,11.45,8.5,23.05,8.61,35.64.1,10.55-5.44,20.1-4.95,30.71,1.6,34.35,35.56,58.95,28.91,94.68,97,1,193.89-.54,290.89-.6C1176.46,1064.74,1201.72,1022.22,1191.59,985.3Z"/><g id="wrinkles"><path d="M387.72,633.73q-9.64,1.85-19.28,3.73C374.87,631.81,379.79,630.22,387.72,633.73Z"/><path d="M374.77,291.53q-.34-15.27-.7-30.55l2.68-.26c1,10.74,2.92,19.69,1.13,30.52Z"/></g><g id="lips"><path d="M313.66,581c8.47-2.89,13.64-9.6,19-16.33,6.83-8.54,14.87-9.33,24.34-7.54,5.72,1.08,10.06.11,14.73-1.48,12.79-4.36,21.87-3.46,33.5,2.64,5.27,2.76,9.4,6.6,14.52,9.44,6,3.35,11.51,3.91,18.28,3.08a10.94,10.94,0,0,1,3.88.67c-.66,1.18-1.21,2.91-2.33,3.65a14.19,14.19,0,0,1-6.57,2.61c-7.78.53-15.39.47-23.12.63-13.57.29-27,.59-40.65.84-3.77.06-7.4-.32-11.31-.41-8-.19-15,.3-22.92,2.88C327.93,584,320.78,584.2,313.66,581Zm98.12-10.57c.1-.64.15-1.26.3-1.92-3.84-2.51-6.6-5.91-10.88-7.84-9.46-4.28-16.73-5.83-26.84-1.54-6.72,2.86-12.72,5.33-19.77.89a5.69,5.69,0,0,0-2.72-.39c-7.72.17-12.3,4-17.48,9.57-1.34,1.44-1.78,3.36-2.58,5.09,1.83.28,4.61.76,6.21,0,6.63-3,13-3.46,19.91-3.52,7.72-.07,15.09-.24,22.68-.29,8.14-.06,16.13-.05,24.24-.05Z"/><path d="M419.32,591.37c-3.09,2.07-5.64,4.74-9,6.44-9.23,4.7-17,10.57-27.12,13.87-14.15,4.62-26.91,2.82-38.53-7.26-4.52-3.91-7.56-8.75-11.47-13.22-1.12-1.29-1-3.58-1.45-5.19a15.67,15.67,0,0,1,1.54-.76c2.83,2.92,5.49,6.58,8.11,9.61,5.3,6.13,11.43,10.86,19.06,12.81,13.53,3.46,24-.9,36-6.78,7.54-3.71,14.18-7.74,21.56-11.49C418.42,590.06,418.88,590.7,419.32,591.37Z"/></g><g id="nose"><path d="M356.15,311.6c5.79,4.26,14.91,21.84,15.46,28.71a136.89,136.89,0,0,1-4.33,48.46A326.32,326.32,0,0,1,356,423c-4,10.35-10,19.39-15.1,29.36-1,1.87-2.5,4.74-3.54,6.71-.3-1.79-.73-5.05-.08-6.62,4.44-10.79,10.12-20.53,13.92-31.4a296.84,296.84,0,0,0,11.27-39.19c2.31-11.39,3.14-22.78,3.51-34.52.18-5.61-2.24-11.06-3.21-16.71C362.35,328,356.22,314.31,356.15,311.6Z"/><path d="M331,473.7c-.38,2.46-1.18,4-1.78,6.53-1.91,8.1.86,14.9,8.5,18.24,1.38.61,2.84-.51,3.73-1.22,3.41-2.72,5.34-2.59,8.53.27,7.44,6.68,13.56,10,23.53,7.08,5.37-1.57,9.86-5.24,15.22-7.45,7.92-3.27,13.93-1.47,20.1,4.57a23.9,23.9,0,0,1-6,.65c-8.19-.67-14.22,1.77-21.12,5.87-5.63,3.34-10.59,6-17.17,5.58a23,23,0,0,1-10.57-3.7A18.91,18.91,0,0,0,343,506.85c-6.31-.12-11.93-.66-15.86-6.15-4.77-6.65-3.43-13.23-1.73-20.75.59-2.62,2.48-4.63,3.56-7C329.68,473.2,330.32,473.5,331,473.7Z"/><path d="M427.9,465.19c5.23.73,8.65,2.9,9.1,8.92,1,13.64-4.1,22-15,29.69-1.18.83-3.88-.49-5.16-.95.23-1.47.7-4.09,1.9-4.87C434.26,487.89,434.46,482.14,427.9,465.19Z"/></g><g id="eyes"><path d="M515.1,352.58c2.48,1.6,6.49,2.2,9,3.83-16,15.71-35.71,23.29-57.78,20.44-6.74-.88-12.67-5.22-19.07-7.45-2.86-1-6-1.43-8.93-2.26a42.57,42.57,0,0,1-5.6-2.35,17.52,17.52,0,0,1,3-5c2.68-2.89,12-12.08,19.62-15.82,12.85-6.3,25.08-7.57,39.14-5.32,6.74,1.08,12.17,6,18.07,9.45,1.3.76,1.86,3.12,2.56,4.43-1.58-.68-2.91-1.57-4.68-2.37-1.54-.58-3.78-1.68-3.78-1.68s.91,5,1.36,7.23a17.73,17.73,0,0,1,.09,1.79c-.06,3.61-1.52,5-2.66,9.35C511.43,364.3,514,360.43,515.1,352.58ZM476.32,374.3a37,37,0,0,1-7-9.2,17.54,17.54,0,0,1-1.78-10.82c.5-6.08,3.86-8.23,4.5-11.14,0,0-13.12,3.16-18.6,5.83-3.49,1.69-6.37,4-7.21,8.81s1.46,8.12,6.45,10.74C456.9,370.73,459.26,375,476.32,374.3Zm8.79-21.67c-.29-1.45-1.33-6.16-2.52-6.64-2.51-1-3.91.45-6.27.45.31,1.32.77,4.85,2.05,5.54C480.85,353.31,482.52,352.41,485.11,352.63Z"/><path d="M273.39,364.76c2.64-7.15,7.13-12.16,14.33-14.35,11.87-3.62,26.37-2.3,34.53.3,3,1,8.64,5,12.82,7.69a108.29,108.29,0,0,1,9,6.79A58,58,0,0,1,348.8,370a49.14,49.14,0,0,1-6.32,5.24,45.4,45.4,0,0,1-8.42,3.85,112.67,112.67,0,0,1-12.47,3,78.74,78.74,0,0,1-34.56-.37c1.66-.84,11.63-.71,13.31-1.56-.14-1.61-3-4.1-3.86-5.6a19.05,19.05,0,0,1-1.91-5.34,77.11,77.11,0,0,1-1.75-11.28,18.16,18.16,0,0,1,.32-4s-5.72.55-7.33,1.51c-4.34,2.58-8.36,6.32-12.57,9.24C273.28,364.69,273.33,364.78,273.39,364.76Zm28-10.39c-.38,1.08-.34,5.18.41,5.64,2.2,1.36,3.86.16,6.07.48-.46-2.2.65-4-.92-6C306.17,353.44,302.63,354,301.38,354.37Zm28.49,7.15a13.46,13.46,0,0,1,.45,4.27c0,1.16-.15,2.25-.27,3.4a22,22,0,0,1-.77,4c.75-.19,4.27-1,4.65-1.87C335.93,366.82,333.47,364.19,329.87,361.52ZM273,365c-2.54.17-5.23.2-4.36,3.77.46,1.9,3.52,3.11,5.06,4.19a12.56,12.56,0,0,0,.89-1.27c-.59-2.28-1.15-4.56-1.71-6.84C272.94,364.88,273,364.93,273,365Z"/><path d="M440.67,330.53c18.38-16.91,55.71-13.33,72.77,4.07-12.26-3.11-23.77-10.41-36.47-11.09S453.05,329.08,440.67,330.53Z"/><path d="M268.5,341.29c6.14-4.36,12.12-8.25,19.57-9.6,9.78-1.78,19.29-.42,29.14.34,5.06.39,9.81,2.86,14.63,4.4,0,.67-.06,1.29-.17,1.93-2.26.23-5.26.59-7.34-.13-8.78-3-17.21-3.33-26.24-3.39-8.66-.06-15.45,2.28-23,6.45-1.83,1-4.08,1.3-6.11,1.76C268.78,342.46,268.66,341.91,268.5,341.29Z"/></g><g id="eyebrows"><path d="M347.22,301.76c.09-.41.17-.8.24-1.18.55-2.9,1-6.12.17-9-.93-3.19-3.6-4.1-6.53-4.71-12.61-2.64-25.82-4.13-38.79-3.14-12,.92-26.07,4.93-36.74,11.46-3.32,2-5,3.06-7.49,4.82-1.79,1.24-2.3,1.62-4.75,3.16-2,1.27-1.18,6.72-1.61,9L250,321.81c-.59,3.28-.39-2.23-.23,1.1,7.37-5.78,7.6-5.79,7.94-6.09,10.81-9.45,23.87-11.4,37-11.46a163.26,163.26,0,0,1,29.74,2.83c4.8.87,9.85,2.71,14.69,3.08S346.25,306.06,347.22,301.76Z"/><path d="M558.7,323.17c-2.65,3.56-8.9-2-11.07-3.67-7.85-6-16.31-12-25.4-15.77a98.08,98.08,0,0,0-37.06-7.27c-15.53-.12-30.93,2.92-45.78,7.47-9.77,3-22.77,10.42-27.66-3.89-1.94-5.68-4.43-15.13,1.3-18.64,7.14-4.36,19.44-5.15,27.54-6.46,21.89-3.54,45.05-4.42,66.56,1.88a78.09,78.09,0,0,1,32.75,19.44,99.28,99.28,0,0,1,12.73,15.49c1.7,2.52,4.29,5.59,5.24,8.51C558.37,321.88,559.34,322.3,558.7,323.17Z"/></g><g id="clothes"><path d="M823.25,851.81c-3.42.65-9.09,1-13.18,1.61-6.65,1-14.66,2.31-21.09,3.44s-13.7,2-19.22,4.11c-28,10.9-53.51,24.76-78.76,41.15-11.54,7.49-22.54,16-32.17,26.38a25.07,25.07,0,0,0-6.75,16.68c7.92-1.51,13.91-5.81,20.2-10.64,25.3-19.42,51.32-35.45,80.61-48.21,14.71-6.41,28.69-10.61,46.72-16.59,1.25-.42,22.18-7.1,27.21-8,2.19-.38,6.75-1.82,9-.7-2.44-3.74-6.21-10.22-6.21-10.22C829.13,850.55,825.22,851.44,823.25,851.81Z"/><path d="M727.47,768.22c-1.4,1.15-2.51,2-4.07,3.16a42.77,42.77,0,0,1-6.63,3.65,240.86,240.86,0,0,0-67.49,44.26c-.61.57-1.13,1.14-1.73,1.73-2.38,2.34-5,4.49-6.89,7.28-.9,1.31-.69,2.93-1.25,4.39,2.28.15,4.11,1.38,6.4.42,3.19-1.34,6.05-3.49,9.1-5.32,15.83-9.52,31.39-19.53,47.81-28a248.53,248.53,0,0,1,25.49-11.41c8.45-3.23,17.45-5.16,25.85-8.65-5.32-2.82-10.86-4.63-16.56-6.61C734.46,772.06,727.75,768.93,727.47,768.22Z"/><path d="M690.63,724.42c-5.42.55-8,5.47-11.15,8.5-6.7,6.4-16.94,15.38-23,20.35A940.2,940.2,0,0,1,571.17,816c-5.51,3.62-19.06,11.32-26.07,15.18-6.62,3.65-22.87,12.25-26.91,15.41-16.9,13.25-28.24,27.83-41.2,42.19-56,62-107.46,126.59-156.84,194.14-5.57,7.62-11.63,14.17-21.09,16.32a3,3,0,0,1-3-.49c-3.21-3.29-1.86-7.35.47-10.81,28.57-42.65,58.47-83.28,90.95-123.07C403.75,945,420.74,927,439,906.42c2.89-3.27,14.88-18.44,18.62-23.51.46-1.23-.18-1-.4-1.69-10.31,4.8-22.11,9.39-32.2,13.42a5.9,5.9,0,0,1-4.5.08c-1.66-1.43-.28-3.43.17-4.4,1.1-2.39,2.44-3.13,4.26-4.78a34.47,34.47,0,0,1,4.48-3.61c58.16-38,119.07-71.75,175.82-111.85,17.53-12.39,34.59-26,47.84-42.78,7-8.87,11.93-17.32,15.39-27.56,3.61-10.67,3.24-20.85,5-31.85,3.5,10.28,4.4,16.47,8.36,27.83,3.17,9.11,11.3,23.32,16.63,32.6C696.88,727.18,692.35,724.24,690.63,724.42Z"/><path d="M640.72,628.39A72.58,72.58,0,0,1,629,621c-3.07-2.52-5.66-6.16-8-9.53.56,1.91-.66,6-.95,8.17-.25,1.84-2,4.41-3,5.8a119.27,119.27,0,0,1-14.27,14.82c-25.83,23.35-54.47,49-79.33,71.47-22.59,20.45-37.77,35.15-61.1,55.57-4.64,4.07-20.92,20.47-26.81,26.14-16.54,15.91-27.18,29.26-42.66,47.69-2.57,3.06-13.28,16-17.65,21.76-3.65,4.83-9.74,12.41-13.8,17.45-.64,0-1-.44-1.55-.63,1.35-8.25,2.76-16.47,3.93-24.74.68-4.74,1.25-9.48,1.77-14.25a11.59,11.59,0,0,0,.08-3.38c-.49-2.59-1.82-4.91-2.66-7.4-.68.19-1.33.32-2,.5-.34,1.59-.84,3.8-1.06,5.29-.45,3-.59,5.67-.94,8.49-.7,5.62-1.17,11.15-1.69,16.75-.38,4.24-.42,8.48-1.33,12.64-1.95,9-5.41,17.2-9.32,25.44s-7.78,16.49-12.07,24.53c-1.91,3.59-4,7-6.05,10.58C319,951,310,968,301.62,985.38c-5.83,12.09-11.46,24.21-17.12,36.38-11.85,25.48-23.55,51-34.24,77.07,5.29,1.16,10.29,2.22,15.12-.79,2.53-1.58,3.63-4.28,4.84-6.86,13.67-29,25.08-59.21,38.43-88.36,18.4-40.18,39.31-80.3,63.73-116.29,6.86-10.11,17.12-21.66,22.25-28.66,8.22-11.2,17.36-23.37,22.88-30.49,7.78-10,11.16-12.92,17.92-19.91C469.51,772.2,506.56,740.8,542.56,708c3.55-3.24,6.65-6,10-9.11,14.42-13.38,27.78-27.5,43.28-39.52,7.82-6.07,17-10.5,24.88-16.5,3.84-2.9,7.34-7.29,10.82-10.26C633.81,630.64,638.17,629.14,640.72,628.39Z"/><path d="M607.14,600.42c-.6-4.27-6.39-8-7.75-12.08-1.23,2.4-2.94,6.09-4.78,8.11-26.28,28.78-59,48.75-92.29,67.79-20.78,11.89-42.38,22.26-66,26.71-10.79,2-21.72,1.75-32.67,1.26a121,121,0,0,1-23-3.8,71.24,71.24,0,0,1-10.88-4.06c-1.77-.75-3.47-1.81-5.13-2.71s-2.66-4.08-2.56-6.17c-12.09-4.7-26.14-10-38.22-14.62,4.51,3.42,12.35,11.07,16.39,14.36s6.07,5.21,9.53,8.5c-7.2.56-14.39,2.18-21.31-.36-7.34-2.7-11.72-9.91-16.75-15.12-2-2.05-5.75-7.46-7.25-1.81-.37,1.43,9,15.63,11.8,17.62-7.12,2.21-14.82,2.77-22.23,4a11.43,11.43,0,0,1-5,0c-1.68-.46-3.62-9.87-3.74-12.53,0,0-14.65,12-17.57,14.33-3.79,3-6.1,5.16-8.9,7.37-2.52,2-7.06,6.48-9.37,8.49,2.82-1.45,13.6-1.37,16.45-2.69s5.75-2.67,8.75-3.71a117.58,117.58,0,0,1,18.29-5c9.67-1.65,19.52-2.16,29.24-3.05,6.74-.62,13.64-1.46,20.28-1.36,3.11,0,5.55.5,8.5.79s5.49.6,8.6,1c.54.07,3.13.24,3.65.38,2.94.82,4.16,1.71,7.23,2.24,10.18,1.76,21.26,3.28,31.66,4.23a97,97,0,0,0,10.69.57c35.38-.68,67.94-14.1,98.38-31.65,26.21-15.12,50.11-32.59,73.49-51.82,3-2.5,5.85-5,9-7.67,2.46-2.09,5.1-4.78,8.35-5.8C602,602.17,607.15,600.46,607.14,600.42Z"/><path d="M143.72,1044.44a4.73,4.73,0,0,1-.14-1.51c.3-3,1.64-6.1,2.44-8.83,1.79-6.11,3.36-11.92,5.17-17.92a213,213,0,0,1,.84,26.47,259.11,259.11,0,0,1-1.73,28.1c-.76,6.25-1.62,11.78-.35,18,.82-1,2.21-2.27,2.92-3.18a30.42,30.42,0,0,0,4.82-7.74c6-15.44,10.33-31.35,14.52-47.41.42-1.61.78-3.23,1.21-4.84,7.78-29,17.18-57.45,29.24-84.84a543.27,543.27,0,0,1,30.25-58.85c8.66-14.57,17.75-28.87,27.08-43.05,6.27-9.51,14.87-17,22.89-24.85s14.9-15.35,19.7-25.79c3.11-6.76,4.21-14.49,5.59-21.87a27.92,27.92,0,0,0,.34-2.93c.74-9.6,1.08-18.79-.43-28.4a26.75,26.75,0,0,0-6.18-13.39c-.67-.78-1.21-1.26-2.2-.9-.68.26-1.13,1.23-1.59,1.78A30.88,30.88,0,0,0,295.4,726c-1.55,2.53-2.42,5.37-4,7.9a51.75,51.75,0,0,1-12.52,14.37c-7.62,5.87-16.06,10.12-24.33,14.84s-16.35,9.42-23.92,15.31A66.85,66.85,0,0,0,221,788a36.19,36.19,0,0,0-4.09,5.83c-.76,1.32-1.48,4.81-3.3,5.68a12.93,12.93,0,0,1-.11-6.9,11.89,11.89,0,0,1,1.59-3.28c2.41-3.82,4.78-7.8,7.79-11.06s6.6-5.54,10.12-8c5.66-4,11.47-7.6,17.24-11.35,6.4-4.15,12.92-8.06,19.25-12.29,4.35-2.9,8.93-5.54,12.4-9.55,3.79-4.38,6.58-8.83,6-15-.05-.56-7.27.76-8,.95-11.21,2.82-21.54,5.24-31.58,10.6-3.94,2.1-7,5.07-10.26,8a42.4,42.4,0,0,0-4.27,5c-.59.73-1,1.8-1.9,1.78s-1.2-.83-1.17-1.58a9.1,9.1,0,0,1,1.21-3.88,25.87,25.87,0,0,1,5.11-6.82A73.26,73.26,0,0,1,251.36,726a77.13,77.13,0,0,1,13.74-5.73,138.24,138.24,0,0,1,24.22-5.49c8.26-1.08,16.59-1.09,24.89-2a149.92,149.92,0,0,0,24.49-4.7,27.11,27.11,0,0,0,3.33-1.17c10.42-4.36,18.09-10.21,24.31-20,4.63.87,9.33,1.53,13.94,2.38a13,13,0,0,0-6.82,1c-1.91.76-4.16,3.85-5,4.79-6.2,7-11.88,12.34-19.91,16-6,2.7-12.13,3.13-18,5.94a54.69,54.69,0,0,0-13.19,16.47,21.54,21.54,0,0,0-2.24,18.18c3.61,11.41,8.31,21.13,18.4,27.64,7.57,4.89,15.6,4.65,24.33,5.47.85.08,3.89-.83,4.72-.17,1.2,1,.21,1.21.32,2.38.21,2-1.61,3.42-.77,5.63.36.93,6.54-.74,7-.9,3.81-1.34,7.09-2,10.42-3.41,6.49-2.66,12.85-5,18.85-8.64,12-7.2,23-15.17,32.83-25.36s17.81-22.13,26.24-33.58c.59.22,1.2.51,1.8.75,0,3.41-1.29,5.9-3.19,8.59-3.51,5-6.65,9.25-10.33,14.51-.84,1.2-2.93,4.47-3.94,6a3.9,3.9,0,0,0,2.45.47c2.75-.51,5.39-3.14,7.44-4.78,9-7.19,17.91-13.5,27.39-19.71.36.72.75,1.41,1.11,2.11-19.38,19.82-43.54,32.82-65.78,48.68,1.06-.58,3.14,0,4-.17a117.31,117.31,0,0,0,22.08-6.26c7.86-2.93,13.21-4.62,22.29-9.3,3.9-2,15.86-9.55,20.8-12.67-6.54,6.72-16.19,15.18-22.55,21.39-3.92,3.82-4.35,4.53-7.65,7.81a11.81,11.81,0,0,0-4.19,0c-10.35,2-20.89,4.14-31.26,6-5.19.93-11.19.69-10.87,7.64.31,6.5,2.86,12.89,3.86,19.51.15,1,1,3.4,2.42,3.49s2.61-1.36,3.59-2.3c-4.91,6.17-10.13,12.13-15.25,18.11,3.39-7.19,3.07-14.41,1.9-22-.75-4.92-1.45-9-2.23-13.75a7.11,7.11,0,0,0-1.27-3.6,4.42,4.42,0,0,0-4.8-1.41c-6.51,2.62-7,6.92-7.07,13.55-.11,11-1,20.62-4.06,31.6-1.38,4.86-4.56,10.94-9.31,13.64.14-7.87,2.23-16.12,3.73-23.73,1.42-7.22,3.3-14.73,2.39-21.68s-5.74-4.47-10.35-3.46c-3.44.74-7.35.43-10.58,1.66-3.81,1.44-4.5,4.13-5.91,7.78a88.74,88.74,0,0,1-5.58,12.66,165.73,165.73,0,0,1-16.12,22.68c-5.51,6.63-11.34,12.77-16.87,19.46-2.76,3.33-5.37,6.44-8,10.23-2.17,3.17-4.07,7.55-7.26,10.09a7.21,7.21,0,0,1-.87-6.65,21.19,21.19,0,0,1,3.79-6.27c10.61-13.54,21.18-26.75,31.84-40.36,3.31-4.23,5.76-8.66,5.2-14.36-9.43,7.36-18.69,14.68-28.18,22.1-2.43,1.9-4.63,3.71-7.44,5.79-1.06.78-4.23,2.32-5,4,1.63-5.33,3.82-9.87,7.76-13.86,3.29-3.33,7.27-5.73,10.95-8.61a172.79,172.79,0,0,0,22.67-21,18,18,0,0,0,3.78-5.7,18.17,18.17,0,0,0,.54-6.09,24.24,24.24,0,0,0-5.65.74c-3.06,1.16-5,2.69-7.5,4.14a132.8,132.8,0,0,1-20,9.4c-6.43,2.41-13.26,3.52-19.24,7-9,5.28-16.12,12.63-22.17,21.16-17.15,24.16-33.24,48.86-46.92,75.25-9.93,19.13-18.67,38.78-26.72,58.82-3,7.49-5.77,15-8.27,22.75-7.3,22.49-12.13,45.71-18.32,68.55-1.07,3.92-2.15,7.82-3.15,11.79-1.22,4.86-2.05,9.66-3.27,14.61a54.56,54.56,0,0,1-2.33,7.52c-.23.58-1.76,3.31-2.3,4.14-1.78-1.55-3.35-3.4-5.2-4.9a4.6,4.6,0,0,1-2.37,1.34c-1.65.33-3.43,1-5.07,1-2.88-.06-4.67-1.41-5.09-4.44-1-7.11,1.44-13.67,2.54-20.63,1.22-7.67.77-15.37.32-23A32.7,32.7,0,0,0,143.72,1044.44ZM314.26,775.77c-.65,1.62-1.38,3.37-2.08,5.06-2.87,7-5.79,14-8.65,21.06-.33.82-.49,1.78.37,2.24.31.17.61,0,.89-.19,7.67-3.76,15.31-7.5,23-11.32a3.56,3.56,0,0,0,1.67-1.23,3.29,3.29,0,0,0,.38-2.71,13.44,13.44,0,0,0-3.9-5.5c-1.94-1.82-3.87-3.57-5.82-5.38-1-1-2.8-2.6-3.6-3.39s-.6-.66-1.2-1.3C315,774.11,314.67,774.75,314.26,775.77Z"/><path d="M284.79,602.74c2.06,9.74,1.31,20.34,2.81,30.21,1-.3,4.63.2,5.63-.06,14.76,19.17,33.7,32,55.79,40.48a128.13,128.13,0,0,0,26.58,7c9.63,1.48,19.18,2.21,28.84.89,14.34-2,27.66-6.41,41-12.21,20.31-8.85,38.73-20.2,54.46-36.36A18.8,18.8,0,0,0,505,622c-21.69,19.27-44.86,36.25-72.58,44.88s-56.37,8.59-83.77-1.52c-14.36-5.3-25.91-14.69-37.48-24.66-5.9-5.08-10.28-11.44-15.11-17.55-2.41-3.06-4.21-6.38-6.38-9.78A40.09,40.09,0,0,1,284.79,602.74Z"/></g></g></g></g></svg>