<svg xmlns="http://www.w3.org/2000/svg" xmlns:xlink="http://www.w3.org/1999/xlink" viewBox="0 0 1193.31 1101.99"><defs><style>.cls-1{fill:none;}.cls-2{opacity:0.1;}.cls-3{fill:url(#hexagone10);}.cls-4{fill:url(#hexagone10-5);}.cls-5{fill:url(#hexagone10-7);}.cls-6{fill:url(#hexagone10-9);}.cls-7{fill:url(#hexagone10-11);}</style><pattern id="hexagone10" data-name="hexagone10" width="30.5" height="49.5" patternTransform="translate(-14.38 -4.63) scale(1 1.03)" patternUnits="userSpaceOnUse" viewBox="0 0 30.5 49.5"><rect class="cls-1" width="30.5" height="49.5"/><polygon class="cls-2" points="43.02 58.62 28.77 64.69 16.25 55.57 17.98 40.38 32.23 34.31 44.75 43.43 43.02 58.62"/><polygon class="cls-2" points="12.52 58.62 -1.73 64.69 -14.25 55.57 -12.52 40.38 1.73 34.31 14.25 43.43 12.52 58.62"/><polygon class="cls-2" points="27.77 33.87 13.52 39.94 1 30.82 2.73 15.63 16.98 9.56 29.5 18.68 27.77 33.87"/><polygon class="cls-2" points="43.02 9.12 28.77 15.19 16.25 6.07 17.98 -9.12 32.23 -15.19 44.75 -6.07 43.02 9.12"/><polygon class="cls-2" points="12.52 9.12 -1.73 15.19 -14.25 6.07 -12.52 -9.12 1.73 -15.19 14.25 -6.07 12.52 9.12"/></pattern><pattern id="hexagone10-5" data-name="hexagone10" width="30.5" height="49.5" patternTransform="translate(-14.38 -4.97) scale(1 1.03)" patternUnits="userSpaceOnUse" viewBox="0 0 30.5 49.5"><rect class="cls-1" width="30.5" height="49.5"/><polygon class="cls-2" points="43.02 58.62 28.77 64.69 16.25 55.57 17.98 40.38 32.23 34.31 44.75 43.43 43.02 58.62"/><polygon class="cls-2" points="12.52 58.62 -1.73 64.69 -14.25 55.57 -12.52 40.38 1.73 34.31 14.25 43.43 12.52 58.62"/><polygon class="cls-2" points="27.77 33.87 13.52 39.94 1 30.82 2.73 15.63 16.98 9.56 29.5 18.68 27.77 33.87"/><polygon class="cls-2" points="43.02 9.12 28.77 15.19 16.25 6.07 17.98 -9.12 32.23 -15.19 44.75 -6.07 43.02 9.12"/><polygon class="cls-2" points="12.52 9.12 -1.73 15.19 -14.25 6.07 -12.52 -9.12 1.73 -15.19 14.25 -6.07 12.52 9.12"/></pattern><pattern id="hexagone10-7" data-name="hexagone10" width="30.5" height="49.5" patternTransform="translate(-59.78 77.41) rotate(0.1) scale(0.94)" patternUnits="userSpaceOnUse" viewBox="0 0 30.5 49.5"><rect class="cls-1" width="30.5" height="49.5"/><polygon class="cls-2" points="43.02 58.62 28.77 64.69 16.25 55.57 17.98 40.38 32.23 34.31 44.75 43.43 43.02 58.62"/><polygon class="cls-2" points="12.52 58.62 -1.73 64.69 -14.25 55.57 -12.52 40.38 1.73 34.31 14.25 43.43 12.52 58.62"/><polygon class="cls-2" points="27.77 33.87 13.52 39.94 1 30.82 2.73 15.63 16.98 9.56 29.5 18.68 27.77 33.87"/><polygon class="cls-2" points="43.02 9.12 28.77 15.19 16.25 6.07 17.98 -9.12 32.23 -15.19 44.75 -6.07 43.02 9.12"/><polygon class="cls-2" points="12.52 9.12 -1.73 15.19 -14.25 6.07 -12.52 -9.12 1.73 -15.19 14.25 -6.07 12.52 9.12"/></pattern><pattern id="hexagone10-9" data-name="hexagone10" width="30.5" height="49.5" patternTransform="translate(-102.5 -119.56) scale(1.17 1.22)" patternUnits="userSpaceOnUse" viewBox="0 0 30.5 49.5"><rect class="cls-1" width="30.5" height="49.5"/><polygon class="cls-2" points="43.02 58.62 28.77 64.69 16.25 55.57 17.98 40.38 32.23 34.31 44.75 43.43 43.02 58.62"/><polygon class="cls-2" points="12.52 58.62 -1.73 64.69 -14.25 55.57 -12.52 40.38 1.73 34.31 14.25 43.43 12.52 58.62"/><polygon class="cls-2" points="27.77 33.87 13.52 39.94 1 30.82 2.73 15.63 16.98 9.56 29.5 18.68 27.77 33.87"/><polygon class="cls-2" points="43.02 9.12 28.77 15.19 16.25 6.07 17.98 -9.12 32.23 -15.19 44.75 -6.07 43.02 9.12"/><polygon class="cls-2" points="12.52 9.12 -1.73 15.19 -14.25 6.07 -12.52 -9.12 1.73 -15.19 14.25 -6.07 12.52 9.12"/></pattern><pattern id="hexagone10-11" data-name="hexagone10" width="30.5" height="49.5" patternTransform="translate(-20.21 -0.5)" patternUnits="userSpaceOnUse" viewBox="0 0 30.5 49.5"><rect class="cls-1" width="30.5" height="49.5"/><polygon class="cls-2" points="43.02 58.62 28.77 64.69 16.25 55.57 17.98 40.38 32.23 34.31 44.75 43.43 43.02 58.62"/><polygon class="cls-2" points="12.52 58.62 -1.73 64.69 -14.25 55.57 -12.52 40.38 1.73 34.31 14.25 43.43 12.52 58.62"/><polygon class="cls-2" points="27.77 33.87 13.52 39.94 1 30.82 2.73 15.63 16.98 9.56 29.5 18.68 27.77 33.87"/><polygon class="cls-2" points="43.02 9.12 28.77 15.19 16.25 6.07 17.98 -9.12 32.23 -15.19 44.75 -6.07 43.02 9.12"/><polygon class="cls-2" points="12.52 9.12 -1.73 15.19 -14.25 6.07 -12.52 -9.12 1.73 -15.19 14.25 -6.07 12.52 9.12"/></pattern></defs><title>Samuel_Pepys_transparent</title><g id="Слой_2" data-name="Слой 2"><g id="Слой_1-2" data-name="Слой 1"><g id="Main_Samuel" data-name="Main Samuel"><g id="shadows"><path class="cls-3" d="M293.11,718.59c2.76,4.65,5.55,9.29,8.32,13.94,1.82,11.7,3.59,23.35,5.44,35.09,5.92,6,12,13.66,18,19.12S337,795,342.84,800.09c6.45-1.09,9.33-.76,16.66-2.05s19.19-4,27.35-5.5c4.32-3.4,7.5-5.44,11.76-9.25s9.1-8.8,13.56-13.1,10.38-8.66,14.4-13.22,4.21-5.25,8.3-11.12,10.93-17.15,15.54-24.18c-1,2.68-2.12,5.54-3.17,8.28,1.05-2.75,2.19-5.6,3.17-8.28,2.69-1.84,5.33-3.39,8-5.1l11.47,9.26,15.77-6.69q1.54-10.53,3.08-21l13.48-5.76q0-8.82-.05-17.65l17.18-8.57-4.54-5.9,11.13-6.92c.39-.73.78-1.46,1.16-2.19q36.51-28.87,73-57.73l20.74,30.35c12.09,3.36,24.18,6.9,36.27,10.09,65.71,79.32,132,157.06,197.92,236.67,12.74,41,28.37,89.27,40.21,128.2s18.23,66.59,29.8,103.31c-34.28-2-64.36-.32-99.4-.41s-74.38-.4-110.43-.38c-.31,0-.35.72,0,.74-.32-5.92,0-11.79.05-17.7l14.22-6.7q.78-8.71,1.58-17.41l-15.44-10.35q.26-8.25.53-16.5,6.85-4.26,13.73-8.5l1.71-19.25,12.76-5.81c.34-6,.66-12,1-17.94L760,975.63l1.86-16.92L746,947.78q.33-8.7.67-17.4l13.14-6.28q.75-8.19,1.49-16.4l-16.86-11.79q1.4-7.87,2.8-15.74l-73.82,38.45-2.31-4.06c-.14-3.46-.27-6.92-.41-10.39l13.71-6.4q.35-9.45.7-18.91l16.16-7.93q0-7.71,0-15.43l-16.05-10.92q.32-8.73.62-17.46l13.84-6.38q1-8.25,1.93-16.48l-6.68-3.74L645.66,824l-6.73-6.34q.71-7.68,1.42-15.37l13.77-6.76c.19-5.57.52-11.09.58-16.7-4.33-3-10.09-7-14.09-9.72s-6.19-4.38-9.84-6.93c-11,6.87-22.21,13.44-33.21,20.28-3-2.47-5.06-4.28-8.3-6.88s-7.64-5.93-11.06-8.75c.13-2.83.58-6.57.76-9.14s.14-3.94.26-6.28c4.69-2.63,9.35-5.4,14-8.1V726L608,718.59l2.28-15.9-17.06-11.84q.62-8.83,1.25-17.66l13.55-5.7c.55-5.35.93-10.61,1.64-16-4.29-1.68-.42-6.31-8.47-2.57-38.55,33.86-99.62,85.41-132.74,115.3s-31.25,29.85-54,52.9-35.67,45.56-57.27,69.1c-6.74-6.73-15.16-11.71-22.71-17.6-.28-4.72-.48-9.48-.72-14.21l-10-7.53,10.07-14.73-31.76,40.42c-4.87,2.59-9.73,5.2-14.61,7.78-2.31-1.74-4.54-3.77-6.88-5.41s-4.69-3-7.12-4.45c-.11-2.75-.84-3.65-.76-6.83s.79-8.47,1.06-12c7.57-2.48,15.18-4.64,22.78-7l19.93-15.07-14-10.86q1.53-4.46,3-8.91c-5.66-1.35-11.44-2.43-17-4,3.22-6.27,8.45-15,11.05-20.8s2.1-8.36,4-13.56c-5.39,2.32-10.72,4.25-16.1,6.39l-13.19-9.16L258,777q.31,8.73.62,17.45l-16.48,9.43-14.49-10.45q.12-9,.24-18.07c-1.41.08-2.78.21-4.22.23-2.34-1.78-5.62-4.09-7.72-5.79s-3-2.79-4.81-4.4c1-5,2-10.21,2.66-15.21,5.45-3.36,8.29-3.5,14.3-7.67s15.16-11.94,21.69-16.91C264.35,723.07,278.66,720.94,293.11,718.59Z"/><path class="cls-3" d="M246.47,1101.24h48.77c55.61-72.8,107.28-144.94,163.19-217.48l-15.09-1.47-22.77,9.42-2.41-.58c-1.55,1.94-2.91,3.86-4.61,5.78-3.3,1.12-9.16,3.15-11.86,4.05s-2.24.37-4.32,1.18c-.24,4.07-1,10.4-1.52,14s-1.37,4.17-2,7.17c-4.07,1.62-8.06,3.63-12.08,5.44q-.74,9.67-1.48,19.34l-14.42,6.62q-.69,9.62-1.37,19.23l-14.19,7.89-14.57-8.7-17.47,8.39c-1.5-.74-2.64-1.56-4.27-2.22s-4.05,1.6-4.46-1.72c-9.55,17.1-7.22,8.81-19.23,31.1S260.22,1075,246.47,1101.24Z"/><path class="cls-4" d="M120.44,1101.21h31c-1.13-2.66-2.26-5.31-3.38-8-3.47-.49-6.91-1.3-10.41-1.51.06-3.74-.39-4.37-.2-8.78s1-9.64,1.2-15.54.35-15.43.52-22a62.4,62.4,0,0,0-6.87,1.87Q126.39,1074.26,120.44,1101.21Z"/><path class="cls-5" d="M390.81,277.1a47.17,47.17,0,0,0,6-.56c5.49-.67,10.9-1.36,16.14-1.8,11.87-1,23.53-2,35.32-2.31,13.84-.39,27.79-.05,41.54-.49,5.2-.17,11.65.67,15.25-3.23,9.56-10.36,13.35-22.14,15.3-35.51,1.61-11-1.71-21.22-1-32,.27-4.07.9-6.17,4.93-7.84,2-.81,4.42,5.72,4.61,6.56a580.56,580.56,0,0,1,10.85,63.67c.59,5.41-.86,10.42-.54,15.55.26,4.2-.22,6.42,2.65,9.86,3.12,3.74,8.17,6,11.84,9.7,7.9,8,15.52,16.77,22.86,25.36.28-1.68,1.07-3.59,1.46-5.18a55.1,55.1,0,0,0,1.35-11.18c2.84,7.71,4.39,15.51,6.62,23.44,2.39,8.51,6.21,16.39,9.72,24.61,2.73,6.39,4.9,13.12,7.2,19.84,1.93,5.64.22,12.46,5.57,16.63,5.65,4.4,10.84,3,18.18,1.78,3.46-.55,10.29-2.65,13.29-5.66-3.27,7.7-6.67,14.49-13,20.43-4,3.78-10.46,5.23-14.8,8.55-3.2,2.45-4.23,4.43-5,8.48-1,5.63-.74,11.34-1.52,17.33-2,15.06-4.4,28.75-7.43,44.23-2.9,14.78-10.15,27.83-4.32,44.21.83,2.35,16.42,3.59,19.23,3.34,19.71-1.79,38.93-1.84,57.8-4.08,13.28-1.57,25-4.18,38-6,6.64-.94,13-2,19.93-2.47a12.9,12.9,0,0,1,10,3.16c.58.55.2,1.88-.43,2.49-6.25,6.14-14.08,12.54-21.84,16.1-19.6,9-40.23,15.41-60.14,21.89-20.89,6.8-39.06,14.64-60.56,20.13-3,.77-8.82.57-12.56,3-1.77,1.13-6.1,6.85-7.39,8.25-12.28,13.31-22.67,25.25-35.77,37.67-8.16,7.75-22.71,17.25-32,22.26-18.67,10.11-34.82,20-52.59,28.77-12.85,6.36-24.55,9.14-37.86,12.2-6.8,1.56-12.14-1.05-19.18-.25-3.52.4-12.21.07-13.58-4.11-2.73-8.35-2.23-16-.33-24.14,8.26-35.16,26.08-65.4,48.31-93.9,4.19-5.38,10.46-13.93,15-19.93,8.05-10.69,18.41-19.23,24.67-31.28.39-.76,0-1.37-.81-2.25-8.2-9.12-16.41-18.57-23.87-28.55A278.29,278.29,0,0,1,427.76,463c-12.29-21.86-23.32-44.77-31.74-68.54-2.6-7.33-2.69-14.62-3.27-22.43-.34-4.62.19-9.42,4-12.83,2.16-1.93,5.84-.65,7.78,1.17,2.66,2.48,4.35,5.94,5.81,9,1.82,3.88,4.63,9.09,6.58,12.48,7.77,13.58,23.46,32.23,32.42,41.63,12.74,13.36,23.45,21.34,34.14,31.63,5.62,5.42,8.95,7.73,12.74,11,6.62,5.68,10.4,9.17,17.4,11.37,5.42,1.7,7.31-.53,10.56-3.51,6.74-6.15,9.34-13.86,13.61-21.95a87.87,87.87,0,0,0,6.08-15.68c1.92-6.81,3.52-14.95,5.4-21.42A231.63,231.63,0,0,0,556.36,385a11.65,11.65,0,0,0-2.41-9.6c-1.44-1.77-4.35-2-6.28-3.21a68.87,68.87,0,0,1-9.92-7.89c1.68,0,5,.36,6.09-1.08,5.42-7.17,5.81-14.44,3-22.52a138.21,138.21,0,0,0-11-23.54c-4.25-7.54-8.67-13.45-15.43-19-1.94-1.59-5.77,1.42-8,1.86a53.8,53.8,0,0,1-15.2,1.21c-18.82-1.71-37.95-2.78-56.28-6.84C423.53,290.54,407.46,283.27,390.81,277.1Z"/></g><g id="wrinkles"><path d="M380.77,635.73q-9.7,1.8-19.42,3.63C367.86,634.92,373.1,633.76,380.77,635.73Z"/><path d="M368.17,293.86q-.35-15.19-.72-30.37l2.67-.25c1.08,10.14,1.8,20.13,1.15,30.33Z"/></g><g id="nose"><path d="M350.08,313.66c5.83,6.08,13.25,19.88,14,27.33,1.87,18.61-.27,33-3.76,49.91-2.52,12.26-6.85,23-11.12,34.41-3.93,10.5-9.87,19.46-14.83,29.53-.93,1.9-2.35,4.42-3.37,6.36-.42-1.74-.76-4.57-.15-6.15,4.21-10.88,9.86-20.69,13.58-31.62,4.42-13,8.57-25.72,11.15-39.33A181.56,181.56,0,0,0,359,349.33c0-5.85-1.66-10.8-3.5-17.93C354.59,328.07,350.46,318,350.08,313.66Z"/><path d="M324.73,475.77c-.24,2.42-1.42,4.19-1.57,6.7-.49,8,1.86,13.3,8.67,17.8,1.23.82,2.59-.48,3.5-1,3.47-1.95,5.29-2,8.55.31,7.58,5.3,13.64,8.76,23.28,7.07,5.19-.91,9.86-5.37,15-6.85,7.6-2.19,12.72-.14,18.54,4.86a25,25,0,0,1-5.46.63c-7.58.2-13.63,2.12-20.3,5.51-5.44,2.76-10.51,5.2-16.79,5.15-3.58,0-7.15-2-10.11-3.65a30.19,30.19,0,0,0-10.93-3.49c-6-.83-11.59-1.07-15.26-6.37-4.45-6.42-3.5-13-2.44-20.36.37-2.57,2.41-4.64,3.32-7C323.42,475.3,324.06,475.6,324.73,475.77Z"/><path d="M420.87,467.54c4.44,1.87,8.59,3.36,8.26,9.08-.74,13-6.3,21.45-16.05,29.92-1.06.92-3.57-.09-4.65-.79.13-1.57.81-3.81,2-4.79C425.54,488.42,425.87,486.33,420.87,467.54Z"/></g><g id="eyes"><path d="M508.24,355.22c3,1.43,6,2.41,9,3.91-17.89,13.28-35,20.62-57.57,19.73-6.89-.28-12.74-5-19.22-7-2.89-.89-5.94-1.58-8.92-2.37-1.94-.51-3.7-1.68-5.78-2.13,2.46-2.74.91-3,4.36-6.11,5-4.47,11.4-11.66,18.87-14.57,12.61-4.9,25-6.83,38.76-4.88,6.59.93,12.17,5.86,18,9.2,1.27.73,1.92,2.89,2.56,4.19-1.5-.65-3.19-1.61-4.62-2.25s-2.54-1.06-3.88-1.73c.48,2.43.95,4.75,1.45,7.21a9.39,9.39,0,0,1,.08,1.57,59,59,0,0,1-2.6,9.44C504.21,365.77,506.71,361.66,508.24,355.22Zm-38.95,21.37a41.73,41.73,0,0,1-6.53-8.75,18.93,18.93,0,0,1-1.88-10.49c.59-4.91,3.05-7.41,4.34-11.79-6.17,2.25-12.67,2.85-18.49,6.2-3.69,2.13-7,3.74-6.78,9s1.28,7.78,7.4,10.94C452.53,374.37,462.49,377.62,469.29,376.59Zm9-21.47c0-1.69-1-5.3-2.24-6-2.61-1.54-4,0-6.5-.09.17,1.56.69,4.37,1.93,5.15C473.9,355.67,475.84,354.87,478.31,355.12Z"/><path d="M266.69,367.24c3.66-6.07,7.05-11.95,14.32-13.82,12-3.08,22.59-2.64,34.73.07,4.48,1,8.6,4.86,12.67,7.37a91.83,91.83,0,0,1,8.92,6.73c1.7,1.36,3.15,3.24,4.85,4.67-2.85,2.18-3.7,3.63-7.27,5.72a37,37,0,0,1-8.19,3.62,112.32,112.32,0,0,1-11.83,2.84,118,118,0,0,1-34.55-.2c4.39-.78,8.9-.8,13.26-1.65-.59-1.91-2.69-3.81-3.57-5.31a18.49,18.49,0,0,1-2.1-5.61,78.6,78.6,0,0,1-1.75-11c-.19-1.72.21-2.67.19-4.26-2.11.36-5.19.51-7,1.55-4.78,2.8-8.47,6.16-12.89,9.25C266.6,367.25,266.62,367.34,266.69,367.24ZM294.8,357c-.85,1-.59,4.42.16,5,2.22,1.75,3.9.53,6.27,1-.61-2.27.44-4.12-1.38-6.1C299,355.93,296,356.24,294.8,357Zm28.4,6.86a20.61,20.61,0,0,1,.4,4.18c0,1.31-.14,2.28-.26,3.55s-.49,2.65-.67,3.9c1,0,3.89-.76,4.18-1.67C328.39,369.1,326.34,367,323.2,363.88Zm-56.89,3.63c-2.55.55-4.73.62-4,4,.38,1.79,3.14,3.07,4.68,4a5.8,5.8,0,0,0,1-1.24c-.58-2.27-1.16-4.56-1.7-6.83C266.22,367.38,266.35,367.5,266.31,367.51Z"/><path d="M433.8,333c24.08-14.93,50.12-11.79,72.59,4.54-12.13-3.29-23.77-9.65-36.38-10.45S446.07,331.35,433.8,333Z"/><path d="M261.8,343.74c6.39-3.64,12.19-8,19.61-9.22,9.76-1.57,19.4-.59,29.21.18,5,.39,9.75,2.66,14.54,4.12a10.49,10.49,0,0,1-.22,1.95,23.17,23.17,0,0,1-7.11-.1c-8.83-1.82-17.47-3.36-26.35-3.11-8.52.25-15.46,3-23.19,6.25a32.06,32.06,0,0,1-6,1.75C262.09,345,262,344.39,261.8,343.74Z"/></g><g id="eyebrows"><path d="M341,300.73a5.84,5.84,0,0,0,.17-1.25c-.06-2.9.57-5.82-.81-8.49a7.54,7.54,0,0,0-6.75-4.09,281.25,281.25,0,0,0-38.51.06c-12.17,1-24.87,5.34-35.77,10.6-3.4,1.64-5.07,3.08-7.9,5-2,1.33-3.21,1.66-5.08,3.65-1.54,1.62-1.27,6-1.45,8.33a94.58,94.58,0,0,1-1.64,9.52c-.52,2.78-.82-.77.07,1.16,1-.86,6.24-4.87,6.65-5.12,12.65-8,23.79-11,37.88-11.53,10.72-.39,20.51,1.45,31,1.54,5.14.05,9.82,1.85,15,1S340.14,305.25,341,300.73Z"/><path d="M551.45,326.15c-3.42,3.3-8-1.29-10.46-2.88-8.83-5.76-16.28-11.87-25.92-15.26-12.44-4.39-24-6.74-37.25-6.62-16.36.14-31.16,3.08-48.06,5.68-11.12,1.72-19.24,7.25-25-7.25-2.3-5.75-3.25-13.41,2.94-17.3,7.71-4.84,18.77-3.89,27.12-4.11,22.56-.57,44-1.72,65.73,3.84,12.44,3.18,22.35,10.35,32.28,18.26,5.1,4.07,8.62,9.87,12.79,14.85a44.55,44.55,0,0,1,5,7.84C551.28,324.49,552.29,325.34,551.45,326.15Z"/></g><path id="hair" d="M1185.37,975.93c-3.52-15.68-15.86-25.67-26.91-37.83C1144.73,923,1136,915,1136.68,892.86c.25-8.27,8.77-12,11.25-18.87,7.75-21.29,11.57-42.11-.53-62.49s-30.41-31.9-50.72-44.19c-22.46-13.6-38.92-22-42.25-50.69-1.07-9.23,6.59-15.71,5.86-24-2.51-28.48-21.37-49-33.68-73.35-8.13-16.09-10.1-34.61-20.49-49.39-8.92-12.69-26.21-16.31-32.82-30.74-10.43-22.78,3.27-47.15-3.59-70.64-5.84-20-23.59-32.73-34-50.59-4.73-8.14-5.15-18.15-7.65-27.44-9.66-36-24.54-70.37-42.48-103.11-9.37-17.08-19.75-33.28-32.7-47.85-19.18-21.58-45.28-35.33-64.18-57.22-16-18.47-27.15-40.48-40.86-60.58C698.78,49.7,618,9.37,531.11,9.74c-13.89.06-26.58,2.6-40.47,1.3-15-1.41-29.44-5.4-45-7.84C352.29-11.46,273.91,24.9,215.59,98.86c-6.3,8-9.78,14.74-19.41,18.41-8.81,3.35-13-3.2-18.08-9.15-2.23,11.64-4.2,23.55-6.48,35.24-19.47,10.45-35.22,23.73-47,42.72-16.74,27-32.42,55.1-48.53,82.57a66.79,66.79,0,0,1-5.41-18.34c-22,24.69-23.43,35.07-8.38,64.53a131.13,131.13,0,0,1-29-6.54,227.25,227.25,0,0,0,14,42.78q-8.53-6-17.09-12C28,366.41,35.39,389,54,409.18c-1.42,30.18-6.35,60.28-13.47,89.46-2.16,8.88-7.4,17.49-4.73,26.1C46.29,558.56,73.74,583.82,76.86,620,34.56,648.44,27.19,684.9,50.7,729.38c-23.64,19-45.33,39.87-49.9,71.26s11.17,57.79,28,82.93c-18.1,8.88-24,16.16-23.37,36.08s10.2,35.55,14.28,53.59,4.71,33.71,1.52,51.41c-1.53,8.44-11.26,13.23-11.78,21.64-1.26,20.48,5.36,36.78,13.66,55h59l50.72-.09c1.69-10.44,7.18-33.64,9.29-41.88s1.63-8.32,2.77-13.78c.85-4.07.2-4.56.91-8.2.3-1.53.67-2.81,1.17-4.7s1.08-4.11,1.78-6.41c.46-1.51,1.21-3.83,1.73-5.69a34.87,34.87,0,0,0,1.12-4.53,37.75,37.75,0,0,0,0-4.76c0-11.32-1.91-19.15-1.18-31.19.87-14.31.64-26.33,3.59-42.29A958.25,958.25,0,0,1,181.17,828c8.37-27,18.18-57,31.92-83.39,9.54-18.33,25.13-35.07,42.59-47,.27-.19,1.23-1.38,1.52-1.66,2-1.89,5.25-4.48,7.1-5.94,3.49-2.74,6.39-4.95,9.53-7.41s5.82-4.38,8.7-7.08c-.3-4.19-.57-10.59-.46-14.42a153,153,0,0,1,2-20.34c1-6.16,3.08-9.53,3.95-15.44-2.11-5.13-5-14.7-6.69-19.06-3.92-9.87-5.77-14.57-9.69-24.17-6.29-15.39-13.27-31.91-18.34-48.7-3.9-12.91-8.71-30.53-10.71-43.48-5.94-38.33-2.51-75.16-1.3-112.87.31-9.51.51-21.47-.81-28.59-1.54-8.33,2.06-29.89,2.34-32,1.8-12.91,2.93-21.89,4.36-30.1,2.05-11.87,3.56-19.69,6.08-29.59,3.35-13.19,7.23-24,11.69-36.51.78-2.16,3.57-3.12,5.48-4.26,4.19-2.5,9.16-5.77,13-8.34,3.3-2.22,6.21-2.22,9.48-1.87,9.32,1,16.77.72,24.87-3.71,9.53-5.21,18.37-9.76,29-12.17a1.33,1.33,0,0,1,.45,0c8.66,1.13,10.73,3.85,10.22,12.54a16.11,16.11,0,0,1-.49,2.94,80.5,80.5,0,0,1-10.6,20.77c2.24.41,5.47,2.41,7.64,1.35,9.59-4.72,17-9.16,22.71-18.49,4.77-7.74,5.71-17.34,8.77-26.08A64.19,64.19,0,0,1,392.76,168c6.62-9.66,13.32-19.12,18.84-29.57,1.82-3.45,2.52-7.69,4.09-11.31a19.64,19.64,0,0,1,1,3.67c2.3,12.74,1.23,26.61,5.05,38.94,5.76,18.56,13,33.32,28,46.2,8.78,7.57,20.57,7.56,31.95,8.71,15.79,1.58,31.5,3.69,46.91,8.21,10.37,3,21.4,4.47,32,6.43,3.89.73,5.21,1.76,6.54,5.72,5,14.84,13.21,28.07,20.83,41.85s10.65,23.84,8.77,40.44c-1.61,14.1-6.39,30.76-6.09,46.06.12,6.11,3.23,13,4.47,19.25,1,4.93.63,8.69-.5,14-3,14-6.22,27.59-4.1,42.45,1,7.12,6.14,13.79,9.23,20.57a10.71,10.71,0,0,1,.94,6.7c-2.21,8.81-5.53,17.35-7.43,26.33-2.56,12.15-3.14,24-3,36.58,0,2.49,0,5.21,0,8.17-.18,10.81-.64,20.35.9,31.88.58,4.35,3,11.76,6.83,15.77a59.59,59.59,0,0,0,6.17,5.29c2.8,1.91,6.51,6.66,7.69,8.69,1.87,3.2,6,6.95,7.08,8.62,4,6.39,15.07,8.28,19.42,9.42,19.38,5.1,18.74,8,27.16,23,2.08,3.69.42,8.22.84,9.83,6.08,23.24,13,44.47,24.19,64.77,8.7,15.82,18.59,27.84,32.73,38.91,14.58,11.42,34.31,15.63,49.1,26.81,22.21,16.78,39.69,37.16,54.67,60.63,16.49,25.84,32.3,52.6,44.52,80.87a117.27,117.27,0,0,1,8.74,35.26c1,10.21-4.86,20.39-2.78,30.46,6.73,32.58,26.3,70.14,28.88,103.7l287.09.1C1177.89,1064.93,1193.88,1013.73,1185.37,975.93Z"/><g id="clothes"><path d="M819.1,849.94c-4.1.71-8.69,1.1-12.81,1.77-6.7,1.07-14.13,2.2-20.51,3.52s-13.27,1.82-18.78,4.2a525.56,525.56,0,0,0-79.7,42.48c-11.66,7.59-21.66,16.68-31.58,26.55-4.39,4.37-5.14,10.46-7,16.13a100.25,100.25,0,0,0,20.11-10.76c26.62-18.33,52-35.47,82.14-49.05,15.15-6.81,33.39-12.59,51.6-19,1.27-.45,16.15-5.72,20.46-5.92,1.87-.08,6.58-2,8.62-.63-1.65-3.58-3.94-6.85-5.87-10.29C823.46,849.09,821.46,849.53,819.1,849.94Z"/><path d="M722.79,767.24c-1.54,1.1-2.84,2.2-4.42,3.34a54.61,54.61,0,0,1-6,3.37A370,370,0,0,0,644.65,819a21.34,21.34,0,0,0-1.62,1.67,64.3,64.3,0,0,0-6.69,7.39c-.91,1.29-.88,2.9-1.42,4.35,2.31,0,4.22.89,6.53,0,3.22-1.23,6-3.34,9.08-5.16,15.8-9.46,31.48-19.28,47.69-28.09a236.43,236.43,0,0,1,25.48-11.67c8.41-3.35,17.22-5.86,25.72-9-5.69-2.39-11.12-4.46-17-6.6A48,48,0,0,1,722.79,767.24Z"/><path d="M686.52,724.27c-5.09.63-8.52,4.76-11.66,7.68-6.64,6.18-15.54,14.52-21.78,19.59-29.29,23.81-57.33,44.8-88.67,66.18A262.22,262.22,0,0,1,541,831.47c-6.34,3.2-18.92,10.12-22.85,13.4-16.45,13.69-31.26,29.71-44.19,44.28-55.85,63-106.57,129.27-156.91,196.42-5.68,7.57-12.29,11.09-20.08,16-.86.55-2.37.39-2.68-.55-1.23-3.72-2.66-6.59-.3-10.1,29.09-43.14,58.6-84.38,91.21-125.13,16.31-20.38,34.87-40.18,52.7-61.24,2.82-3.33,12.07-14.49,15-19.37.78-1.3.75-1.59.34-2.72-9.92,4.57-21.06,8.92-30.64,13.38a7.48,7.48,0,0,1-4.16.51c-3.22-.06-2.22-2.47-1.72-3.59,1.22-2.73,2.68-3.79,4.49-5.69a23.88,23.88,0,0,1,4.38-3.58c57.94-38.34,118.3-73.11,174.74-113.64A281.37,281.37,0,0,0,647.05,727c7.4-8.37,11.56-17.62,15.38-27.74,4-10.53,3.66-21.31,5.66-32.26,3.59,10.74,5.32,19.43,9.8,30.55,3.6,8.93,10.09,20.54,15,29.5C691.63,725.86,688.13,724.07,686.52,724.27Z"/><path d="M635.44,628.17c-3.86-2.44-7.94-4.51-11.47-7.45-3.16-2.64-5.44-6.09-8.09-9.2a37.65,37.65,0,0,1-.87,7.83,14.88,14.88,0,0,1-2.79,5.63A155.4,155.4,0,0,1,598,640.2c-25.33,23.63-51.15,47.18-76.26,70.45-22.8,21.12-42.26,39.25-65.84,61C451.25,776,440,787,434.15,793.17c-16.39,17.34-30.45,33.39-46.66,52.61-2.69,3.19-10.86,13.33-14.88,18.65-3.36,4.44-9,11.52-12.81,16.2-.79.28-1.16-.08-1.82-.27,1.34-8.22,2.77-16.43,4-24.66.72-4.72,1.3-9.46,1.84-14.19a9.48,9.48,0,0,0,0-3.36,73.89,73.89,0,0,0-2.52-7.34c-.69.18-1.37.33-2,.57-.32,1.53-.78,3.46-1,4.93-.43,2.93-.7,5.8-1,8.61-.68,5.63-1.15,11.19-1.8,16.76-.49,4.21-.44,8.45-1.57,12.52a179.66,179.66,0,0,1-9.31,25.44c-3.72,8.3-8,16.38-12.1,24.5-1.84,3.62-4.07,7-6,10.58-9.21,16.94-18.53,33.89-27.07,51.16-5.93,12-11.76,24.21-17.42,36.36-11.85,25.43-24.49,53.16-35.51,79a35,35,0,0,0,16-3.48c2.59-1.19,3.88-4,5-6.59,13-28.76,26.18-59.08,39-87.8C324,963.78,346.15,924.87,369,889.08c6.42-10.05,15.48-19.61,20.42-26.4,7.9-10.85,16.53-22.48,22.16-29.71a281.45,281.45,0,0,1,20.88-24.05c34.28-35.48,70.53-67.14,106.14-100.4,3.52-3.29,6.65-6.09,9.91-9.18,14.21-13.47,28.06-27.1,43-39.65,7.52-6.34,16.46-11.1,24.29-17.19,3.79-2.94,7-6.93,10.87-10C629.19,630.49,632.45,629.4,635.44,628.17Z"/><path d="M601,600.89c-1-4.8-4.15-8.31-6.72-12.3-1.47,2.31-2.67,5.83-4.59,7.72-27.42,27-58.22,49.29-91.43,68.49a248.77,248.77,0,0,1-64.95,26.58C422.7,694,411.9,693,401.05,693c-7.72,0-15.18-2.05-22.75-3.58-3.75-.75-7.25-2.42-10.83-3.92a17.69,17.69,0,0,1-5.14-2.9c-1.57-1.38-2.18-3.6-2.44-5.69-12.42-4.77-24.93-9.49-37.38-14,4.63,3.94,10.42,9.08,14.69,12.83s7,6.09,10.83,9.76c-7.17-.5-13.93,1.53-20.82-1.3-7.32-3-11.14-9-17.37-14.45-2.46-2.14-6.35-5.58-4.86,2.63.37,2.07,5.06,12.37,9.6,12.48-7.39,2.71-14.48,3.83-22.46,4.72-1.83.21-3.45,1.24-5.21-1.2s-3-7.24-3.3-10.51c-4.47,3.08-11.44,8.74-15.1,11.65-4.75,3.77-7.24,5.78-11.14,9-3.5,2.92-6.14,5.46-9.31,8.48,4.44-.9,10.73-1.52,14.72-2.43s6.65-2.67,9.87-3.59c6.45-1.84,12.36-3.76,18.69-4.79,9.8-1.58,19.51-2.27,29.2-3.24,6.73-.67,13.29-1.21,19.89-1.43a76.53,76.53,0,0,1,8.64.62c3,.22,5.77.65,8.86.94.54.05,2.16.16,2.68.28,3,.67,5.05,1.72,8.08,2.2,10.06,1.58,20.55,3,30.73,4,3.58.35,7.25.92,10.73.52A249.83,249.83,0,0,0,507,667.87c25.87-14.9,49.33-33.56,72.82-52,3-2.4,5.95-5.38,9.18-8a44.89,44.89,0,0,1,8.84-5.89S601,600.93,601,600.89Z"/><path d="M146.15,1047.55A4.33,4.33,0,0,1,146,1046c.52-2.86,1.45-5.91,2.22-8.67,1.71-6.16,3.33-12.16,5.05-18.26.55,8.71,1.06,17.69,1,26.37,0,9.47-.74,18.87-1.34,28.19a133.74,133.74,0,0,0-.15,18.23c.75-1,2-2.08,2.64-3,1.76-2.73,3.76-5.09,4.79-8.13,5.36-15.74,9.85-31.71,14.25-47.75.45-1.6.62-3.27,1.08-4.86,8.19-28.87,16.8-57.77,28.27-85.46a589.15,589.15,0,0,1,29.19-59.48c8.19-14.81,17.17-29.21,26.55-43.21,6.3-9.41,14.61-16.71,21.91-25.11s14.19-16.21,19.33-26.18c3.33-6.46,4.09-14.19,5.9-21.26a12.18,12.18,0,0,0,.28-2.91c.14-9.43.49-18.83-.78-28.21-.67-4.92-3.38-9-5.8-13.16a1.81,1.81,0,0,0-2.15-.84c-.83.2-1.13,1-1.58,1.55a37.41,37.41,0,0,0-2.69,3.6c-1.57,2.47-2.44,5.39-4.16,7.72-3.78,5.12-7.48,10.18-12.55,14.06-7.57,5.81-16,10.15-24.05,15.16s-16.14,9.74-23.77,15.56a70.34,70.34,0,0,0-9.69,9.68,32.42,32.42,0,0,0-4.16,6.24c-.7,1.31-1.59,3.79-3,4.87a19.24,19.24,0,0,1-.12-6.64,9.27,9.27,0,0,1,1.48-3.33c2.42-3.72,4.71-7.7,7.69-10.93a61.15,61.15,0,0,1,9.93-8.23c5.64-4,11.45-7.62,17.19-11.42,6.37-4.21,12.88-8,19.15-12.4,4.31-3,8.79-5.58,12.16-9.73,3.67-4.53,5.91-8.79,4.48-14.85-.13-.55-5,.56-5.76.8-10.85,3.62-21.67,6.43-32,11.18-4,1.86-6.92,5-10.27,7.79-1.68,1.38-2.85,3.27-4.25,4.85-.6.69-1,1.48-1.88,1.64s-1.2-.62-1.16-1.33a8.46,8.46,0,0,1,1.09-3.79c1.51-2.42,3-4.92,5.08-6.73a86,86,0,0,1,14.41-10.16,66.9,66.9,0,0,1,13.68-5.66,182.53,182.53,0,0,1,24.32-5.34c8.22-1.21,16.55-1.21,24.78-2.3A243.86,243.86,0,0,0,337,709.38a11,11,0,0,0,3.28-1.21,107.26,107.26,0,0,0,23.84-20c4.57.76,9.17,1.49,13.7,2.3a19.1,19.1,0,0,0-6.33,1c-1.84.54-3.56,3.14-4.46,4-6.61,6.31-12.51,12.11-20.28,16.34-5.81,3.17-12,4-18,6.64A101.07,101.07,0,0,0,316,734.65a19.8,19.8,0,0,0-3,8c-.38,3.35-.61,6.89.79,9.92,4.77,10.35,9.3,19.79,18.62,26.73,7,5.21,15.73,4.66,24.08,6.24.81.15,3-.79,3.78-.17,1.1.89.71,1.31.76,2.52.08,2.11-1.11,3.63.19,5.76.55.9,4.61-.47,5.06-.66,3.76-1.58,7.68-2.4,11-3.91,6.49-2.94,13-5.09,18.81-9,11.6-7.79,22.6-15.64,32.43-25.62s17.48-22,26.16-32.93c.59.14,1.16.44,1.77.65-.88,3.09-1.46,5.8-3.26,8.58-3.34,5.15-6.89,9.86-10.48,15.17-.82,1.21-2.43,3.71-3.32,5.17.86.3,1.49.77,2.47.41a28.81,28.81,0,0,0,7-4.38c9-6.91,18-13.46,27.27-20,.34.72.73,1.41,1.09,2.11-20.32,18-42.67,33.29-64.93,48.74,1-.36,2.55,0,3.46-.23,8.24-2.15,14.95-3.6,23.14-6.76a233.25,233.25,0,0,0,24.34-10.72c3.83-2,12.41-7.41,16.7-10.33-6.13,6.36-13.92,13.62-20.09,19.61-3.81,3.68-5.66,5.81-9.11,9.23a9.52,9.52,0,0,0-4-.11c-10.3,2.18-20.75,3.79-31.06,6.26-5.15,1.24-9.22,1.8-9.85,8.18-.58,6,2.08,12.82,3.11,19,.16.95.92,3,2.37,2.86s2.46-1.09,3.51-2q-7.5,9.08-15.14,18a74.77,74.77,0,0,0,1.76-21.59c-.37-4.73-1.48-9.23-2.09-13.83A8.39,8.39,0,0,0,398,792.2c-.89-1.36-3.07-2.37-4.26-1.4-4.87,4-6.56,7.32-7.38,13.64-1.35,10.53-1.74,21.2-4.6,31.84-1.27,4.71-4.93,9.37-8.58,12.75.6-7.5,2.18-15.73,3.41-23,1.17-6.93,2.9-14.42,1.82-20.84s-4.75-4.86-9.46-4.54c-3.51.24-7.19.5-10.26,2-3.62,1.72-4.6,4.35-6.36,7.75-2,3.94-3.3,8.5-5.75,12.38a234.86,234.86,0,0,1-16.13,22.71c-5.45,6.73-11.28,13-16.86,19.69-2.79,3.35-5.52,6.74-8.13,10.45a100.55,100.55,0,0,1-7.16,9.64c-.67-2.21-1.38-4.15-.64-6.48a21.39,21.39,0,0,1,3.7-6.28c10.47-13.62,21.55-26.92,31.85-40.67,3.19-4.27,4.2-9,5.37-14.13-9.61,7.48-18.9,14.87-28.57,22.42-2.47,1.93-5,4-7.87,6-1.07.76-3.37,2.18-4.25,3.49,2.3-4.86,4.3-9.54,8-13.64,3.09-3.42,7.16-5.8,10.72-8.87,7.86-6.8,15.52-13.72,22.77-21.31a17.78,17.78,0,0,0,3.74-6,11.62,11.62,0,0,0,.38-5.46,10.78,10.78,0,0,0-4.72.49,68.47,68.47,0,0,0-8,4.11c-6.6,3.47-13.18,6.45-19.93,9.35-6.27,2.7-13.21,3.62-18.84,7.59-8.44,6-15.83,12.36-21.84,20.92a674.06,674.06,0,0,0-45.76,75.76c-10,19.13-17.51,39.17-25.72,59.19a231.43,231.43,0,0,0-7.93,23c-6.61,22.8-11.9,46-17.67,69-1,4-2.06,7.92-3,12-1.16,4.94-2,9.81-3.27,14.88a68.12,68.12,0,0,1-2.5,8.06,13.68,13.68,0,0,1-2,2.48c-1.9-1.38-3.36-2.29-5.15-3.81a7.59,7.59,0,0,1-2.35,1.32c-1.54.37-3.38,1.19-4.91.91-2.68-.48-4.63-1.33-4.87-4.27-.56-6.93,1.12-13.73,1.76-20.64a177.4,177.4,0,0,0,.22-22.94C147,1050.23,146.36,1049,146.15,1047.55ZM312.73,776.91c-.64,1.63-1.34,3.28-2,5-2.8,6.94-5.7,13.91-8.43,20.89a1.77,1.77,0,0,0,.39,2.12c.24.23.55,0,.83-.12,7.61-3.76,15.2-7.46,22.8-11.31a3,3,0,0,0,1.59-1.33,2.92,2.92,0,0,0,.26-2.5,20.55,20.55,0,0,0-3.83-5.43c-1.8-1.86-3.87-3.62-5.74-5.39-1-.94-2.3-2.14-3.13-2.95s-1-1.08-1.7-1.81A24.6,24.6,0,0,1,312.73,776.91Z"/><path d="M279.86,601.78c2.19,10.93,5.35,21.74,6.52,32.91,1.89.09,3.78.18,5.66.32,16.44,16,33.92,29.93,55,39.38,8.31,3.73,17.31,5.47,26.26,6.79,9.47,1.4,18.88,2.26,28.35.58,14.05-2.49,27.42-6.14,40.48-12.1,19.9-9.07,37.35-21.86,53.59-36.33,3-2.67,3.47-6.84,5.2-10.13-22.57,16.85-44.37,35.58-71.85,43.72s-54.87,7.38-82.15-1.15c-14.31-4.47-25.16-14.5-37.14-23.66-6.11-4.67-10.57-11.9-16.2-17.89-2.82-3-5.27-7.19-7.76-11.33A124.3,124.3,0,0,1,279.86,601.78Z"/></g><g id="lips"><path class="cls-6" d="M411,571.85c.06-.77,1.88-2.61,2-3.41-4.19-3.07-8.88-6.81-13.68-9-10.6-4.77-18.85-6-30.47-3.2-7.72,1.85-15.34,3.76-23.4.52a6.17,6.17,0,0,0-3.09-.35c-8.22,2-14.89,3.72-21.83,8.5-1.78,1.23-3,4.92-4.34,6.5,1.79,1.4,5.63,3.5,7.67,3.1,8.43-1.65,16.41-2,24.63-2.36,9.15-.36,17.91,2.22,26.77,2.24,9.51,0,18.64-3.82,28-3.38C405.92,571.15,408.34,571.62,411,571.85Z"/><path class="cls-7" d="M318.34,585c.05,1.08,0,0,.23,1.08,1.67,2.51,4.32,5.6,5.94,7.86s2.06,3.7,3.44,5.81c2.78,2.23,5.58,4.5,8.42,6.74,2.9.82,6.25,4,9,4.74s5.14.7,7.59,1.14,3.72.64,6.1.88c-.16-4.5.44-10.69.32-15.18-4.85-2.49-8.13-5.87-13.57-5.54-3.58.22-2.17.06-6.5-.87-3.72-.81-7.25-1.12-11.76-3.29C323.77,586.6,322.84,585.82,318.34,585Z"/><path d="M297,566.14c8.33-1.41,16.77-3.26,24.71-6.78,10.07-4.47,18.53-6.62,29.12-3.69,6.4,1.77,10.62,1.8,16.63.2,16.43-4.39,20-3.39,34.75,3.06,6.7,2.92,10.49,6.67,17.16,7.61,7.88,1.11,13.92-2,21.29-3.95,1.36-.36,3,.46,4.15,1.18a11.88,11.88,0,0,1-2,2.74,17,17,0,0,1-6.15,4.43,115.58,115.58,0,0,1-26.91,6.43c-15.85,1.54-31.08,2.87-46.95,3.69-4.4.22-9.22-1.41-13.76-2-9.31-1.23-17.22.1-27.06-.1C313.28,578.78,303.39,572.55,297,566.14Zm114.17,4.3a10.56,10.56,0,0,1,.05-1.78c-5-2.22-7.5-5.15-12.82-7.59-11.74-5.37-15.34-6.24-28.16-1.8-8.51,2.94-13.86,2.6-22-1.31a8.38,8.38,0,0,0-3-1.08c-8.34,0-15.44,3.94-22.61,7.91-1.84,1-3.25,2.87-4.67,4.36a12.28,12.28,0,0,0,7.91,2.63c8.51-1.25,16.21-2,24.38-.95a107.5,107.5,0,0,0,26,.1c9.36-.95,17.5-.23,26.68-.42C405.67,570.45,408.53,570.51,411.21,570.44Z"/><path d="M408.51,595.79c-3.08,2.07-5.49,5.13-8.9,6.73-9.41,4.4-17.36,11-27.8,13.14-14.59,3.06-25.77.54-38.72-7.87-5-3.27-9.43-11.27-13.15-16.73-1.08-1.57-1.67-4.64-1.9-6.64a3.26,3.26,0,0,1,1.74-.19c3,3.74,7,10.93,9.94,14,5.87,6.16,11.62,11.55,19.27,13,13.57,2.51,24.21-1,36.54-5.7,7.77-3,14.33-8,21.72-11.62C407.63,594.48,408.08,595.13,408.51,595.79Z"/><path d="M319.7,584.18a.19.19,0,0,1,.13,0c.54.24,4.36,2,6.89,3,2.73,1.08,7.28,3.07,10.55,3.6s5.82.84,9.26,1.28,7.59.22,11.36.3,10.12,0,13.32-.22,3.32-.47,5.86-.69a.27.27,0,0,1,.13,0c.46.16,1,.36,1.55.52a.26.26,0,0,1,.14.4,8.93,8.93,0,0,0-.78,1.11.26.26,0,0,1-.2.13c-2.69.32-4.3.72-7.32,1a107,107,0,0,1-11.24.22c-3.25-.11-7.33-.43-10-.73s-4.13-.33-6.29-.61-3.72-.73-5.71-1.12-3.76-1-5.73-1.46a37.6,37.6,0,0,1-6.06-1.85,52.82,52.82,0,0,1-5.73-3.65c-.55-.35-1.44.81-1.53.19-.12-.78-.23-1.19-.23-1.19Z"/></g></g></g></g></svg>