<?xml version="1.0" standalone="no"?>
<!DOCTYPE svg PUBLIC "-//W3C//DTD SVG 20010904//EN"
 "http://www.w3.org/TR/2001/REC-SVG-20010904/DTD/svg10.dtd">
<svg version="1.0" xmlns="http://www.w3.org/2000/svg"
 width="1201.000000pt" height="1201.000000pt" viewBox="0 0 1201.000000 1201.000000"
 preserveAspectRatio="xMidYMid meet">
<metadata>
Created by potrace 1.11, written by Peter Selinger 2001-2013
</metadata>
<g transform="translate(0.000000,1201.000000) scale(0.100000,-0.100000)"
fill="#000000" stroke="none">
<path d="M4025 11023 c-502 -27 -933 -194 -1336 -517 -132 -106 -360 -339
-466 -476 -98 -127 -115 -143 -176 -170 -61 -27 -102 -16 -152 42 -19 23 -37
39 -40 36 -3 -3 -19 -81 -36 -174 -21 -116 -36 -172 -46 -179 -169 -108 -210
-140 -294 -224 -52 -53 -120 -134 -151 -181 -46 -70 -230 -382 -451 -765 l-41
-70 -12 30 c-7 17 -19 56 -26 88 -6 31 -15 56 -20 55 -18 -7 -122 -149 -150
-206 -53 -107 -43 -222 34 -376 l30 -59 -49 7 c-26 4 -90 18 -142 32 -52 13
-95 23 -97 22 -8 -9 75 -281 122 -393 6 -14 -11 -6 -58 28 -108 76 -102 81
-95 -69 3 -71 13 -158 22 -194 24 -93 95 -233 160 -318 l56 -73 -11 -132 c-22
-259 -82 -602 -135 -777 -45 -152 -51 -185 -36 -237 21 -81 77 -199 171 -364
150 -262 209 -401 234 -549 6 -34 4 -37 -55 -80 -151 -110 -275 -280 -314
-429 -38 -150 -11 -362 71 -540 l38 -83 -50 -41 c-91 -77 -226 -212 -275 -277
-61 -80 -132 -223 -154 -309 -64 -251 -6 -493 193 -810 37 -60 61 -106 54
-109 -32 -10 -133 -84 -155 -114 -90 -117 -86 -273 13 -568 84 -252 95 -311
95 -515 -1 -100 -6 -187 -13 -211 -6 -22 -32 -66 -56 -97 -60 -78 -70 -112
-62 -215 8 -113 38 -223 93 -354 l45 -108 553 0 552 0 17 88 c10 48 35 161 57
251 21 90 39 172 39 183 0 10 5 16 10 13 14 -9 13 -217 -2 -342 l-11 -102 -28
6 c-24 4 -28 1 -34 -27 -5 -24 -3 -35 12 -45 24 -19 90 -19 141 -1 38 14 43
13 65 -4 23 -19 25 -19 40 -2 9 10 28 67 42 127 73 308 181 738 221 879 52
186 192 540 306 776 132 275 354 649 507 856 90 121 223 224 322 249 24 6 25
4 22 -27 -3 -30 1 -37 51 -73 30 -22 55 -42 56 -45 0 -3 -22 -22 -49 -42 -27
-21 -62 -54 -78 -75 -35 -47 -63 -72 -83 -73 -12 -1 -12 -3 3 -14 9 -7 17 -19
17 -26 0 -7 3 -10 7 -7 3 4 16 1 29 -7 20 -14 28 -12 87 16 l65 31 7 52 c4 35
13 59 27 71 l21 19 -6 -56 c-3 -31 -1 -61 4 -66 13 -13 -9 -31 -85 -68 l-61
-30 -7 -64 c-5 -45 -13 -71 -28 -85 l-20 -21 4 30 c19 117 21 109 -39 154 -30
23 -61 43 -67 46 -7 2 -42 -10 -78 -28 l-65 -32 -8 -73 c-9 -81 -11 -77 76
-139 41 -29 37 -29 130 11 l38 17 -21 -41 c-19 -38 -19 -90 0 -90 5 0 37 40
73 89 36 49 98 126 138 172 40 46 76 88 80 93 5 5 19 2 33 -8 14 -9 28 -16 31
-16 3 0 6 26 7 58 l1 57 6 -52 6 -52 56 25 c54 25 57 27 63 71 11 82 8 111
-15 127 -25 17 -16 40 12 31 12 -4 46 5 84 21 64 28 64 29 70 74 3 25 8 59 11
77 3 24 0 35 -16 46 -20 14 -20 15 11 21 49 10 63 8 52 -7 -6 -6 -13 -43 -17
-82 l-6 -70 50 -38 c32 -24 47 -43 43 -52 -4 -12 -13 -9 -43 15 -21 17 -42 30
-46 30 -5 0 -37 -12 -71 -27 -61 -27 -63 -28 -68 -73 -3 -25 -8 -59 -11 -76
-4 -25 0 -35 21 -48 14 -9 25 -25 25 -36 0 -19 -2 -19 -24 -5 -22 14 -28 13
-88 -14 -36 -16 -68 -33 -71 -38 -2 -4 -7 -39 -11 -78 l-6 -70 57 -43 c41 -31
65 -42 81 -39 21 4 23 2 17 -21 -27 -108 -127 -314 -349 -722 -65 -118 -158
-298 -208 -400 -174 -355 -498 -1070 -498 -1098 0 -16 24 -15 87 1 29 8 58 10
65 6 7 -5 36 -9 65 -9 l52 0 4 43 4 42 1 -42 2 -43 59 0 58 0 7 38 c15 92 10
106 -49 151 -30 22 -59 41 -65 41 -6 0 -11 -30 -12 -72 l-2 -73 -3 64 c-4 55
10 121 24 121 2 0 26 -18 54 -40 28 -22 56 -40 62 -40 7 0 40 12 74 27 61 27
63 28 68 73 3 25 8 59 11 76 4 28 -1 35 -48 71 -75 56 -74 55 -108 38 -16 -8
-30 -12 -29 -8 0 5 16 40 35 78 33 67 34 68 29 29 -5 -40 -4 -41 59 -87 l63
-46 65 31 c64 30 66 32 72 76 13 98 11 106 -49 151 -30 22 -59 41 -65 41 -6 0
-29 -9 -51 -21 -23 -11 -43 -18 -45 -16 -10 10 9 36 30 41 24 6 36 38 36 98 0
16 9 51 21 77 17 40 28 52 69 71 l49 23 7 63 c3 35 4 74 0 86 -13 53 417 816
582 1032 31 41 111 146 177 233 250 330 310 400 544 633 130 130 405 391 611
580 206 190 430 398 498 463 288 275 463 415 588 471 30 13 43 26 47 45 3 14
15 32 27 39 19 11 20 11 15 -10 -5 -20 4 -31 58 -71 36 -26 68 -47 71 -47 3 0
6 34 6 75 l0 74 -62 4 -63 3 63 2 c45 1 62 6 62 16 0 7 -10 16 -22 19 -12 4
-19 9 -16 13 7 7 137 -33 152 -47 6 -5 -14 -9 -47 -9 l-57 0 0 -70 0 -70 33
14 c79 33 87 39 87 62 0 39 10 56 26 43 8 -6 14 -17 14 -25 0 -7 6 -17 13 -21
15 -9 47 -54 47 -66 0 -4 -13 2 -28 13 l-28 21 -66 -30 c-36 -16 -68 -33 -71
-38 -2 -4 -7 -39 -11 -78 l-6 -70 56 -43 c31 -23 62 -42 69 -42 7 0 38 12 69
26 32 14 60 23 63 20 10 -10 -18 -35 -52 -46 -31 -10 -35 -16 -40 -58 -3 -26
-8 -61 -11 -79 -3 -24 0 -35 13 -42 39 -23 53 -39 47 -54 -5 -14 -9 -14 -33 4
l-27 20 -66 -30 c-36 -16 -68 -33 -71 -38 -2 -4 -7 -39 -11 -78 l-6 -70 40
-29 c22 -17 40 -36 40 -43 0 -18 -13 -16 -43 7 -41 32 -47 26 -49 -52 l-2 -73
-3 68 c-2 37 -8 67 -12 67 -7 0 -101 -39 -109 -45 -1 -1 -6 -35 -12 -76 -8
-69 -8 -75 12 -90 23 -18 16 -43 -10 -35 -10 3 -46 -10 -82 -27 -64 -32 -65
-32 -68 -77 -3 -45 -16 -70 -35 -70 -6 0 -7 17 -4 44 6 44 6 44 -46 83 -29 22
-57 42 -64 46 -11 7 -137 -44 -146 -60 -2 -4 -7 -39 -11 -78 l-6 -70 55 -40
c30 -22 54 -42 55 -45 1 -15 -421 -292 -1005 -660 -662 -417 -755 -483 -755
-539 0 -11 20 -34 48 -55 l49 -35 66 31 c53 25 67 36 67 54 0 13 4 34 10 48 8
23 15 26 57 24 37 -1 40 -2 16 -5 -34 -4 -36 -7 -37 -68 -1 -27 -8 -34 -71
-65 -70 -35 -70 -35 -73 -80 -2 -27 -11 -55 -23 -70 l-21 -25 5 57 5 57 -51
39 c-29 21 -57 41 -64 45 -11 7 -137 -44 -146 -60 -2 -4 -7 -39 -11 -78 l-6
-70 56 -43 c63 -47 72 -49 114 -27 39 20 37 9 -6 -38 -34 -37 -36 -37 -52 -19
-25 28 -98 82 -111 82 -7 0 -12 -27 -13 -72 l-2 -73 -3 68 c-2 37 -7 67 -11
67 -4 0 -30 -10 -59 -22 -50 -21 -52 -23 -58 -67 -3 -25 -8 -60 -11 -77 -4
-28 1 -34 55 -73 37 -27 57 -48 54 -57 -7 -19 -8 -19 -60 21 -25 19 -49 35
-52 34 -3 0 -35 -14 -71 -32 l-65 -32 -8 -73 c-9 -80 -13 -72 62 -129 12 -8
13 -15 5 -23 -8 -8 -18 -5 -36 10 -33 25 -31 25 -105 -7 -61 -27 -63 -28 -68
-73 -3 -25 -8 -59 -11 -76 -4 -25 0 -35 21 -48 27 -18 36 -52 10 -42 -8 3 -21
8 -27 10 -7 3 -42 -9 -78 -27 l-65 -32 -8 -74 c-7 -63 -6 -75 9 -86 19 -13 11
-35 -12 -35 -8 0 -15 -10 -15 -22 -1 -17 -2 -19 -6 -5 -6 22 -7 21 -70 -5 -49
-20 -53 -24 -58 -62 -4 -23 -7 -66 -8 -96 l-2 -55 -70 -35 -70 -35 -7 -63 c-4
-34 -10 -72 -13 -82 -11 -35 -55 -78 -90 -90 -31 -10 -35 -16 -40 -58 -3 -26
-8 -61 -11 -78 -3 -25 0 -35 20 -48 14 -9 30 -16 36 -16 17 0 152 94 181 126
14 16 95 121 179 234 737 986 1484 1881 1790 2147 50 43 132 101 183 130 276
154 362 208 567 354 189 135 414 304 520 388 l25 21 3 -23 c3 -21 80 -89 116
-103 9 -3 45 7 81 22 64 28 64 29 70 74 3 25 8 59 11 77 4 28 0 35 -41 64 -25
18 -45 38 -45 46 0 20 18 16 54 -12 l32 -25 67 32 66 31 6 61 c4 34 5 75 3 91
-3 26 0 30 25 33 l28 3 -6 -48 c-3 -26 -8 -62 -11 -79 -4 -27 1 -34 60 -77 35
-26 67 -47 70 -47 3 0 7 19 8 43 1 41 1 41 5 6 4 -32 7 -36 29 -31 27 5 31 -4
10 -27 -7 -9 -16 -47 -20 -86 l-6 -70 46 -34 c31 -24 42 -37 35 -44 -8 -8 -20
-4 -41 11 -41 31 -50 28 -52 -20 l-1 -43 -4 38 c-2 20 -7 37 -11 37 -4 0 -30
-10 -58 -21 -54 -23 -64 -39 -64 -107 0 -21 -23 -51 -40 -52 -3 0 -4 24 -2 53
l4 53 -56 42 c-30 23 -59 42 -63 42 -4 0 -36 -12 -70 -27 -61 -27 -63 -28 -68
-73 -3 -25 -8 -59 -11 -76 -4 -27 1 -34 51 -70 30 -21 55 -42 55 -46 0 -20
-25 -16 -64 12 l-43 31 -69 -33 -69 -33 -8 -74 c-6 -57 -5 -76 5 -82 10 -6 4
-18 -23 -46 -68 -71 -75 -103 -21 -103 29 0 74 22 222 111 303 183 369 219
385 213 10 -4 15 0 15 12 0 13 3 15 8 7 9 -15 122 33 122 52 0 32 35 23 99
-25 l68 -49 66 31 65 31 9 70 c7 58 12 71 29 78 17 6 21 4 18 -9 -1 -9 -5 -38
-8 -63 l-5 -46 63 -46 c35 -26 67 -47 70 -47 3 0 7 35 8 78 l2 77 5 -72 6 -72
58 26 c31 14 57 30 57 36 0 5 7 4 15 -3 24 -20 19 -26 -40 -50 -30 -12 -58
-27 -63 -34 -5 -6 -12 -42 -16 -81 l-6 -70 49 -37 c27 -21 56 -41 65 -44 9 -3
45 6 80 22 69 30 76 41 76 120 0 19 4 34 8 34 19 0 30 -24 26 -58 -5 -35 -2
-39 52 -79 31 -24 65 -43 74 -43 32 0 39 -21 30 -95 -9 -67 -8 -71 15 -88 13
-10 34 -26 47 -37 l23 -19 -23 -1 c-12 0 -33 7 -46 15 -21 14 -28 13 -87 -13
-107 -48 -131 -49 -185 -7 -26 19 -50 35 -53 34 -3 0 -35 -14 -71 -32 -58 -28
-66 -36 -70 -66 -4 -24 -12 -36 -28 -42 -22 -8 -23 -7 -17 19 5 26 0 33 -50
71 -30 23 -61 43 -67 46 -7 2 -42 -10 -78 -28 l-65 -32 -8 -73 c-8 -72 -7 -74
18 -94 19 -15 23 -23 14 -28 -7 -5 -18 -6 -26 -3 -22 9 -143 -49 -143 -69 0
-9 -9 -22 -19 -28 -26 -13 -31 -13 -31 4 0 14 -102 96 -120 96 -6 0 -10 -29
-10 -74 l0 -75 33 -4 32 -4 -32 -1 c-21 -1 -33 -8 -36 -19 -4 -17 -5 -17 -6 0
-1 14 -11 17 -65 17 -61 0 -64 -1 -71 -27 -5 -21 -1 -31 21 -48 23 -18 25 -23
11 -28 -10 -4 -23 -4 -29 -2 -7 2 -42 -10 -78 -28 -58 -29 -65 -35 -68 -64 -3
-27 -20 -48 -92 -114 -48 -45 -97 -98 -108 -118 -22 -39 -46 -120 -39 -128 11
-10 159 76 345 200 226 152 376 243 524 319 100 50 105 51 180 49 l77 -2 4 38
4 38 1 -37 2 -38 65 0 65 0 0 34 c0 26 -7 39 -27 55 -25 18 -26 21 -8 22 11 1
27 1 36 0 9 -1 55 17 103 39 l86 41 51 -41 c28 -22 56 -40 62 -40 7 0 40 12
74 27 61 27 63 28 68 73 9 64 12 70 34 70 18 0 20 -5 15 -42 -5 -43 -4 -43 53
-86 50 -38 62 -43 92 -37 29 6 33 4 27 -11 -4 -10 -10 -37 -13 -60 l-6 -43 44
-4 44 -4 -41 -1 c-40 -2 -53 -15 -54 -53 0 -3 29 -27 65 -53 55 -40 68 -46 81
-35 20 16 43 -3 27 -23 -6 -7 -13 -44 -17 -83 l-6 -70 56 -43 c31 -23 65 -42
76 -42 27 0 35 -33 27 -103 -8 -67 -12 -60 55 -109 10 -8 17 -22 15 -31 -4
-15 -8 -14 -40 8 l-36 26 -69 -33 -69 -33 -8 -73 c-9 -81 -11 -77 76 -139 41
-29 37 -29 128 11 36 15 37 15 32 -4 -3 -11 -20 -24 -39 -30 -30 -10 -34 -16
-39 -58 -3 -26 -8 -61 -11 -78 -4 -27 1 -34 40 -62 26 -19 46 -42 48 -56 l5
-25 -36 28 c-20 15 -41 31 -48 34 -11 7 -137 -44 -146 -60 -2 -4 -7 -39 -11
-78 l-6 -70 49 -37 c27 -21 56 -41 65 -44 9 -3 45 7 81 22 63 28 65 29 71 74
l7 45 13 -35 c7 -20 12 -74 11 -125 -1 -79 -1 -82 -4 -22 -2 37 -7 67 -11 67
-4 0 -30 -10 -59 -22 -50 -21 -52 -23 -58 -67 -3 -25 -8 -60 -11 -77 -4 -27 1
-34 60 -77 35 -26 67 -47 70 -47 3 0 7 35 8 78 l2 77 5 -72 6 -72 42 19 c30
13 45 16 50 8 3 -7 2 -13 -3 -15 -5 -2 -23 -12 -40 -22 -29 -17 -31 -24 -38
-91 -3 -40 -5 -74 -4 -75 2 -1 28 -21 57 -44 45 -35 60 -42 84 -37 l29 6 -7
-63 c-3 -34 -8 -74 -11 -89 -4 -22 0 -29 25 -42 27 -14 185 -16 1466 -16 789
0 1435 2 1435 5 0 3 -11 44 -25 92 -39 133 -49 294 -36 552 26 504 5 655 -108
799 -21 26 -89 101 -150 167 -196 208 -241 291 -241 439 0 67 3 77 33 116 17
24 42 57 55 74 52 70 97 283 89 415 -9 160 -63 266 -212 417 -104 105 -195
171 -434 315 -222 133 -311 238 -346 407 -17 79 -13 111 25 194 56 124 4 295
-191 624 -127 215 -153 271 -214 454 -71 216 -119 285 -270 391 -199 139 -231
228 -200 552 14 144 15 191 6 254 -15 102 -70 212 -161 323 -192 234 -210 266
-249 439 -66 291 -185 607 -356 946 -123 243 -202 376 -316 528 -103 137 -202
234 -404 396 -307 245 -384 332 -598 675 -187 299 -264 402 -431 575 -401 412
-931 676 -1526 758 -97 13 -177 16 -355 13 -441 -6 -453 -5 -652 34 -283 56
-531 80 -718 69z m229 -1475 c28 -293 113 -495 278 -655 84 -82 133 -100 349
-123 210 -23 316 -41 444 -75 50 -13 155 -36 235 -51 80 -14 150 -30 156 -35
7 -5 26 -47 44 -92 18 -45 77 -164 131 -263 55 -100 109 -208 121 -240 35
-100 35 -211 -1 -421 -39 -227 -40 -318 -6 -450 l26 -97 -32 -165 c-26 -139
-30 -182 -27 -275 l4 -111 53 -104 53 -105 -41 -145 c-63 -222 -65 -242 -66
-601 0 -284 2 -331 17 -370 17 -44 17 -45 -6 -81 -45 -68 -279 -271 -486 -422
-319 -233 -656 -418 -915 -502 -208 -68 -219 -69 -400 -68 -133 1 -191 6 -267
23 -105 23 -195 58 -217 84 -17 20 -14 20 104 1 123 -20 235 -19 351 5 284 58
539 187 800 404 85 71 104 91 117 130 9 25 13 46 9 46 -4 0 -78 -53 -164 -118
-319 -238 -482 -316 -748 -357 -235 -36 -535 2 -711 90 -121 61 -301 207 -395
319 -117 140 -163 223 -277 501 -117 286 -172 446 -226 655 -85 329 -100 544
-78 1125 9 262 12 429 6 485 -9 89 -2 270 11 270 4 0 25 14 46 31 49 40 181
102 254 120 69 17 330 17 488 0 162 -18 189 -3 199 110 13 137 1 142 -301 137
-215 -5 -237 -7 -321 -32 -116 -35 -263 -106 -309 -150 l-36 -34 5 32 c61 384
87 497 160 711 48 142 44 136 170 217 l80 52 120 0 120 1 135 67 c173 85 223
100 275 83 53 -19 61 -35 55 -120 -2 -31 -41 -121 -82 -188 -19 -33 -20 -39
-8 -47 64 -41 247 77 308 197 11 21 34 89 51 151 38 136 59 180 162 333 82
123 141 227 152 269 3 13 8 22 11 20 2 -3 11 -80 20 -172z m-1737 -1685 c-3
-10 -5 -4 -5 12 0 17 2 24 5 18 2 -7 2 -21 0 -30z m-10 -65 c-3 -7 -5 -2 -5
12 0 14 2 19 5 13 2 -7 2 -19 0 -25z m3675 -2890 c-4 -17 -2 -20 11 -15 21 8
38 -14 31 -40 -5 -18 -9 -20 -24 -11 -14 9 -31 5 -83 -17 -55 -24 -66 -33 -71
-58 -12 -61 -9 -67 37 -69 l42 -1 -42 -4 c-33 -3 -42 -8 -47 -28 -3 -13 -4
-30 -1 -37 7 -19 -25 -47 -88 -78 -41 -19 -53 -31 -55 -51 -2 -15 -15 -37 -29
-50 l-26 -24 7 36 c6 35 4 38 -46 76 -29 21 -58 42 -65 46 -11 7 -137 -44
-146 -60 -2 -4 -7 -39 -11 -78 l-6 -70 55 -40 c51 -37 69 -65 44 -65 -6 0 -28
14 -49 30 -21 17 -42 30 -46 30 -5 0 -37 -12 -71 -27 -61 -27 -63 -28 -68 -73
-3 -25 -8 -59 -11 -76 -4 -26 0 -35 21 -48 29 -19 24 -40 -9 -33 -12 3 -48 -8
-86 -26 l-65 -32 -5 -53 c-4 -38 -12 -59 -31 -78 l-25 -25 7 63 c9 70 9 70
-82 133 l-36 26 -65 -30 c-36 -16 -68 -33 -71 -38 -2 -4 -7 -39 -11 -78 l-6
-70 56 -42 c63 -48 72 -50 114 -28 41 21 37 6 -7 -31 l-38 -32 -57 44 c-31 24
-61 44 -66 44 -21 0 -125 -54 -148 -77 -24 -24 -25 -24 -42 -5 -25 28 -98 82
-111 82 -7 0 -12 -27 -13 -72 l-2 -73 -3 68 c-4 71 -10 77 -50 54 -25 -14 -83
-99 -83 -121 0 -42 -234 -281 -370 -379 -106 -75 -237 -144 -349 -182 -98 -33
-101 -33 -101 13 l0 38 -101 12 c-56 7 -121 21 -145 31 -63 28 -133 106 -187
209 -62 117 -64 170 -12 257 20 32 55 82 79 110 39 45 53 54 122 75 90 28 173
79 249 151 l53 50 109 -15 c283 -40 335 -40 562 9 253 53 554 174 781 313 54
33 66 37 68 24 3 -17 86 -86 116 -98 9 -3 45 7 81 22 64 28 64 29 70 74 3 25
8 59 11 76 4 27 -1 35 -32 59 -27 21 -33 30 -23 36 8 5 23 2 35 -6 19 -13 28
-11 87 17 62 29 65 33 70 72 3 22 2 43 -2 46 -4 3 5 15 21 28 28 23 28 23 28
3 0 -19 6 -21 65 -21 l65 0 2 78 2 77 3 -77 4 -78 64 0 65 0 0 34 c0 30 -7 39
-60 78 -43 33 -56 48 -48 56 8 8 23 1 56 -24 25 -19 50 -34 56 -34 6 0 39 12
73 27 64 28 72 41 73 112 l1 26 18 -22 c12 -14 17 -31 13 -45z m-3112 -315
c47 -42 121 -103 165 -136 79 -58 102 -77 78 -63 -7 4 -13 3 -13 -1 0 -5 54
-56 121 -114 l120 -104 -73 -3 c-101 -4 -144 15 -238 104 -43 41 -85 74 -94
74 -36 0 -6 -110 44 -160 19 -19 19 -19 -18 -30 -20 -6 -74 -16 -120 -22 -94
-13 -94 -14 -114 60 -7 23 -17 42 -23 42 -11 0 -250 -190 -320 -254 l-40 -37
65 7 c36 3 105 19 155 36 150 49 239 66 464 89 213 21 421 20 421 -1 0 -10
-156 -129 -185 -141 -47 -19 -226 -50 -377 -65 -187 -17 -317 -43 -436 -86
-109 -40 -252 -142 -273 -196 -6 -15 -31 -33 -73 -51 -35 -16 -66 -33 -69 -38
-2 -4 -7 -39 -11 -78 l-6 -70 46 -35 c26 -19 52 -38 58 -42 7 -5 -2 -21 -25
-45 -57 -60 -101 -131 -106 -173 -8 -57 12 -56 45 2 17 29 56 78 87 108 l57
55 -5 -61 -5 -62 63 -46 62 -45 65 31 c64 30 66 32 72 76 14 100 11 106 -56
156 -46 35 -57 47 -45 52 10 4 33 -6 59 -25 23 -17 47 -31 52 -31 6 0 39 12
73 27 68 29 62 19 78 143 5 41 12 50 60 88 29 23 61 45 69 48 9 3 16 14 16 25
0 10 11 31 26 46 l25 28 -6 -30 c-5 -28 -1 -34 59 -78 35 -26 66 -47 68 -47
12 0 -30 181 -50 213 -12 21 -20 43 -17 48 14 22 33 5 61 -52 29 -61 29 -64
29 -236 0 -121 -4 -176 -12 -181 -6 -4 -19 -36 -28 -71 -9 -36 -28 -87 -43
-115 -14 -28 -26 -56 -26 -61 -1 -6 -7 -17 -14 -25 -7 -8 -26 -35 -42 -60 -16
-25 -81 -101 -145 -170 -157 -168 -301 -386 -490 -739 -216 -405 -376 -826
-515 -1356 -46 -178 -139 -484 -157 -519 -9 -17 -24 -42 -35 -55 -18 -24 -18
-19 -12 310 8 403 2 435 -45 263 -33 -118 -50 -162 -37 -94 4 19 21 84 37 144
l30 108 -11 142 c-12 158 -1 433 25 591 71 443 283 1216 450 1640 69 175 154
350 215 440 95 141 178 219 506 480 l114 90 3 140 c3 77 10 170 17 208 11 63
14 67 39 67 18 0 51 -23 111 -77z m-150 -823 c0 -5 -2 -10 -4 -10 -3 0 -8 5
-11 10 -3 6 -1 10 4 10 6 0 11 -4 11 -10z m-103 -72 c-2 -13 -4 -3 -4 22 0 25
2 35 4 23 2 -13 2 -33 0 -45z m-140 -37 c-6 -48 -5 -50 34 -76 21 -15 39 -31
39 -36 0 -16 -26 -15 -51 3 -26 19 -26 19 -95 -14 -64 -31 -69 -35 -72 -68 -4
-57 -11 -77 -28 -84 -15 -6 -16 0 -11 44 6 49 6 50 -38 81 -26 19 -41 37 -38
45 7 19 9 18 47 -11 l32 -25 66 32 66 31 7 56 c8 65 11 71 32 71 13 0 15 -9
10 -49z m2139 -10 c-5 -36 -4 -40 34 -66 22 -15 40 -31 40 -36 0 -19 -22 -18
-48 1 l-29 21 -69 -33 -69 -33 -5 -49 c-4 -37 -11 -52 -29 -65 l-24 -16 6 52
c5 47 3 54 -16 68 -18 13 -19 17 -8 24 8 5 20 7 28 4 8 -3 13 2 13 13 0 13 3
15 8 7 6 -9 22 -5 64 13 52 24 56 28 61 67 5 34 27 67 45 67 3 0 2 -17 -2 -39z
m-1999 -43 c-2 -13 -4 -3 -4 22 0 25 2 35 4 23 2 -13 2 -33 0 -45z m1830 25
c-3 -10 -5 -4 -5 12 0 17 2 24 5 18 2 -7 2 -21 0 -30z m-88 -80 c-8 -9 -15 -9
-29 0 -14 8 -16 15 -9 24 8 9 15 9 29 0 14 -8 16 -15 9 -24z m-155 -256 c-7
-4 -22 -2 -33 5 -17 10 -28 9 -68 -11 -56 -27 -54 -23 12 24 l48 34 27 -22
c20 -17 24 -24 14 -30z m2993 17 c-7 -7 -37 7 -37 17 0 6 9 5 21 -1 11 -7 19
-14 16 -16z m-4117 -111 c36 -37 53 -57 39 -45 l-26 23 -7 -38 c-4 -28 -2 -41
10 -50 14 -10 0 -20 -86 -63 -56 -28 -105 -49 -107 -46 -11 11 21 37 77 62 56
25 58 27 64 71 11 81 8 112 -14 125 -17 11 -27 28 -17 28 1 0 32 -30 67 -67z
m1230 4 c0 -8 -9 -22 -20 -32 -19 -18 -20 -17 -20 7 0 13 3 28 7 31 11 12 33
8 33 -6z m-305 -75 c-5 -25 0 -32 60 -76 48 -35 63 -52 55 -60 -7 -7 -15 -7
-25 -1 -8 6 -32 23 -54 38 -38 28 -40 28 -70 12 -30 -15 -31 -15 -31 5 0 11 5
20 10 20 6 0 10 13 10 29 0 29 22 61 42 61 5 0 7 -12 3 -28z m-148 -105 c13 5
14 0 9 -33 -18 -121 -18 -151 -2 -157 9 -4 16 -15 16 -26 0 -14 -5 -18 -20
-14 -18 5 -20 0 -22 -63 l-2 -69 -3 64 c-4 70 -2 69 -75 37 -35 -15 -38 -15
-38 0 0 9 17 22 40 31 36 14 40 19 45 62 3 25 8 60 11 77 4 27 -1 35 -30 58
-22 16 -33 32 -30 41 5 13 11 12 34 -5 15 -11 31 -20 34 -20 3 0 7 24 8 53 l2
52 3 -47 c3 -38 7 -46 20 -41z m-547 27 c0 -9 -13 -28 -30 -42 -16 -15 -30
-34 -30 -42 0 -9 -12 -27 -26 -41 l-26 -24 6 32 c6 27 3 34 -18 48 -35 23 -33
39 4 32 26 -6 30 -3 31 16 1 15 3 17 6 6 3 -11 11 -15 24 -12 20 6 27 23 8 23
-5 0 -7 5 -4 10 10 17 55 12 55 -6z m-60 -244 c0 -5 -4 -10 -10 -10 -5 0 -10
-12 -11 -27 l-1 -28 -7 25 c-8 25 3 50 20 50 5 0 9 -4 9 -10z m444 -194 c-4
-18 -1 -27 15 -36 28 -15 28 -44 0 -37 -21 6 -141 -43 -153 -61 -3 -5 -7 -47
-10 -93 -3 -82 -4 -84 -37 -107 -23 -16 -35 -19 -38 -11 -2 7 4 18 13 24 19
15 41 154 25 170 -5 5 -9 14 -9 20 0 12 88 51 106 47 13 -3 61 50 77 85 13 30
19 29 11 -1z m4413 -78 c-3 -8 -6 -5 -6 6 -1 11 2 17 5 13 3 -3 4 -12 1 -19z
m-4270 -1010 c-2 -18 -4 -4 -4 32 0 36 2 50 4 33 2 -18 2 -48 0 -65z"/>
<path d="M3744 8368 c3 -13 6 -83 6 -155 0 -123 1 -133 19 -133 25 0 31 48 20
191 -4 63 -8 115 -8 117 -1 1 -11 2 -22 2 -17 0 -20 -4 -15 -22z"/>
<path d="M4390 8240 c-185 -7 -225 -16 -265 -60 -49 -54 -9 -214 62 -248 29
-14 43 -14 101 -4 368 66 580 85 719 62 170 -27 299 -83 472 -205 64 -46 84
-52 111 -35 13 8 13 13 -3 42 -27 50 -117 168 -161 211 -57 55 -205 151 -272
176 -83 32 -182 51 -319 61 -128 10 -171 10 -445 0z"/>
<path d="M3570 7883 c0 -6 18 -69 41 -140 25 -79 42 -157 46 -203 16 -224 -79
-628 -221 -937 -40 -88 -56 -134 -56 -165 0 -39 1 -41 14 -23 7 11 51 94 98
185 134 264 205 500 230 766 16 173 3 276 -51 380 -39 77 -100 160 -101 137z"/>
<path d="M4584 7771 c-81 -23 -185 -74 -161 -79 9 -2 59 6 110 17 220 50 260
48 471 -24 71 -25 132 -45 134 -45 3 0 -3 9 -13 19 -26 30 -172 98 -245 116
-86 20 -219 18 -296 -4z"/>
<path d="M2882 7680 c-50 -11 -182 -79 -189 -98 -11 -26 8 -24 109 12 120 44
208 54 318 37 41 -7 105 -15 143 -18 57 -5 67 -3 67 10 0 11 -21 23 -66 36
-75 24 -310 36 -382 21z"/>
<path d="M4661 7589 c-41 -10 -95 -29 -120 -41 -46 -22 -211 -174 -211 -195 0
-12 29 -25 112 -47 31 -9 85 -30 120 -46 56 -27 73 -30 158 -30 112 0 203 18
297 57 71 30 233 129 233 143 0 4 -20 15 -45 24 -24 10 -47 25 -50 34 -6 19
-100 83 -157 106 -55 23 -241 21 -337 -5z m49 -49 c0 -6 -7 -25 -16 -42 -26
-51 -15 -133 26 -192 l33 -49 -49 6 c-70 8 -164 45 -196 78 -21 21 -28 37 -28
66 0 57 38 88 150 124 65 21 80 23 80 9z m132 -35 c14 -32 7 -39 -29 -28 -17
6 -29 18 -31 31 -5 33 45 31 60 -3z m308 -47 c0 -17 -38 -83 -59 -102 l-21
-19 11 32 c6 18 9 55 6 81 l-6 49 35 -16 c18 -9 34 -21 34 -25z"/>
<path d="M2905 7497 c-67 -18 -99 -40 -136 -97 -17 -27 -40 -50 -50 -53 -32
-8 -34 -36 -6 -64 32 -33 49 -23 41 26 -6 36 -4 39 48 78 49 38 96 63 119 63
5 0 9 -12 9 -27 1 -54 29 -164 50 -190 25 -32 14 -43 -47 -43 -68 0 -59 -18
14 -26 213 -22 461 31 538 116 l20 22 -45 39 c-69 59 -176 130 -223 147 -56
20 -265 26 -332 9z m173 -74 c3 -19 -1 -23 -22 -23 -28 0 -41 14 -32 36 9 24
50 13 54 -13z m262 -113 c0 -15 -7 -30 -15 -34 -16 -6 -19 12 -9 51 8 30 24
19 24 -17z"/>
<path d="M4280 6346 c0 -3 7 -35 16 -73 23 -99 15 -124 -66 -207 -78 -82 -90
-109 -47 -114 50 -6 141 105 171 208 18 62 20 113 6 141 -13 23 -80 61 -80 45z"/>
<path d="M3277 6235 c-24 -51 -23 -174 2 -223 25 -48 61 -69 147 -82 38 -6 98
-24 133 -40 88 -42 145 -40 239 5 89 42 163 65 216 66 23 0 50 4 61 8 17 7 13
12 -30 36 -70 42 -123 39 -216 -9 -59 -31 -83 -38 -130 -38 -58 0 -80 9 -196
78 -30 18 -33 18 -69 1 l-37 -18 -33 32 c-19 18 -39 48 -45 67 -11 33 -8 98 7
135 4 12 1 17 -13 17 -12 0 -25 -13 -36 -35z"/>
<path d="M3775 5474 c-36 -11 -72 -13 -130 -8 -188 16 -241 11 -355 -33 -58
-23 -134 -47 -170 -53 -36 -7 -69 -16 -73 -20 -11 -10 84 -83 143 -109 39 -18
66 -21 195 -21 83 0 186 -6 230 -13 44 -8 103 -12 130 -10 424 31 534 45 655
84 58 19 130 69 130 91 0 18 -53 18 -115 -1 -105 -33 -146 -28 -256 25 -52 26
-118 55 -148 65 -64 23 -164 24 -236 3z m-289 -85 l54 -42 58 26 c58 25 132
41 132 29 0 -4 -32 -20 -70 -36 -39 -17 -70 -33 -70 -38 0 -4 -17 -8 -37 -8
-30 0 -51 10 -97 46 -44 35 -55 48 -45 55 19 12 13 14 75 -32z m355 -5 l50
-36 73 32 c49 22 81 30 93 25 14 -6 6 -13 -42 -36 -33 -15 -65 -33 -72 -38
-26 -23 -75 -12 -130 29 -29 23 -53 45 -53 50 0 20 34 9 81 -26z m-461 -26
l-4 -53 -6 45 c-3 25 -1 48 5 52 6 4 10 8 10 8 0 0 -2 -24 -5 -52z m707 -20
c-2 -13 -4 -5 -4 17 -1 22 1 32 4 23 2 -10 2 -28 0 -40z"/>
<path d="M3255 5153 c9 -37 45 -98 94 -161 32 -40 59 -60 127 -94 80 -39 93
-43 184 -46 125 -5 181 10 325 91 140 78 189 115 174 134 -10 11 -21 8 -63
-18 -143 -86 -315 -149 -404 -149 l-44 0 6 53 c6 52 6 52 -31 77 l-38 25 130
5 c124 5 155 11 155 30 0 4 -62 6 -138 3 -166 -7 -277 7 -379 48 -94 37 -107
37 -98 2z m150 -77 c38 16 75 18 75 6 0 -5 -18 -15 -40 -22 -24 -8 -40 -20
-40 -29 -1 -12 -5 -10 -20 8 -11 13 -19 35 -19 50 l2 26 4 -27 c4 -26 5 -26
38 -12z"/>
<path d="M3755 4667 c-41 -16 -78 -38 -72 -43 3 -4 120 17 187 33 l25 6 -25 7
c-37 12 -81 10 -115 -3z"/>
<path d="M5726 4668 c-3 -13 -6 -26 -6 -29 0 -6 125 -99 134 -99 3 0 6 34 6
75 l0 75 -64 0 c-58 0 -64 -2 -70 -22z"/>
<path d="M5870 4620 l0 -70 33 14 c77 33 87 40 87 60 0 12 3 31 6 44 6 21 4
22 -60 22 l-66 0 0 -70z"/>
<path d="M5258 4258 l-2 -73 -3 68 c-2 37 -7 67 -11 67 -4 0 -30 -10 -59 -22
-50 -21 -52 -23 -58 -67 -3 -25 -8 -60 -11 -77 -4 -27 1 -34 60 -77 35 -26 67
-47 70 -47 3 0 7 35 8 78 l2 77 5 -72 6 -72 56 25 c54 25 57 27 63 71 13 99
11 107 -49 152 -30 22 -59 41 -65 41 -6 0 -11 -30 -12 -72z"/>
<path d="M2914 3540 c-34 -15 -64 -32 -66 -36 -3 -5 -8 -40 -12 -79 l-6 -70
49 -37 c27 -21 56 -41 65 -44 9 -3 45 7 81 22 64 28 64 29 70 74 3 25 8 59 11
76 4 28 -1 35 -51 73 -30 23 -61 43 -67 46 -7 2 -41 -9 -74 -25z"/>
<path d="M6480 4710 c0 -5 17 -10 38 -9 33 1 34 2 12 9 -36 11 -50 11 -50 0z"/>
<path d="M6264 4560 c-34 -15 -64 -32 -66 -36 -3 -5 -8 -40 -12 -79 l-6 -70
49 -37 c27 -21 56 -41 65 -44 9 -3 45 7 81 22 64 28 64 29 70 74 3 25 8 59 11
76 4 28 -1 35 -51 73 -30 23 -61 43 -67 46 -7 2 -41 -9 -74 -25z"/>
<path d="M6108 4302 c-56 -25 -58 -28 -63 -72 -3 -25 -8 -59 -11 -76 -4 -27 1
-34 59 -77 l64 -46 65 31 c64 30 66 32 72 76 13 98 11 106 -49 151 -30 22 -60
41 -67 40 -7 -1 -39 -13 -70 -27z"/>
<path d="M6478 4258 l-2 -73 -3 68 c-2 37 -7 67 -11 67 -4 0 -30 -10 -59 -22
-50 -21 -52 -23 -58 -67 -3 -25 -8 -60 -11 -77 -4 -27 1 -34 60 -77 35 -26 67
-47 70 -47 3 0 7 35 8 78 l2 77 5 -72 6 -72 56 25 c54 25 57 27 63 71 13 99
11 107 -49 152 -30 22 -59 41 -65 41 -6 0 -11 -30 -12 -72z"/>
<path d="M6264 4050 c-34 -15 -64 -32 -66 -36 -3 -5 -8 -40 -12 -79 l-6 -70
49 -37 c27 -21 56 -41 65 -44 9 -3 45 7 81 22 64 28 64 29 70 74 3 25 8 59 11
76 4 28 -1 35 -51 73 -30 23 -61 43 -67 46 -7 2 -41 -9 -74 -25z"/>
<path d="M6108 3792 c-56 -25 -58 -28 -63 -72 -3 -25 -8 -59 -11 -76 -4 -27 1
-34 59 -77 l64 -46 65 31 c64 30 66 32 72 76 13 98 11 106 -49 151 -30 22 -60
41 -67 40 -7 -1 -39 -13 -70 -27z"/>
<path d="M6874 3540 c-34 -15 -64 -32 -66 -36 -3 -5 -8 -40 -12 -79 l-6 -70
49 -37 c27 -21 56 -41 65 -44 9 -3 45 7 81 22 64 28 64 29 70 74 3 25 8 59 11
76 4 28 -1 35 -51 73 -30 23 -61 43 -67 46 -7 2 -41 -9 -74 -25z"/>
<path d="M7184 3030 c-34 -15 -64 -32 -66 -36 -3 -5 -8 -40 -12 -79 l-6 -70
49 -37 c27 -21 56 -41 65 -44 9 -3 45 7 81 22 64 28 64 29 70 74 3 25 8 59 11
76 4 28 -1 35 -51 73 -30 23 -61 43 -67 46 -7 2 -41 -9 -74 -25z"/>
<path d="M7484 3030 c-34 -15 -64 -32 -66 -36 -3 -5 -8 -40 -12 -79 l-6 -70
49 -37 c27 -21 56 -41 65 -44 9 -3 45 7 81 22 64 28 64 29 70 74 3 25 8 59 11
76 4 28 -1 35 -51 73 -30 23 -61 43 -67 46 -7 2 -41 -9 -74 -25z"/>
<path d="M7090 2655 l0 -145 33 14 c84 36 84 36 91 83 13 99 11 107 -49 152
-30 22 -59 41 -65 41 -6 0 -10 -51 -10 -145z"/>
<path d="M7328 2772 c-56 -25 -58 -28 -63 -72 -3 -25 -8 -59 -11 -76 -4 -27 1
-34 59 -77 l64 -46 65 31 c64 30 66 32 72 76 13 98 11 106 -49 151 -30 22 -60
41 -67 40 -7 -1 -39 -13 -70 -27z"/>
<path d="M7700 2655 l0 -145 33 14 c84 36 84 36 91 83 13 99 11 107 -49 152
-30 22 -59 41 -65 41 -6 0 -10 -51 -10 -145z"/>
<path d="M7938 2772 c-56 -25 -58 -28 -63 -72 -3 -25 -8 -59 -11 -76 -4 -27 1
-34 59 -77 l64 -46 65 31 c64 30 66 32 72 76 13 98 11 106 -49 151 -30 22 -60
41 -67 40 -7 -1 -39 -13 -70 -27z"/>
<path d="M7008 2767 c-45 -19 -48 -23 -53 -66 -3 -25 -8 -60 -11 -77 -4 -27 1
-34 60 -77 35 -26 67 -47 70 -47 3 0 6 65 6 145 0 110 -3 145 -12 144 -7 -1
-34 -10 -60 -22z"/>
<path d="M7618 2767 c-45 -19 -48 -23 -53 -66 -3 -25 -8 -60 -11 -77 -4 -27 1
-34 60 -77 35 -26 67 -47 70 -47 3 0 6 65 6 145 0 110 -3 145 -12 144 -7 -1
-34 -10 -60 -22z"/>
<path d="M7184 2520 c-34 -15 -64 -32 -66 -36 -3 -5 -8 -40 -12 -79 l-6 -70
49 -37 c27 -21 56 -41 65 -44 9 -3 45 7 81 22 64 28 64 29 70 74 3 25 8 59 11
76 4 28 -1 35 -51 73 -30 23 -61 43 -67 46 -7 2 -41 -9 -74 -25z"/>
<path d="M7945 2264 c-27 -13 -53 -25 -57 -26 -4 -2 -11 -24 -14 -50 l-7 -48
132 0 131 0 0 34 c0 29 -7 39 -55 75 -30 22 -60 41 -67 40 -7 0 -35 -11 -63
-25z"/>
<path d="M8310 2215 l0 -75 65 0 65 0 0 34 c0 29 -7 39 -55 75 -30 22 -59 41
-65 41 -6 0 -10 -30 -10 -75z"/>
<path d="M7008 2258 c-36 -17 -47 -27 -52 -51 -13 -66 -12 -67 59 -67 l65 0 0
70 c0 79 0 79 -72 48z"/>
<path d="M8228 2258 c-36 -17 -47 -27 -52 -51 -13 -66 -12 -67 59 -67 l65 0 0
70 c0 79 0 79 -72 48z"/>
<path d="M7556 2108 c-3 -13 -6 -26 -6 -29 0 -6 125 -99 134 -99 3 0 6 34 6
75 l0 75 -64 0 c-58 0 -64 -2 -70 -22z"/>
<path d="M7700 2060 l0 -70 33 14 c77 33 87 40 87 60 0 12 3 31 6 44 6 21 4
22 -60 22 l-66 0 0 -70z"/>
<path d="M7866 2108 c-3 -13 -6 -26 -6 -29 0 -3 29 -26 63 -52 l64 -46 66 31
c51 24 67 37 67 52 0 12 3 31 6 44 6 22 6 22 -124 22 -126 0 -130 -1 -136 -22z"/>
<path d="M8166 2108 c-3 -13 -6 -26 -6 -29 0 -6 125 -99 134 -99 3 0 6 34 6
75 l0 75 -64 0 c-58 0 -64 -2 -70 -22z"/>
<path d="M8310 2060 l0 -70 33 14 c77 33 87 40 87 60 0 12 3 31 6 44 6 21 4
22 -60 22 l-66 0 0 -70z"/>
<path d="M7794 2000 c-34 -15 -64 -32 -66 -36 -3 -5 -8 -40 -12 -79 l-6 -70
49 -37 c27 -21 56 -41 65 -44 9 -3 45 7 81 22 64 28 64 29 70 74 3 25 8 59 11
76 4 28 -1 35 -51 73 -30 23 -61 43 -67 46 -7 2 -41 -9 -74 -25z"/>
<path d="M8094 2000 c-34 -15 -64 -32 -66 -36 -3 -5 -8 -40 -12 -79 l-6 -70
49 -37 c27 -21 56 -41 65 -44 9 -3 45 7 81 22 64 28 64 29 70 74 3 25 8 59 11
76 4 28 -1 35 -51 73 -30 23 -61 43 -67 46 -7 2 -41 -9 -74 -25z"/>
<path d="M8404 2000 c-34 -15 -64 -32 -66 -36 -3 -5 -8 -40 -12 -79 l-6 -70
49 -37 c27 -21 56 -41 65 -44 9 -3 45 7 81 22 64 28 64 29 70 74 3 25 8 59 11
76 4 28 -1 35 -51 73 -30 23 -61 43 -67 46 -7 2 -41 -9 -74 -25z"/>
<path d="M7698 1698 l-2 -73 -3 68 c-2 37 -7 67 -11 67 -4 0 -30 -10 -59 -22
-50 -21 -52 -23 -58 -67 -3 -25 -8 -60 -11 -77 -4 -27 1 -34 60 -77 35 -26 67
-47 70 -47 3 0 7 35 8 78 l2 77 5 -72 6 -72 56 25 c54 25 57 27 63 71 13 99
11 107 -49 152 -30 22 -59 41 -65 41 -6 0 -11 -30 -12 -72z"/>
<path d="M7938 1742 c-56 -25 -58 -28 -63 -72 -3 -25 -8 -59 -11 -76 -4 -27 1
-34 59 -77 l64 -46 65 31 c64 30 66 32 72 76 13 98 11 106 -49 151 -30 22 -60
41 -67 40 -7 -1 -39 -13 -70 -27z"/>
<path d="M8308 1698 l-2 -73 -3 68 c-2 37 -7 67 -11 67 -4 0 -30 -10 -59 -22
-50 -21 -52 -23 -58 -67 -3 -25 -8 -60 -11 -77 -4 -27 1 -34 60 -77 35 -26 67
-47 70 -47 3 0 7 35 8 78 l2 77 5 -72 6 -72 56 25 c54 25 57 27 63 71 13 99
11 107 -49 152 -30 22 -59 41 -65 41 -6 0 -11 -30 -12 -72z"/>
<path d="M8548 1742 c-56 -25 -58 -28 -63 -72 -3 -25 -8 -59 -11 -76 -4 -27 1
-34 59 -77 l64 -46 65 31 c64 30 66 32 72 76 13 98 11 106 -49 151 -30 22 -60
41 -67 40 -7 -1 -39 -13 -70 -27z"/>
<path d="M7794 1490 c-34 -15 -64 -32 -66 -36 -3 -5 -8 -40 -12 -79 l-6 -70
49 -37 c27 -21 56 -41 65 -44 9 -3 45 7 81 22 64 28 64 29 70 74 3 25 8 59 11
76 4 28 -1 35 -51 73 -30 23 -61 43 -67 46 -7 2 -41 -9 -74 -25z"/>
<path d="M8094 1490 c-34 -15 -64 -32 -66 -36 -3 -5 -8 -40 -12 -79 l-6 -70
49 -37 c27 -21 56 -41 65 -44 9 -3 45 7 81 22 64 28 64 29 70 74 3 25 8 59 11
76 4 28 -1 35 -51 73 -30 23 -61 43 -67 46 -7 2 -41 -9 -74 -25z"/>
<path d="M8404 1490 c-34 -15 -64 -32 -66 -36 -3 -5 -8 -40 -12 -79 l-6 -70
49 -37 c27 -21 56 -41 65 -44 9 -3 45 7 81 22 64 28 64 29 70 74 3 25 8 59 11
76 4 28 -1 35 -51 73 -30 23 -61 43 -67 46 -7 2 -41 -9 -74 -25z"/>
<path d="M3428 1188 l-2 -73 -3 68 c-2 37 -7 67 -11 67 -4 0 -30 -10 -59 -22
-50 -21 -52 -23 -58 -67 -3 -25 -8 -60 -11 -77 -4 -27 1 -34 60 -77 35 -26 67
-47 70 -47 3 0 7 35 8 78 l2 77 5 -72 6 -72 56 25 c54 25 57 27 63 71 13 99
11 107 -49 152 -30 22 -59 41 -65 41 -6 0 -11 -30 -12 -72z"/>
<path d="M7698 1188 l-2 -73 -3 68 c-2 37 -7 67 -11 67 -4 0 -30 -10 -59 -22
-50 -21 -52 -23 -58 -67 -3 -25 -8 -60 -11 -77 -4 -27 1 -34 60 -77 35 -26 67
-47 70 -47 3 0 7 35 8 78 l2 77 5 -72 6 -72 56 25 c54 25 57 27 63 71 13 99
11 107 -49 152 -30 22 -59 41 -65 41 -6 0 -11 -30 -12 -72z"/>
<path d="M7938 1232 c-56 -25 -58 -28 -63 -72 -3 -25 -8 -59 -11 -76 -4 -27 1
-34 59 -77 l64 -46 65 31 c64 30 66 32 72 76 13 98 11 106 -49 151 -30 22 -60
41 -67 40 -7 -1 -39 -13 -70 -27z"/>
<path d="M8308 1188 l-2 -73 -3 68 c-2 37 -7 67 -11 67 -4 0 -30 -10 -59 -22
-50 -21 -52 -23 -58 -67 -3 -25 -8 -60 -11 -77 -4 -27 1 -34 60 -77 35 -26 67
-47 70 -47 3 0 7 35 8 78 l2 77 5 -72 6 -72 56 25 c54 25 57 27 63 71 13 99
11 107 -49 152 -30 22 -59 41 -65 41 -6 0 -11 -30 -12 -72z"/>
<path d="M8548 1232 c-56 -25 -58 -28 -63 -72 -3 -25 -8 -59 -11 -76 -4 -27 1
-34 59 -77 l64 -46 65 31 c64 30 66 32 72 76 13 98 11 106 -49 151 -30 22 -60
41 -67 40 -7 -1 -39 -13 -70 -27z"/>
<path d="M3214 980 c-34 -15 -64 -32 -66 -36 -3 -5 -8 -40 -12 -79 l-6 -70 49
-37 c27 -21 56 -41 65 -44 9 -3 45 7 81 22 64 28 64 29 70 74 3 25 8 59 11 76
4 28 -1 35 -51 73 -30 23 -61 43 -67 46 -7 2 -41 -9 -74 -25z"/>
<path d="M7484 980 c-34 -15 -64 -32 -66 -36 -3 -5 -8 -40 -12 -79 l-6 -70 49
-37 c27 -21 56 -41 65 -44 9 -3 45 7 81 22 64 28 64 29 70 74 3 25 8 59 11 76
4 28 -1 35 -51 73 -30 23 -61 43 -67 46 -7 2 -41 -9 -74 -25z"/>
<path d="M7794 980 c-34 -15 -64 -32 -66 -36 -3 -5 -8 -40 -12 -79 l-6 -70 49
-37 c27 -21 56 -41 65 -44 9 -3 45 7 81 22 64 28 64 29 70 74 3 25 8 59 11 76
4 28 -1 35 -51 73 -30 23 -61 43 -67 46 -7 2 -41 -9 -74 -25z"/>
<path d="M8094 980 c-34 -15 -64 -32 -66 -36 -3 -5 -8 -40 -12 -79 l-6 -70 49
-37 c27 -21 56 -41 65 -44 9 -3 45 7 81 22 64 28 64 29 70 74 3 25 8 59 11 76
4 28 -1 35 -51 73 -30 23 -61 43 -67 46 -7 2 -41 -9 -74 -25z"/>
<path d="M8404 980 c-34 -15 -64 -32 -66 -36 -3 -5 -8 -40 -12 -79 l-6 -70 49
-37 c27 -21 56 -41 65 -44 9 -3 45 7 81 22 64 28 64 29 70 74 3 25 8 59 11 76
4 28 -1 35 -51 73 -30 23 -61 43 -67 46 -7 2 -41 -9 -74 -25z"/>
<path d="M7328 722 c-56 -25 -58 -28 -63 -72 -3 -25 -8 -59 -11 -76 -4 -27 1
-34 59 -77 l64 -46 65 31 c64 30 66 32 72 76 13 98 11 106 -49 151 -30 22 -60
41 -67 40 -7 -1 -39 -13 -70 -27z"/>
<path d="M7698 678 l-2 -73 -3 68 c-2 37 -7 67 -11 67 -4 0 -30 -10 -59 -22
-50 -21 -52 -23 -58 -67 -3 -25 -8 -60 -11 -77 -4 -27 1 -34 60 -77 35 -26 67
-47 70 -47 3 0 7 35 8 78 l2 77 5 -72 6 -72 56 25 c54 25 57 27 63 71 13 99
11 107 -49 152 -30 22 -59 41 -65 41 -6 0 -11 -30 -12 -72z"/>
<path d="M7938 722 c-56 -25 -58 -28 -63 -72 -3 -25 -8 -59 -11 -76 -4 -27 1
-34 59 -77 l64 -46 65 31 c64 30 66 32 72 76 13 98 11 106 -49 151 -30 22 -60
41 -67 40 -7 -1 -39 -13 -70 -27z"/>
<path d="M8308 678 l-2 -73 -3 68 c-2 37 -7 67 -11 67 -4 0 -30 -10 -59 -22
-50 -21 -52 -23 -58 -67 -3 -25 -8 -60 -11 -77 -4 -27 1 -34 60 -77 35 -26 67
-47 70 -47 3 0 7 35 8 78 l2 77 5 -72 6 -72 56 25 c54 25 57 27 63 71 13 99
11 107 -49 152 -30 22 -59 41 -65 41 -6 0 -11 -30 -12 -72z"/>
<path d="M8548 722 c-56 -25 -58 -28 -63 -72 -3 -25 -8 -59 -11 -76 -4 -27 1
-34 59 -77 l64 -46 65 31 c64 30 66 32 72 76 13 98 11 106 -49 151 -30 22 -60
41 -67 40 -7 -1 -39 -13 -70 -27z"/>
<path d="M7484 470 c-34 -15 -64 -32 -66 -36 -3 -5 -8 -40 -12 -79 l-6 -70 49
-37 c27 -21 56 -41 65 -44 9 -3 45 7 81 22 64 28 64 29 70 74 3 25 8 59 11 76
4 28 -1 35 -51 73 -30 23 -61 43 -67 46 -7 2 -41 -9 -74 -25z"/>
<path d="M7794 470 c-34 -15 -64 -32 -66 -36 -3 -5 -8 -40 -12 -79 l-6 -70 49
-37 c27 -21 56 -41 65 -44 9 -3 45 7 81 22 64 28 64 29 70 74 3 25 8 59 11 76
4 28 -1 35 -51 73 -30 23 -61 43 -67 46 -7 2 -41 -9 -74 -25z"/>
<path d="M8094 470 c-34 -15 -64 -32 -66 -36 -3 -5 -8 -40 -12 -79 l-6 -70 49
-37 c27 -21 56 -41 65 -44 9 -3 45 7 81 22 64 28 64 29 70 74 3 25 8 59 11 76
4 28 -1 35 -51 73 -30 23 -61 43 -67 46 -7 2 -41 -9 -74 -25z"/>
<path d="M8404 470 c-34 -15 -64 -32 -66 -36 -3 -5 -8 -40 -12 -79 l-6 -70 49
-37 c27 -21 56 -41 65 -44 9 -3 45 7 81 22 64 28 64 29 70 74 3 25 8 59 11 76
4 28 -1 35 -51 73 -30 23 -61 43 -67 46 -7 2 -41 -9 -74 -25z"/>
<path d="M8704 470 c-34 -15 -64 -32 -66 -36 -3 -5 -8 -40 -12 -79 l-6 -70 49
-37 c27 -21 56 -41 65 -44 9 -3 45 7 81 22 64 28 64 29 70 74 3 25 8 59 11 76
4 28 -1 35 -51 73 -30 23 -61 43 -67 46 -7 2 -41 -9 -74 -25z"/>
<path d="M7335 214 c-27 -13 -53 -25 -57 -26 -5 -2 -12 -37 -18 -78 -12 -98
-10 -100 136 -100 l111 0 7 37 c15 93 10 107 -49 152 -30 22 -60 41 -67 40 -7
0 -35 -11 -63 -25z"/>
<path d="M7698 168 l-2 -73 -3 68 c-2 37 -7 67 -11 67 -4 0 -30 -10 -59 -22
-50 -21 -52 -23 -58 -67 -3 -25 -8 -60 -11 -78 -6 -40 15 -53 85 -53 l50 0 4
42 4 43 1 -42 2 -43 59 0 58 0 7 38 c15 92 10 106 -49 151 -30 22 -59 41 -65
41 -6 0 -11 -30 -12 -72z"/>
<path d="M7945 214 c-27 -13 -53 -25 -57 -26 -5 -2 -12 -37 -18 -78 -12 -98
-10 -100 136 -100 l111 0 7 37 c15 93 10 107 -49 152 -30 22 -60 41 -67 40 -7
0 -35 -11 -63 -25z"/>
<path d="M8308 168 l-2 -73 -3 68 c-2 37 -7 67 -11 67 -4 0 -30 -10 -59 -22
-50 -21 -52 -23 -58 -67 -3 -25 -8 -60 -11 -78 -6 -40 15 -53 85 -53 l50 0 4
42 4 43 1 -42 2 -43 59 0 58 0 7 38 c15 92 10 106 -49 151 -30 22 -59 41 -65
41 -6 0 -11 -30 -12 -72z"/>
<path d="M8555 214 c-27 -13 -53 -25 -57 -26 -5 -2 -12 -37 -18 -78 -12 -98
-10 -100 136 -100 l111 0 7 37 c15 93 10 107 -49 152 -30 22 -60 41 -67 40 -7
0 -35 -11 -63 -25z"/>
<path d="M8918 168 l-2 -73 -3 68 c-2 37 -7 67 -11 67 -4 0 -30 -10 -59 -22
-50 -21 -52 -23 -58 -67 -3 -25 -8 -60 -11 -78 -6 -40 15 -53 85 -53 l50 0 4
42 4 43 1 -42 2 -43 59 0 58 0 7 38 c15 92 10 106 -49 151 -30 22 -59 41 -65
41 -6 0 -11 -30 -12 -72z"/>
</g>
</svg>
