<?xml version="1.0" standalone="no"?>
<!DOCTYPE svg PUBLIC "-//W3C//DTD SVG 20010904//EN"
 "http://www.w3.org/TR/2001/REC-SVG-20010904/DTD/svg10.dtd">
<svg version="1.0" xmlns="http://www.w3.org/2000/svg"
 width="1201.000000pt" height="1201.000000pt" viewBox="0 0 1201.000000 1201.000000"
 preserveAspectRatio="xMidYMid meet">
<metadata>
Created by potrace 1.11, written by Peter Selinger 2001-2013
</metadata>
<g transform="translate(0.000000,1201.000000) scale(0.100000,-0.100000)"
fill="#000000" stroke="none">
<path d="M3885 10993 c-669 -82 -1245 -433 -1617 -986 -33 -49 -76 -107 -96
-129 -95 -105 -219 -104 -269 3 l-20 43 -11 -49 c-6 -28 -20 -109 -33 -182
l-22 -132 -31 -7 c-120 -25 -265 -144 -371 -304 -34 -52 -173 -287 -308 -522
l-245 -428 -21 49 c-11 27 -21 68 -21 90 0 23 -4 41 -10 41 -5 0 -34 -24 -64
-54 -99 -100 -146 -237 -125 -369 10 -65 48 -158 76 -189 10 -12 13 -22 7 -28
-15 -15 -142 7 -202 35 -30 14 -57 25 -60 25 -3 0 -2 -31 2 -69 7 -82 37 -184
77 -263 16 -32 29 -60 29 -63 0 -3 -29 14 -64 39 -35 26 -68 46 -73 46 -13 0
-32 -87 -39 -175 -14 -176 76 -377 216 -482 l50 -37 0 -81 c0 -226 -69 -585
-165 -865 -46 -132 -51 -177 -31 -264 23 -96 74 -187 198 -356 170 -229 220
-345 204 -470 l-8 -55 -61 -30 c-43 -21 -89 -57 -152 -120 -74 -73 -99 -106
-132 -175 -54 -110 -73 -182 -80 -305 -8 -139 13 -240 77 -370 27 -54 48 -100
47 -100 -48 -23 -160 -98 -214 -144 -137 -116 -248 -293 -294 -466 -28 -106
-31 -317 -6 -417 40 -163 118 -312 227 -439 l48 -56 -60 -27 c-71 -33 -132
-91 -162 -155 -18 -41 -21 -63 -21 -191 1 -161 3 -170 109 -427 26 -61 58
-155 72 -210 22 -84 25 -113 21 -203 -6 -140 -30 -206 -104 -290 -68 -78 -92
-129 -100 -213 -10 -108 22 -216 111 -369 l50 -88 598 0 598 0 6 25 6 26 34
-26 c28 -21 43 -25 92 -24 46 2 62 6 71 21 7 11 53 180 102 376 154 610 183
706 304 997 80 193 230 503 315 651 168 291 383 609 476 701 76 75 126 105
239 143 l88 30 -6 -40 c-5 -38 -3 -42 39 -72 24 -17 44 -34 44 -37 0 -4 -32
-30 -70 -59 -71 -53 -126 -117 -136 -159 -5 -17 -11 -22 -24 -18 -10 3 -48 -7
-83 -24 -65 -29 -65 -29 -72 -78 -3 -26 -8 -60 -10 -75 -3 -22 4 -32 48 -65
74 -56 73 -55 111 -39 l35 15 -16 -34 c-17 -36 -11 -89 10 -83 7 2 31 33 55
68 43 65 200 256 247 300 l25 24 30 -22 c36 -27 32 -27 107 4 66 28 67 30 78
126 6 48 4 58 -12 67 -39 23 -53 39 -47 54 5 14 9 14 34 -4 l27 -21 69 30 69
31 8 76 c8 68 7 78 -10 90 -16 12 -16 14 -2 15 9 0 30 3 47 6 31 6 31 6 22
-27 -4 -19 -10 -55 -13 -82 -4 -43 -2 -49 24 -68 17 -12 26 -25 22 -35 -5 -13
-8 -13 -28 0 -13 8 -25 12 -29 9 -3 -4 -6 -71 -6 -149 0 -161 -6 -153 77 -111
45 23 49 30 58 122 10 98 10 98 72 124 32 13 61 27 64 30 4 3 10 40 13 81 l6
75 -55 39 c-30 22 -55 43 -55 47 0 22 25 17 63 -12 23 -18 44 -34 45 -35 2 -2
10 -46 18 -99 17 -112 19 -108 -73 -145 l-51 -22 -7 -73 c-4 -40 -4 -78 0 -85
11 -18 -14 -39 -80 -69 -65 -30 -75 -46 -75 -122 0 -16 -11 -40 -26 -56 l-25
-28 6 73 c6 70 5 74 -19 93 -14 11 -26 30 -26 41 0 20 1 20 18 5 38 -35 42
-23 42 127 l0 145 -59 -26 -58 -25 -7 -52 c-3 -28 -6 -72 -6 -97 l0 -45 -69
-31 -69 -31 -7 -48 c-3 -27 -8 -61 -10 -76 -4 -23 4 -33 56 -70 55 -39 59 -46
55 -74 -10 -73 -159 -387 -290 -614 -85 -147 -312 -603 -459 -925 -122 -265
-285 -636 -289 -657 -5 -21 77 -33 125 -18 41 13 144 15 243 4 46 -5 51 -4 61
18 l10 23 7 -22 c14 -45 110 -16 183 55 21 21 151 188 289 373 468 624 823
1057 1359 1659 333 375 357 395 665 564 276 152 566 347 903 607 70 55 130 99
132 99 2 0 2 -6 -1 -14 -3 -8 19 -31 57 -60 68 -50 66 -50 153 -10 l53 24 7
76 c6 67 5 78 -11 89 -53 37 -68 54 -57 65 8 8 18 5 36 -10 15 -11 31 -20 37
-20 5 0 12 26 14 57 l3 58 2 -57 2 -57 59 26 c60 26 71 40 71 91 0 20 -5 22
-52 22 -63 0 -54 17 12 22 41 3 45 6 48 31 2 15 7 27 12 27 12 0 31 -36 23
-44 -4 -3 2 -13 13 -21 17 -13 17 -14 2 -15 -13 0 -18 -8 -18 -29 0 -24 10
-37 50 -66 28 -21 62 -52 77 -71 22 -30 25 -41 21 -89 l-5 -55 55 -41 c39 -30
51 -44 41 -50 -14 -8 -19 -6 -64 27 l-30 22 -66 -31 -67 -31 -5 -49 c-6 -48
-20 -77 -38 -77 -5 0 -6 21 -3 48 l6 47 -60 44 c-33 24 -64 44 -69 45 -4 0
-10 -62 -13 -139 l-6 -140 -2 137 -2 137 -59 -26 -58 -25 -7 -52 c-11 -97 -10
-101 44 -141 28 -20 50 -41 50 -46 0 -17 -31 -9 -66 17 l-35 27 -64 -28 c-36
-15 -68 -31 -70 -36 -3 -4 -10 -39 -14 -76 -6 -49 -5 -72 3 -81 9 -9 0 -24
-41 -67 -66 -68 -72 -105 -18 -105 28 0 88 31 278 146 133 80 278 163 322 184
44 20 111 52 148 69 l68 32 54 -40 c30 -23 59 -41 64 -41 6 0 12 30 14 68 l3
67 2 -67 2 -67 60 26 c62 27 67 35 73 111 2 38 32 22 35 -20 3 -31 11 -43 57
-77 30 -23 58 -41 63 -41 5 0 31 9 57 21 62 28 86 10 27 -20 -37 -19 -41 -25
-47 -68 -3 -27 -8 -60 -10 -75 -4 -23 4 -33 57 -72 67 -50 65 -50 154 -9 52
24 54 26 54 65 0 42 16 48 35 12 6 -10 36 -46 68 -78 31 -32 55 -61 53 -63 -3
-3 -28 13 -57 35 -29 22 -57 38 -61 36 -4 -3 -8 -70 -8 -149 l0 -144 60 26
c63 28 60 23 74 113 3 14 5 34 6 45 2 40 30 -16 30 -61 0 -39 4 -44 57 -85 50
-38 55 -44 36 -47 -13 -2 -38 8 -58 24 l-36 27 -66 -28 c-40 -17 -68 -36 -71
-47 -8 -30 -45 -21 -111 29 l-62 46 -67 -29 c-65 -29 -67 -31 -76 -74 -8 -40
-20 -59 -36 -60 -3 0 -4 17 -2 38 2 35 0 39 -58 81 l-61 44 -65 -28 c-35 -15
-67 -31 -69 -36 -3 -4 -10 -39 -14 -76 -9 -66 -8 -69 17 -91 22 -18 24 -24 12
-32 -9 -5 -19 -5 -27 2 -10 8 -15 4 -22 -13 -7 -16 -10 -19 -10 -7 -1 14 -8
13 -61 -9 -48 -21 -60 -31 -60 -49 0 -12 -7 -25 -16 -28 -22 -8 -24 -8 -24 7
0 7 -28 34 -63 59 l-62 46 -67 -31 -67 -31 -7 -75 c-7 -73 -6 -75 21 -97 29
-23 21 -40 -14 -29 -12 3 -46 -6 -84 -23 -58 -27 -65 -33 -71 -65 -5 -28 -21
-47 -76 -92 -111 -91 -177 -168 -195 -227 -18 -60 -19 -78 -5 -78 36 0 127 51
237 133 153 113 289 202 438 288 109 62 327 169 345 169 6 0 10 -13 10 -29 0
-23 11 -37 55 -70 30 -22 58 -41 62 -41 4 0 36 12 70 26 66 28 67 30 78 126 6
48 4 58 -12 66 -10 6 -16 12 -13 15 14 12 250 84 254 78 3 -4 23 -20 45 -35
l39 -28 69 30 c65 29 68 32 73 69 4 27 10 39 24 41 15 3 18 0 12 -21 -5 -21 2
-30 49 -66 30 -23 61 -44 69 -47 23 -9 41 -66 38 -120 l-4 -51 60 -44 c75 -55
107 -109 99 -168 -5 -39 -3 -43 33 -69 21 -15 46 -42 54 -60 l16 -33 -52 40
c-29 22 -56 37 -60 35 -4 -3 -8 -70 -8 -149 l0 -144 60 26 c62 27 67 35 73
111 2 37 13 25 38 -40 13 -35 25 -67 27 -71 3 -5 -4 -3 -15 3 -15 10 -30 7
-85 -18 l-66 -30 -7 -49 c-3 -26 -8 -60 -10 -75 -3 -22 4 -32 48 -65 75 -57
73 -56 123 -34 55 25 54 25 54 7 0 -7 -13 -19 -29 -26 -28 -11 -30 -16 -36
-86 -6 -62 -5 -78 9 -93 22 -24 21 -44 -3 -36 -12 3 -46 -6 -84 -24 -65 -29
-65 -29 -72 -78 -3 -26 -8 -60 -10 -75 -3 -22 4 -32 48 -65 75 -57 73 -56 124
-33 36 16 48 18 54 8 6 -9 -3 -17 -26 -26 -28 -12 -35 -20 -35 -42 0 -16 -3
-35 -6 -44 -5 -14 4 -16 60 -16 37 0 66 -4 66 -10 0 -6 -28 -10 -65 -10 -65 0
-65 0 -65 -29 0 -23 11 -37 57 -71 53 -41 58 -42 87 -31 41 17 58 18 63 5 2
-6 -8 -16 -21 -22 -20 -9 -26 -21 -31 -59 -3 -26 -8 -60 -10 -75 -4 -23 4 -33
57 -72 47 -35 67 -44 86 -39 l24 6 -7 -90 c-6 -76 -4 -91 10 -103 13 -11 251
-12 1463 -6 795 4 1448 8 1449 10 2 2 -8 23 -22 48 -77 139 -90 278 -55 593
17 148 21 232 17 325 -9 223 -47 292 -308 556 -197 200 -229 248 -237 354 -7
89 11 133 85 212 136 145 185 341 133 542 -48 187 -182 357 -390 491 -36 24
-128 77 -205 120 -176 98 -247 148 -317 224 -70 75 -100 148 -102 246 -1 63 4
79 42 161 38 82 42 98 42 166 0 142 -39 224 -220 463 -112 149 -151 234 -195
425 -20 90 -48 181 -65 216 -39 81 -112 147 -233 214 -218 120 -258 234 -187
530 77 318 52 409 -172 635 -172 172 -195 214 -229 418 -60 358 -169 638 -445
1145 -197 360 -303 484 -629 732 -312 238 -395 334 -581 675 -153 280 -245
415 -403 590 -353 391 -855 665 -1371 750 -232 37 -392 39 -765 5 -146 -13
-235 -2 -476 59 -263 67 -375 81 -612 80 -106 -1 -205 -4 -222 -6z m400 -1509
c20 -244 43 -356 94 -460 50 -101 146 -196 248 -246 l68 -33 210 -1 c215 -1
280 -9 398 -51 41 -15 63 -33 39 -33 -5 0 -12 -42 -15 -93 -3 -51 -9 -100 -12
-109 -4 -10 7 -24 34 -42 l39 -28 46 21 46 20 -1 53 c0 29 -4 74 -8 101 -7 41
-6 47 8 43 54 -17 115 -26 176 -26 39 0 76 -4 83 -9 8 -5 22 -51 33 -102 26
-133 77 -230 188 -358 118 -136 126 -153 125 -266 -1 -71 -10 -123 -42 -247
-63 -239 -73 -374 -35 -482 7 -22 12 -41 9 -43 -5 -6 -53 15 -61 26 -4 7 -15
6 -35 -4 -24 -12 -30 -23 -35 -62 -3 -27 -8 -60 -10 -75 -4 -22 4 -32 50 -67
30 -23 61 -44 69 -47 15 -6 11 -34 -5 -34 -6 0 -33 18 -62 39 l-52 40 -65 -31
c-36 -17 -66 -31 -67 -32 -1 -1 -5 -35 -9 -77 l-6 -75 55 -42 c62 -47 67 -48
105 -28 15 7 37 17 50 20 36 12 27 -18 -12 -37 -31 -14 -35 -22 -41 -64 -3
-26 -8 -60 -10 -75 -4 -22 4 -33 52 -69 32 -23 64 -43 73 -44 34 -2 42 -17 37
-61 -4 -43 -4 -44 24 -44 16 0 29 -4 29 -10 0 -5 -13 -10 -30 -10 -27 0 -30
-3 -30 -30 0 -18 7 -34 19 -41 11 -7 16 -20 14 -30 -4 -14 -9 -16 -22 -7 -13
8 -32 3 -83 -20 l-66 -30 -7 -49 c-3 -26 -8 -60 -10 -75 -4 -22 4 -32 50 -67
36 -28 52 -46 49 -56 -5 -12 -16 -8 -53 19 l-47 35 -64 -31 c-36 -17 -66 -31
-67 -32 -1 -1 -5 -35 -9 -77 l-6 -75 55 -42 c31 -23 60 -42 65 -42 6 0 29 9
53 20 24 11 50 20 57 20 25 0 11 -20 -27 -40 -36 -18 -40 -24 -46 -67 -3 -27
-8 -60 -10 -75 -4 -23 3 -32 40 -59 26 -19 45 -40 45 -51 0 -21 -6 -19 -55 18
l-30 23 -65 -31 c-36 -17 -66 -31 -67 -32 -1 -1 -5 -35 -9 -77 l-6 -75 55 -42
c31 -23 60 -42 65 -42 29 0 100 43 112 67 l13 28 9 -27 c13 -37 -10 -72 -108
-168 -43 -41 -65 -60 -51 -42 17 21 27 46 27 65 -1 27 -9 38 -61 76 l-61 44
-66 -29 c-72 -32 -75 -37 -85 -136 l-4 -47 56 -42 c31 -23 58 -44 60 -46 3 -2
0 -8 -7 -15 -8 -8 -24 -1 -61 27 -59 42 -59 42 -64 -60 l-3 -70 -2 77 -2 77
-59 -26 -60 -26 -6 -73 c-5 -54 -4 -78 5 -89 7 -9 11 -17 9 -19 -2 -3 -39 -20
-81 -40 -45 -20 -78 -41 -78 -49 0 -17 -31 -32 -39 -19 -3 5 -32 28 -64 52
l-58 43 -64 -28 c-36 -15 -68 -31 -70 -36 -3 -4 -10 -39 -14 -76 -8 -62 -7
-70 11 -85 21 -18 15 -43 -8 -34 -7 3 -18 -3 -23 -12 -6 -9 -11 -12 -11 -5 0
16 -120 -36 -120 -52 0 -7 -7 -18 -15 -25 -13 -11 -18 -10 -28 2 -7 8 -37 34
-67 56 l-55 40 -67 -31 -67 -31 -7 -78 c-4 -43 -10 -78 -14 -78 -5 0 -16 -3
-26 -7 -10 -3 -15 -2 -12 3 3 5 9 36 13 68 6 56 5 60 -22 82 -19 16 -23 24
-13 24 44 3 70 11 123 35 31 15 57 33 57 40 0 28 27 20 89 -27 70 -52 67 -52
155 -12 l53 24 7 76 c7 73 6 76 -19 95 -30 24 -24 42 11 33 21 -5 24 -3 25 22
l2 29 4 -27 4 -26 59 25 c63 28 64 30 75 123 l6 56 -59 43 c-33 24 -64 43 -69
42 -4 0 -11 -36 -14 -78 l-5 -78 -2 77 -2 77 -59 -26 -60 -26 -6 -74 c-6 -63
-5 -77 10 -93 17 -19 17 -20 -1 -26 -69 -21 -147 -59 -151 -73 -13 -44 -43
-68 -43 -34 0 10 -26 36 -61 62 l-60 44 -65 -28 c-35 -15 -67 -31 -69 -36 -3
-4 -10 -39 -14 -76 -8 -61 -7 -70 10 -85 19 -16 17 -18 -66 -44 -97 -30 -121
-28 -45 5 42 18 50 26 50 49 0 15 3 50 6 77 l5 50 -61 44 -62 44 -66 -29 c-72
-32 -75 -37 -85 -136 l-5 -48 60 -44 c46 -35 55 -45 41 -50 -10 -4 -32 4 -59
24 l-43 30 -35 -21 c-20 -11 -36 -27 -36 -35 0 -31 -224 -12 -379 32 -261 74
-515 274 -670 528 -24 38 -60 124 -85 199 -24 73 -76 224 -114 337 -124 362
-175 615 -201 1000 -12 178 -18 1301 -7 1353 14 64 145 153 268 182 122 29
343 17 556 -29 53 -12 78 -14 92 -6 31 17 53 69 58 140 4 56 1 68 -15 83 -38
33 -155 51 -348 51 -159 1 -189 -2 -259 -22 -85 -25 -192 -75 -261 -122 -24
-17 -46 -30 -49 -30 -22 0 69 414 134 614 57 175 63 187 93 202 18 9 69 41
115 71 90 60 84 59 197 27 83 -23 123 -11 209 65 37 33 82 66 101 75 68 33
198 46 251 26 27 -10 27 -11 20 -85 -10 -110 -31 -170 -78 -221 -23 -24 -39
-46 -37 -48 17 -16 79 -22 116 -11 141 42 214 143 268 369 32 132 54 177 133
276 90 112 131 185 176 314 4 10 9 17 11 14 3 -3 12 -90 20 -194z m1895 -4605
c14 -19 17 -29 8 -27 -9 2 -15 -14 -19 -57 l-6 -60 -1 57 -2 57 -59 -26 -60
-26 -6 -73 c-5 -50 -4 -79 4 -88 15 -17 4 -26 -80 -64 -63 -28 -67 -32 -73
-69 -4 -21 -15 -44 -24 -50 -15 -9 -17 -6 -14 26 2 34 -1 39 -59 80 l-61 44
-66 -29 c-72 -32 -75 -37 -85 -136 l-4 -47 56 -42 c31 -23 58 -44 60 -46 3 -2
0 -8 -7 -15 -8 -8 -24 -1 -61 27 -59 43 -59 42 -64 -65 l-3 -75 -2 82 -2 82
-59 -26 -60 -26 -7 -75 c-6 -70 -5 -77 15 -94 25 -20 19 -42 -9 -33 -10 3 -47
-7 -83 -23 -66 -30 -77 -46 -77 -117 0 -12 -9 -30 -21 -41 l-20 -18 6 59 6 60
-61 44 -61 44 -65 -28 c-35 -15 -67 -31 -69 -36 -3 -4 -10 -39 -14 -76 -9 -66
-8 -69 17 -91 70 -59 98 -73 126 -63 33 13 33 11 -2 -22 l-28 -27 -59 44 c-33
24 -63 42 -67 40 -5 -3 -8 -36 -8 -75 l0 -69 31 0 c17 0 28 -4 24 -10 -3 -5
-17 -10 -31 -10 -19 0 -24 -5 -25 -27 l-2 -28 -4 28 c-4 26 -6 27 -69 27 -63
0 -64 0 -64 -27 0 -19 10 -36 31 -54 40 -32 32 -58 -10 -33 -26 15 -30 15 -94
-14 l-66 -30 -7 -52 c-4 -34 -13 -54 -25 -61 -17 -9 -18 -6 -12 36 5 40 3 48
-16 61 -27 20 -27 34 2 34 12 0 50 12 84 26 63 27 73 40 73 95 0 14 9 34 20
44 22 20 27 45 9 45 -6 0 -42 23 -79 50 l-68 50 -42 -24 c-27 -15 -61 -51 -98
-103 -223 -312 -443 -489 -735 -592 -49 -17 -101 -31 -117 -31 -27 0 -28 2
-23 33 l5 34 -106 11 c-174 17 -263 76 -331 217 -44 92 -58 149 -50 201 11 78
121 229 184 253 14 5 58 19 96 31 86 26 144 63 213 132 l52 54 123 -20 c182
-28 458 -27 591 2 223 50 456 144 694 280 l143 82 66 -50 c72 -55 69 -54 159
-13 46 21 54 29 54 51 0 15 3 50 6 77 5 47 4 51 -24 70 -36 23 -32 39 9 30 26
-6 29 -4 30 22 l2 28 4 -27 4 -26 59 26 c54 23 60 28 65 61 7 41 25 83 40 88
6 2 9 -16 7 -45 -4 -48 -3 -48 52 -90 30 -23 59 -42 63 -42 4 0 36 12 70 26
66 28 67 30 78 124 l6 56 -60 44 c-34 24 -61 47 -61 51 0 22 25 16 67 -16 51
-39 51 -39 139 2 44 20 54 29 54 49 0 29 11 25 40 -17z m215 -278 c30 -23 58
-41 62 -41 22 0 133 55 133 66 0 26 20 24 55 -7 37 -33 42 -50 8 -29 -15 10
-31 7 -85 -18 l-66 -30 -7 -49 c-3 -26 -8 -60 -10 -75 -3 -22 4 -32 48 -65 29
-22 58 -43 65 -47 7 -4 37 4 69 19 44 20 58 23 65 13 5 -9 -5 -18 -36 -31
l-44 -19 -8 -76 -7 -75 32 -26 c17 -14 31 -34 31 -44 0 -17 -2 -17 -31 4 l-30
21 -65 -27 c-35 -15 -67 -31 -69 -36 -3 -4 -10 -39 -14 -76 -10 -75 -13 -68
60 -125 24 -18 31 -29 23 -37 -7 -8 -21 -3 -50 18 l-39 29 -68 -31 c-58 -28
-67 -35 -67 -59 0 -14 -3 -33 -6 -42 -5 -14 4 -16 60 -16 37 0 66 -4 66 -10 0
-6 -28 -10 -65 -10 l-65 0 0 -30 c0 -19 7 -34 20 -42 29 -19 26 -42 -5 -34
-17 4 -46 -3 -89 -23 -64 -29 -65 -29 -71 -78 -7 -45 -28 -83 -47 -83 -4 0 -6
24 -3 53 l6 52 -61 44 -62 44 -66 -29 c-72 -32 -75 -37 -85 -137 l-5 -47 59
-43 c32 -23 59 -45 59 -49 0 -17 -396 -272 -989 -637 -738 -454 -807 -501
-799 -552 2 -14 11 -25 23 -27 11 -2 34 -15 52 -28 44 -33 53 -30 55 19 l1 42
4 -42 4 -41 59 26 c54 23 60 29 66 61 8 54 12 61 29 61 23 0 19 -48 -7 -88
-13 -18 -44 -44 -70 -57 -40 -21 -47 -30 -53 -64 -3 -21 -17 -49 -30 -61 l-24
-23 5 49 5 49 -61 44 -61 44 -65 -28 c-35 -15 -67 -31 -69 -36 -3 -4 -10 -39
-14 -76 -9 -66 -8 -69 17 -91 70 -59 98 -73 126 -63 l26 11 -22 -30 c-26 -35
-30 -34 -101 19 l-52 39 -67 -31 -67 -31 -7 -75 c-7 -82 -10 -75 64 -130 21
-15 24 -22 15 -31 -9 -10 -20 -6 -47 15 l-37 28 -64 -28 c-36 -15 -68 -31 -70
-36 -3 -4 -10 -39 -14 -76 -9 -68 -9 -68 21 -94 38 -32 31 -60 -8 -34 -28 18
-31 14 -37 -55 l-4 -45 -1 52 -2 52 -59 -26 -60 -26 -6 -74 c-6 -63 -5 -77 10
-93 17 -19 17 -20 -1 -25 -11 -4 -48 -18 -83 -33 -73 -30 -79 -42 -83 -145 -3
-66 -24 -94 -95 -122 -39 -16 -43 -21 -45 -54 0 -20 -1 -43 0 -51 1 -9 -10
-29 -23 -45 l-24 -30 -1 28 c0 27 -1 27 -65 27 l-65 0 0 -70 0 -71 28 14 c15
8 37 18 50 22 21 6 22 5 11 -13 -7 -12 -23 -25 -36 -31 -13 -6 -23 -18 -23
-27 0 -17 -46 -104 -55 -104 -2 0 -2 21 1 48 l5 47 -61 44 -61 43 -49 -20
c-28 -12 -50 -17 -50 -12 0 10 25 37 40 42 6 2 14 24 16 48 3 25 17 75 31 112
24 62 29 68 73 87 l47 20 7 74 c4 41 4 81 1 89 -3 8 1 28 10 44 9 18 15 22 15
12 0 -14 7 -13 60 9 63 28 63 27 76 127 5 44 4 51 -17 67 l-24 18 92 183 c161
319 351 637 490 817 45 58 135 176 200 261 185 246 261 338 358 439 141 146
399 388 780 731 193 173 435 395 539 493 216 204 287 263 406 339 47 30 113
72 147 93 34 22 62 45 63 52 0 7 10 22 23 33 22 21 22 21 25 1 2 -11 27 -38
57 -60z m-3363 -34 c57 -57 130 -122 163 -144 33 -22 90 -67 125 -99 36 -33
90 -80 120 -105 l54 -47 -62 -7 c-39 -4 -81 -2 -115 5 -47 11 -61 22 -144 108
-64 66 -96 93 -107 89 -28 -11 -17 -48 35 -125 27 -41 49 -76 47 -78 -7 -7
-182 -34 -219 -34 -35 0 -39 3 -49 38 -38 122 -10 502 36 502 7 0 59 -47 116
-103z m1305 -440 c-2 -23 -3 -1 -3 48 0 50 1 68 3 42 2 -26 2 -67 0 -90z
m-567 67 c52 -7 113 -14 135 -14 40 0 40 0 41 -40 1 -22 -3 -40 -8 -40 -66 0
-298 86 -298 110 0 7 7 9 17 5 10 -3 61 -13 113 -21z m430 -24 c0 -31 5 -43
25 -56 14 -9 23 -19 21 -22 -3 -2 -36 -6 -73 -8 -55 -3 -64 -1 -46 8 21 10 32
38 36 96 1 14 8 22 19 22 14 0 18 -8 18 -40z m-607 -87 l28 -6 -23 -25 c-38
-41 -138 -101 -202 -121 -86 -27 -228 -49 -395 -61 -316 -24 -580 -134 -672
-278 -16 -26 -45 -55 -64 -64 -29 -16 -35 -24 -40 -65 -3 -27 -8 -60 -10 -75
-4 -23 3 -32 40 -59 25 -18 45 -34 45 -35 0 -2 -24 -27 -53 -56 -88 -88 -134
-186 -108 -227 7 -11 15 -2 34 35 48 93 133 173 281 263 77 47 77 47 152 -10
l42 -31 68 30 69 31 8 77 c7 59 6 79 -4 85 -18 11 22 42 88 70 45 18 53 26 59
55 3 18 4 39 1 46 -4 13 39 108 49 108 4 0 4 -18 1 -40 l-5 -40 43 0 c24 0 47
-4 50 -10 4 -6 -13 -10 -44 -10 -49 0 -51 -1 -51 -29 0 -23 11 -37 55 -70 34
-26 55 -49 55 -62 0 -17 -7 -14 -55 22 l-56 42 -64 -28 c-36 -15 -68 -31 -70
-36 -3 -4 -10 -39 -14 -76 -10 -76 -10 -75 81 -139 l37 -26 61 28 c33 15 62
25 64 23 9 -9 -26 -146 -50 -199 -38 -83 -94 -152 -241 -297 -114 -114 -148
-155 -237 -290 -394 -600 -625 -1101 -791 -1713 -122 -452 -168 -590 -212
-648 -24 -32 -27 -33 -33 -16 -4 11 -1 82 7 159 12 111 13 198 6 420 -17 574
-12 668 53 990 69 341 164 677 318 1132 179 525 306 784 475 965 95 102 131
125 211 133 36 4 103 22 150 40 122 47 201 64 410 85 175 18 378 19 453 3z
m-907 -368 c-6 -25 -6 -25 59 -25 37 0 65 -4 65 -10 0 -6 -28 -10 -65 -10
l-65 0 0 -29 c0 -20 8 -35 28 -49 20 -16 24 -24 16 -32 -9 -9 -16 -9 -31 0
-15 10 -30 7 -85 -18 -60 -27 -66 -32 -72 -68 -7 -33 -28 -63 -46 -64 -3 0 -4
17 -2 38 3 35 0 39 -53 76 -30 22 -55 43 -55 47 0 22 24 17 59 -10 21 -17 44
-31 50 -31 7 0 12 27 13 73 l2 72 3 -72 4 -71 59 25 c59 26 70 40 70 91 0 20
-4 22 -62 22 -45 0 -59 3 -48 10 8 5 37 10 63 10 40 0 50 4 54 19 3 11 12 22
22 24 9 3 18 5 20 6 2 0 0 -10 -3 -24z m164 -35 c0 -5 -7 -10 -15 -10 -8 0
-15 5 -15 10 0 6 7 10 15 10 8 0 15 -4 15 -10z m1790 0 c0 -5 -21 -10 -46 -10
-27 0 -43 4 -39 10 3 6 24 10 46 10 21 0 39 -4 39 -10z m55 0 c-3 -5 -15 -10
-26 -10 -10 0 -19 5 -19 10 0 6 12 10 26 10 14 0 23 -4 19 -10z m-161 -85 c24
-18 14 -30 -25 -30 -33 0 -33 -1 -17 25 15 24 17 24 42 5z m-144 -265 c35 -29
35 -29 10 -30 -15 0 -31 5 -38 12 -9 9 -14 6 -21 -13 -7 -16 -10 -19 -10 -7
-1 15 -8 14 -58 -9 -32 -14 -61 -30 -64 -35 -4 -6 -12 -9 -19 -6 -10 3 143
115 160 117 3 1 21 -12 40 -29z m110 -114 c0 -3 -4 -8 -10 -11 -5 -3 -10 -1
-10 4 0 6 5 11 10 11 6 0 10 -2 10 -4z m-163 -133 c-2 -21 -4 -4 -4 37 0 41 2
58 4 38 2 -21 2 -55 0 -75z m-1047 30 c0 -19 -17 -31 -101 -74 -99 -49 -129
-55 -129 -24 0 11 6 14 25 9 25 -6 25 -5 27 62 l2 69 3 -67 4 -66 59 26 c54
23 60 28 66 61 10 63 14 69 30 47 8 -11 14 -30 14 -43z m910 18 c0 -24 10 -37
50 -66 28 -20 50 -41 50 -45 0 -21 -20 -17 -59 11 l-41 31 -43 -17 c-23 -9
-48 -19 -54 -22 -7 -3 -13 2 -13 10 0 8 13 20 30 27 23 9 31 21 36 49 8 45 12
51 30 51 9 0 14 -10 14 -29z m-814 -102 c3 -6 19 -9 35 -5 33 6 36 -4 13 -39
-14 -21 -18 -23 -30 -10 -8 8 -24 21 -36 29 -11 8 -17 19 -13 25 8 14 22 14
31 0z m15 -221 c-4 -12 -27 -30 -52 -40 -24 -11 -41 -17 -39 -14 7 6 95 75 97
75 1 1 -1 -9 -6 -21z m-106 -130 c-6 -51 -14 -71 -43 -107 -20 -24 -50 -52
-68 -63 -22 -13 -34 -29 -38 -51 -4 -18 -18 -45 -31 -62 l-25 -30 6 50 c5 49
5 50 -36 78 -22 16 -38 33 -35 38 9 14 31 11 45 -6 24 -29 40 -17 42 33 l2 47
3 -47 4 -46 59 25 c64 28 64 28 76 128 5 42 23 75 42 75 2 0 1 -28 -3 -62z
m372 -403 c-31 -28 -47 -32 -47 -12 0 15 35 35 60 36 10 0 5 -8 -13 -24z
m-841 -1959 c-5 -20 2 -30 47 -63 75 -57 73 -56 122 -34 l45 20 -16 -25 c-9
-13 -20 -24 -24 -24 -4 0 -11 -10 -14 -22 -3 -13 -14 -34 -24 -47 l-19 -23 4
28 c4 26 -3 34 -62 78 -54 40 -68 46 -81 36 -24 -21 -25 -6 -2 48 23 55 34 68
24 28z m-1423 -100 c16 -13 24 -46 10 -46 -12 0 -43 33 -43 47 0 16 10 16 33
-1z"/>
<path d="M5281 8354 c-13 -31 -43 -72 -71 -98 l-49 -45 -58 20 c-155 53 -420
65 -675 29 -222 -31 -307 -56 -322 -95 -20 -54 8 -186 48 -224 41 -38 88 -37
216 6 88 29 131 38 183 38 43 0 67 4 67 11 0 7 9 14 21 17 18 5 20 2 15 -17
-5 -22 -2 -24 87 -35 50 -7 111 -15 135 -18 l42 -5 0 46 c0 43 2 46 26 46 24
0 26 -3 21 -30 -5 -24 -2 -33 24 -51 26 -18 45 -22 126 -23 79 -1 97 2 106 16
10 15 14 15 51 -4 23 -12 67 -38 98 -60 l57 -38 -6 -63 -5 -63 55 -42 c31 -23
61 -42 66 -42 6 0 12 28 14 63 l3 62 2 -62 2 -62 59 26 c89 38 89 43 -13 203
l-41 64 -6 -34 -6 -35 -2 33 c0 19 -5 31 -11 27 -18 -11 -30 5 -18 25 10 16 6
25 -30 64 -45 49 -46 52 -33 108 8 33 6 39 -16 54 -24 15 -29 15 -82 -8 -53
-23 -81 -26 -81 -9 0 5 20 16 44 25 48 18 51 24 61 116 l6 56 -43 31 -43 31
-24 -54z"/>
<path d="M3743 8303 c4 -54 7 -126 7 -160 0 -56 2 -63 19 -63 34 0 38 83 14
273 -5 39 -9 47 -26 47 -19 0 -20 -4 -14 -97z"/>
<path d="M5453 8388 c-18 -9 -23 -22 -29 -86 -6 -71 -5 -77 16 -94 13 -10 27
-15 31 -11 11 11 23 203 13 202 -5 0 -19 -5 -31 -11z"/>
<path d="M3565 7869 c4 -13 18 -51 32 -84 37 -94 63 -207 63 -280 0 -250 -89
-604 -226 -895 -57 -122 -79 -200 -56 -200 8 0 160 279 190 351 32 74 112 327
134 419 13 58 21 138 25 253 5 163 5 169 -21 240 -28 75 -111 208 -135 215
-10 3 -11 -2 -6 -19z"/>
<path d="M5363 7836 c4 -10 7 -24 7 -32 0 -8 5 -14 11 -14 15 0 6 53 -10 58
-10 3 -12 0 -8 -12z"/>
<path d="M5741 7770 c-13 -52 -13 -54 10 -73 l24 -19 3 28 c1 16 -3 49 -10 73
l-13 44 -14 -53z"/>
<path d="M4593 7795 c-80 -22 -195 -86 -181 -100 6 -6 62 6 207 45 127 34 200
26 375 -39 76 -28 141 -49 144 -46 17 17 -94 89 -190 122 -93 32 -274 41 -355
18z"/>
<path d="M2882 7690 c-58 -12 -186 -82 -190 -103 -5 -25 30 -22 88 8 87 44
163 58 275 51 55 -3 125 -13 155 -21 77 -21 122 -20 118 2 -2 11 -26 25 -68
39 -74 26 -303 40 -378 24z"/>
<path d="M5410 7656 c0 -8 7 -45 16 -83 8 -37 14 -94 12 -125 -2 -32 -2 -58
-2 -58 1 0 22 9 48 20 38 18 46 25 46 48 0 15 3 50 6 77 l5 50 -59 43 c-66 46
-72 49 -72 28z"/>
<path d="M5653 7641 c-61 -29 -62 -30 -68 -78 -3 -26 -8 -60 -10 -75 -3 -22 4
-32 48 -65 29 -22 58 -43 64 -47 10 -5 111 30 141 50 1 1 -9 35 -23 77 -14 42
-25 89 -25 105 0 21 -8 35 -25 46 -31 20 -28 21 -102 -13z"/>
<path d="M4686 7615 c-103 -26 -182 -73 -274 -161 -49 -47 -83 -87 -80 -95 5
-14 15 -18 133 -57 33 -11 89 -32 125 -48 59 -26 75 -28 175 -28 129 1 230 29
333 91 69 43 152 109 152 123 0 5 -18 15 -41 22 -25 7 -45 21 -51 34 -10 21
-79 69 -158 109 -48 25 -233 30 -314 10z m24 -60 c0 -4 -7 -20 -16 -37 -20
-40 -21 -126 -1 -165 9 -17 29 -45 44 -63 l27 -33 -64 7 c-69 7 -175 52 -207
88 -11 12 -18 35 -18 60 0 55 41 89 142 122 84 27 93 29 93 21z m130 -41 c13
-34 13 -34 -14 -34 -28 0 -51 24 -42 45 9 25 45 18 56 -11z m285 -26 c14 -6
25 -17 25 -24 0 -23 -21 -69 -42 -91 -27 -29 -42 -30 -27 -2 6 12 9 45 7 75
-5 58 -3 60 37 42z"/>
<path d="M2970 7520 c-110 -13 -191 -61 -220 -130 -7 -16 -22 -31 -36 -34 -33
-9 -33 -50 2 -72 33 -22 47 -9 35 34 -9 32 -8 34 56 82 36 28 72 50 79 50 7 0
19 3 28 6 13 5 16 -1 16 -32 0 -59 25 -153 49 -185 12 -15 21 -31 21 -34 0 -3
-21 -5 -47 -6 -27 0 -57 -4 -67 -8 -19 -7 -18 -8 5 -15 13 -4 71 -10 129 -13
168 -9 361 37 439 104 l42 36 -33 34 c-52 54 -204 151 -261 167 -69 19 -157
25 -237 16z m108 -92 c3 -24 0 -28 -23 -28 -27 0 -41 20 -31 46 10 27 51 13
54 -18z m272 -114 c0 -7 -9 -18 -20 -24 -19 -10 -20 -8 -20 37 l1 48 19 -24
c11 -13 20 -29 20 -37z"/>
<path d="M5567 7413 c-4 -3 -7 -70 -7 -149 l0 -143 59 26 c64 28 65 30 76 123
6 54 6 56 -27 79 -18 14 -47 35 -64 48 -17 12 -34 20 -37 16z"/>
<path d="M5489 7383 l-56 -25 -7 -56 c-4 -37 -3 -58 4 -60 19 -7 40 -33 47
-60 3 -15 16 -34 27 -44 43 -36 46 -27 46 127 0 80 -1 145 -2 144 -2 0 -28
-12 -59 -26z"/>
<path d="M5789 7378 c-45 -19 -47 -21 -53 -71 -11 -98 -10 -101 49 -146 30
-22 59 -41 64 -41 6 0 26 8 46 17 31 15 35 21 30 43 -10 42 -78 220 -84 219
-3 0 -27 -10 -52 -21z"/>
<path d="M5348 7332 c-16 -2 -28 -7 -28 -10 0 -6 58 -62 64 -62 6 0 5 69 -1
72 -5 2 -20 2 -35 0z"/>
<path d="M5653 7131 c-61 -29 -62 -30 -68 -78 -3 -26 -8 -60 -10 -75 -4 -23 4
-33 57 -72 67 -50 65 -50 154 -9 46 21 54 29 54 51 0 15 3 50 6 77 l5 50 -59
43 c-33 23 -64 42 -68 42 -5 -1 -37 -14 -71 -29z"/>
<path d="M5485 7068 c2 -24 7 -69 11 -101 8 -82 27 -68 37 27 8 73 7 77 -15
96 -33 28 -38 25 -33 -22z"/>
<path d="M4186 7058 c-9 -12 -16 -37 -16 -55 0 -31 19 -133 25 -133 1 0 27 11
58 25 l55 26 5 52 c4 47 1 55 -25 80 -36 34 -80 36 -102 5z"/>
<path d="M4350 6963 c0 -6 8 -17 18 -24 16 -13 16 -13 2 6 -8 11 -16 22 -17
24 -2 2 -3 0 -3 -6z"/>
<path d="M4347 6903 c-4 -3 -7 -70 -7 -149 l0 -143 60 26 c63 28 63 28 75 123
5 40 3 48 -22 71 -48 44 -99 79 -106 72z"/>
<path d="M5567 6903 c-4 -3 -7 -70 -7 -149 l0 -143 59 26 c64 28 65 30 76 123
6 54 6 56 -27 79 -18 14 -47 35 -64 48 -17 12 -34 20 -37 16z"/>
<path d="M4268 6871 c-70 -29 -71 -34 -20 -155 34 -81 62 -119 77 -105 3 4 4
69 3 146 l-3 139 -57 -25z"/>
<path d="M5523 6888 c-20 -10 -21 -15 -16 -132 5 -138 7 -146 28 -146 13 0 15
21 15 145 0 80 -1 145 -2 144 -2 0 -13 -5 -25 -11z"/>
<path d="M4510 6729 c0 -33 6 -41 57 -80 l57 -43 -45 60 c-25 32 -51 68 -57
79 -10 18 -11 16 -12 -16z"/>
<path d="M4434 6621 c-67 -31 -74 -45 -74 -137 0 -47 11 -61 81 -110 l38 -26
63 28 c35 15 66 30 69 33 4 3 10 40 13 81 l6 75 -59 43 c-32 23 -63 42 -67 42
-5 -1 -36 -14 -70 -29z"/>
<path d="M5653 6621 c-61 -29 -62 -30 -68 -78 -3 -26 -8 -60 -10 -75 -4 -23 4
-33 57 -72 67 -50 65 -50 154 -9 46 21 54 29 54 51 0 15 3 50 6 77 l5 50 -59
43 c-33 23 -64 42 -68 42 -5 -1 -37 -14 -71 -29z"/>
<path d="M5463 6476 l-38 -113 48 22 c26 13 50 24 51 26 2 2 7 38 10 79 6 68
5 76 -12 87 -19 11 -23 5 -59 -101z"/>
<path d="M4658 6498 c-5 -58 0 -65 83 -124 33 -23 39 -24 66 -12 l29 13 -87
88 -87 88 -4 -53z"/>
<path d="M4590 6369 c-30 -16 -58 -30 -61 -31 -3 -2 -8 -22 -12 -45 l-5 -43
64 0 c36 0 64 -4 64 -10 0 -6 -28 -10 -65 -10 -65 0 -65 0 -65 -29 0 -23 11
-37 55 -70 30 -22 58 -41 62 -41 4 0 36 12 70 26 62 26 73 40 73 92 0 20 -4
22 -60 22 -79 0 -77 18 3 22 58 3 62 5 65 28 2 21 -8 34 -61 73 -36 26 -66 46
-68 46 -2 -1 -29 -15 -59 -30z"/>
<path d="M5567 6393 c-4 -3 -7 -37 -7 -75 l0 -69 68 3 c63 3 67 4 70 28 2 19
-5 32 -30 50 -18 13 -47 34 -64 47 -17 12 -34 20 -37 16z"/>
<path d="M5810 6369 c-30 -16 -58 -30 -61 -31 -3 -2 -8 -22 -12 -45 l-5 -43
64 0 c36 0 64 -4 64 -10 0 -6 -28 -10 -65 -10 -65 0 -65 0 -65 -29 0 -23 11
-37 55 -70 30 -22 58 -41 62 -41 4 0 36 12 70 26 62 26 73 40 73 92 0 20 -4
22 -60 22 -79 0 -77 18 3 22 58 3 62 5 65 28 2 21 -8 34 -61 73 -36 26 -66 46
-68 46 -2 -1 -29 -15 -59 -30z"/>
<path d="M5488 6363 c-50 -23 -58 -30 -58 -54 0 -15 -3 -34 -6 -43 -5 -14 4
-16 60 -16 l66 0 0 70 c0 39 -1 70 -2 69 -2 0 -29 -12 -60 -26z"/>
<path d="M4280 6357 c0 -1 9 -31 20 -65 37 -117 21 -170 -70 -237 -70 -51 -79
-95 -21 -95 37 0 115 76 147 143 30 66 34 182 7 216 -14 16 -84 48 -83 38z"/>
<path d="M4435 6300 c26 -51 45 -58 45 -16 0 19 -46 66 -65 66 -3 0 6 -23 20
-50z"/>
<path d="M4834 6342 c-6 -4 -13 -26 -17 -49 l-5 -43 64 0 c61 0 64 1 64 24 0
16 -12 32 -38 50 -40 27 -50 30 -68 18z"/>
<path d="M5376 6274 c-4 -9 -4 -19 -1 -22 2 -3 7 3 11 12 4 9 4 19 1 22 -2 3
-7 -3 -11 -12z"/>
<path d="M3269 6233 c-18 -37 -23 -65 -24 -124 0 -71 2 -80 31 -116 36 -44 78
-62 149 -62 35 -1 70 -10 115 -33 39 -19 86 -33 118 -36 49 -4 62 0 165 52 97
49 122 58 177 60 115 6 106 3 84 27 -58 64 -131 66 -254 4 -138 -70 -193 -70
-284 0 -72 55 -78 57 -120 34 -41 -22 -55 -18 -96 26 -22 24 -25 35 -23 93 1
37 3 78 5 91 5 42 -19 33 -43 -16z"/>
<path d="M4950 6265 c0 -10 10 -15 27 -15 26 0 26 1 7 15 -25 19 -34 19 -34 0z"/>
<path d="M4810 6201 c0 -23 11 -37 55 -70 30 -22 59 -41 65 -41 6 0 10 28 10
70 l0 70 -65 0 c-65 0 -65 0 -65 -29z"/>
<path d="M4950 6161 l0 -70 60 26 c49 22 60 31 66 56 8 40 -14 57 -78 57 l-48
0 0 -69z"/>
<path d="M5335 6207 c-30 -47 -90 -58 -165 -32 -50 18 -50 18 -50 6 0 -10 104
-91 117 -91 4 0 36 12 70 26 62 26 73 40 73 92 0 29 -25 29 -45 -1z"/>
<path d="M5420 6201 c0 -23 11 -37 55 -70 30 -22 59 -41 65 -41 6 0 10 28 10
70 l0 70 -65 0 c-65 0 -65 0 -65 -29z"/>
<path d="M5560 6161 l0 -70 59 26 c60 26 71 40 71 91 0 21 -4 22 -65 22 l-65
0 0 -69z"/>
<path d="M4734 6101 c-52 -24 -62 -33 -67 -61 -14 -67 -8 -83 54 -148 l59 -63
63 27 c34 15 65 30 68 33 4 3 10 40 13 81 l6 75 -59 43 c-32 23 -63 42 -67 42
-5 -1 -36 -14 -70 -29z"/>
<path d="M5043 6101 c-61 -29 -62 -30 -68 -78 -3 -26 -8 -60 -10 -75 -4 -23 4
-33 57 -72 67 -50 65 -50 154 -9 46 21 54 29 54 51 0 15 3 50 6 77 l5 50 -59
43 c-33 23 -64 42 -68 42 -5 -1 -37 -14 -71 -29z"/>
<path d="M5343 6101 c-61 -29 -62 -30 -68 -78 -3 -26 -8 -60 -10 -75 -4 -23 4
-33 57 -72 67 -50 65 -50 154 -9 46 21 54 29 54 51 0 15 3 50 6 77 l5 50 -59
43 c-33 23 -64 42 -68 42 -5 -1 -37 -14 -71 -29z"/>
<path d="M5653 6101 c-61 -29 -62 -30 -68 -78 -3 -26 -8 -60 -10 -75 -4 -23 4
-33 57 -72 67 -50 65 -50 154 -9 46 21 54 29 54 51 0 15 3 50 6 77 l5 50 -59
43 c-33 23 -64 42 -68 42 -5 -1 -37 -14 -71 -29z"/>
<path d="M4580 6056 c42 -58 50 -64 50 -34 0 16 -14 33 -42 53 l-42 30 34 -49z"/>
<path d="M4957 5873 c-4 -3 -7 -70 -7 -149 l0 -143 59 26 c64 28 65 30 76 123
6 54 6 56 -27 79 -18 14 -47 35 -64 48 -17 12 -34 20 -37 16z"/>
<path d="M5200 5849 c-30 -16 -58 -30 -62 -31 -4 -2 -10 -37 -14 -78 l-6 -76
55 -42 c31 -23 60 -42 64 -42 4 0 36 12 70 26 66 28 67 30 78 124 l6 55 -64
48 c-36 26 -66 46 -68 46 -2 -1 -29 -15 -59 -30z"/>
<path d="M5567 5873 c-4 -3 -7 -70 -7 -149 l0 -143 59 26 c64 28 65 30 76 123
6 54 6 56 -27 79 -18 14 -47 35 -64 48 -17 12 -34 20 -37 16z"/>
<path d="M4879 5843 c-56 -25 -56 -25 -63 -76 -11 -98 -10 -101 49 -146 30
-22 59 -41 65 -41 6 0 10 51 10 145 0 80 -1 145 -2 144 -2 0 -28 -12 -59 -26z"/>
<path d="M5489 5843 c-56 -25 -56 -25 -63 -76 -11 -98 -10 -101 49 -146 30
-22 59 -41 65 -41 6 0 10 51 10 145 0 80 -1 145 -2 144 -2 0 -28 -12 -59 -26z"/>
<path d="M4728 5670 c-21 -33 -33 -60 -28 -60 14 0 60 22 60 29 1 3 5 25 9 49
5 23 6 42 2 42 -3 -1 -23 -28 -43 -60z"/>
<path d="M4733 5591 c-61 -29 -62 -30 -68 -78 -3 -26 -8 -60 -10 -75 -4 -23 4
-33 57 -72 67 -50 65 -50 154 -9 46 21 54 29 54 51 0 15 3 50 6 77 l5 50 -59
43 c-33 23 -64 42 -68 42 -5 -1 -37 -14 -71 -29z"/>
<path d="M5043 5591 c-61 -29 -62 -30 -68 -78 -3 -26 -8 -60 -10 -75 -4 -23 4
-33 57 -72 67 -50 65 -50 154 -9 46 21 54 29 54 51 0 15 3 50 6 77 l5 50 -59
43 c-33 23 -64 42 -68 42 -5 -1 -37 -14 -71 -29z"/>
<path d="M5343 5591 c-61 -29 -62 -30 -68 -78 -3 -26 -8 -60 -10 -75 -4 -23 4
-33 57 -72 67 -50 65 -50 154 -9 46 21 54 29 54 51 0 15 3 50 6 77 l5 50 -59
43 c-33 23 -64 42 -68 42 -5 -1 -37 -14 -71 -29z"/>
<path d="M5653 5591 c-61 -29 -62 -30 -68 -78 -3 -26 -8 -60 -10 -75 -4 -23 4
-33 57 -72 67 -50 65 -50 154 -9 46 21 54 29 54 51 0 15 3 50 6 77 l5 50 -59
43 c-33 23 -64 42 -68 42 -5 -1 -37 -14 -71 -29z"/>
<path d="M4547 5428 c-43 -55 -76 -102 -73 -105 2 -2 35 9 73 26 l68 30 8 67
c4 38 6 71 5 75 -2 5 -38 -37 -81 -93z"/>
<path d="M3765 5465 c-107 -32 -141 -36 -201 -26 -115 18 -178 -8 -259 -108
-50 -62 -94 -100 -150 -129 -19 -10 -18 -11 10 -22 17 -7 60 -12 97 -12 l67 0
-5 -27 c-5 -21 4 -40 40 -88 61 -81 117 -130 185 -162 49 -23 69 -26 156 -26
116 0 156 14 327 111 123 69 168 102 168 120 0 23 -17 17 -154 -55 -137 -73
-263 -121 -315 -121 l-31 0 5 53 6 52 -61 44 -60 43 -43 -17 c-23 -9 -56 -25
-74 -35 -27 -16 -33 -17 -44 -4 -10 12 -2 19 49 40 61 27 72 41 72 92 l0 22
253 1 c298 1 554 12 581 24 15 7 13 -1 -12 -38 -23 -32 -32 -57 -32 -86 l0
-40 59 26 c64 28 65 30 76 125 8 70 3 74 -115 77 -95 3 -143 19 -220 76 -26
19 -78 49 -115 67 -81 38 -181 47 -260 23z m45 -105 c60 -45 59 -45 154 1 55
27 61 28 83 14 13 -9 23 -18 23 -21 0 -4 -6 -2 -13 4 -9 8 -31 1 -82 -23 -92
-45 -124 -45 -186 1 -51 37 -53 37 -62 -16 -4 -21 -5 -20 -6 7 l-1 32 -66 -29
c-87 -39 -115 -38 -176 7 -41 29 -47 38 -34 45 12 7 29 -1 63 -27 52 -40 54
-40 153 10 36 19 72 34 81 34 8 1 40 -17 69 -39z m309 -54 c-3 -3 -11 5 -18
17 -13 21 -12 21 5 5 10 -10 16 -20 13 -22z"/>
<path d="M4590 5339 c-30 -16 -58 -30 -62 -31 -4 -2 -10 -37 -14 -78 l-6 -76
55 -42 c31 -23 60 -42 64 -42 4 0 36 12 70 26 66 28 67 30 78 124 l6 55 -64
48 c-36 26 -66 46 -68 46 -2 -1 -29 -15 -59 -30z"/>
<path d="M4957 5363 c-4 -3 -7 -70 -7 -149 l0 -143 59 26 c64 28 65 30 76 123
6 54 6 56 -27 79 -18 14 -47 35 -64 48 -17 12 -34 20 -37 16z"/>
<path d="M5200 5339 c-30 -16 -58 -30 -62 -31 -4 -2 -10 -37 -14 -78 l-6 -76
55 -42 c31 -23 60 -42 64 -42 4 0 36 12 70 26 66 28 67 30 78 124 l6 55 -64
48 c-36 26 -66 46 -68 46 -2 -1 -29 -15 -59 -30z"/>
<path d="M5567 5363 c-4 -3 -7 -70 -7 -149 l0 -143 59 26 c64 28 65 30 76 123
6 54 6 56 -27 79 -18 14 -47 35 -64 48 -17 12 -34 20 -37 16z"/>
<path d="M4879 5333 c-56 -25 -56 -25 -63 -76 -11 -98 -10 -101 49 -146 30
-22 59 -41 65 -41 6 0 10 51 10 145 0 80 -1 145 -2 144 -2 0 -28 -12 -59 -26z"/>
<path d="M5489 5333 c-56 -25 -56 -25 -63 -76 -11 -98 -10 -101 49 -146 30
-22 59 -41 65 -41 6 0 10 51 10 145 0 80 -1 145 -2 144 -2 0 -28 -12 -59 -26z"/>
<path d="M4312 5105 c-15 -33 -15 -35 3 -35 10 0 15 10 15 30 0 37 -3 37 -18
5z"/>
<path d="M4433 5081 c-61 -29 -62 -30 -68 -78 -3 -26 -8 -60 -10 -75 -4 -23 4
-33 57 -72 67 -50 65 -50 154 -9 46 21 54 29 54 51 0 15 3 50 6 77 l5 50 -59
43 c-33 23 -64 42 -68 42 -5 -1 -37 -14 -71 -29z"/>
<path d="M4733 5081 c-61 -29 -62 -30 -68 -78 -3 -26 -8 -60 -10 -75 -4 -23 4
-33 57 -72 67 -50 65 -50 154 -9 46 21 54 29 54 51 0 15 3 50 6 77 l5 50 -59
43 c-33 23 -64 42 -68 42 -5 -1 -37 -14 -71 -29z"/>
<path d="M5043 5081 c-61 -29 -62 -30 -68 -78 -3 -26 -8 -60 -10 -75 -4 -23 4
-33 57 -72 67 -50 65 -50 154 -9 46 21 54 29 54 51 0 15 3 50 6 77 l5 50 -59
43 c-33 23 -64 42 -68 42 -5 -1 -37 -14 -71 -29z"/>
<path d="M5343 5081 c-61 -29 -62 -30 -68 -78 -3 -26 -8 -60 -10 -75 -4 -23 4
-33 57 -72 67 -50 65 -50 154 -9 46 21 54 29 54 51 0 15 3 50 6 77 l5 50 -59
43 c-33 23 -64 42 -68 42 -5 -1 -37 -14 -71 -29z"/>
<path d="M5897 5053 c-4 -3 -7 -11 -7 -17 0 -6 5 -5 12 2 6 6 9 14 7 17 -3 3
-9 2 -12 -2z"/>
<path d="M4272 5037 c-18 -22 -113 -219 -108 -224 4 -5 124 44 137 56 4 3 10
40 13 81 6 68 5 76 -13 87 -15 9 -21 9 -29 0z"/>
<path d="M4347 4853 c-4 -3 -7 -70 -7 -149 l0 -143 59 26 c64 28 65 30 76 123
6 54 6 56 -27 79 -18 14 -47 35 -64 48 -17 12 -34 20 -37 16z"/>
<path d="M4590 4829 c-30 -16 -58 -30 -62 -31 -4 -2 -10 -37 -14 -78 l-6 -76
55 -42 c31 -23 60 -42 64 -42 4 0 36 12 70 26 66 28 67 30 78 124 l6 55 -64
48 c-36 26 -66 46 -68 46 -2 -1 -29 -15 -59 -30z"/>
<path d="M5200 4829 c-30 -16 -58 -30 -62 -31 -4 -2 -10 -37 -14 -78 l-6 -76
55 -42 c31 -23 60 -42 64 -42 4 0 36 12 70 26 66 28 67 30 78 124 l6 55 -64
48 c-36 26 -66 46 -68 46 -2 -1 -29 -15 -59 -30z"/>
<path d="M4269 4823 c-56 -25 -56 -25 -63 -76 -11 -98 -10 -101 49 -146 30
-22 59 -41 65 -41 6 0 10 51 10 145 0 80 -1 145 -2 144 -2 0 -28 -12 -59 -26z"/>
<path d="M4122 4733 c-37 -86 -62 -153 -57 -153 3 0 23 7 45 16 43 17 51 37
54 131 1 62 -17 64 -42 6z"/>
<path d="M3736 4668 c-69 -40 -54 -47 54 -25 108 21 119 37 33 44 -37 3 -57
-1 -87 -19z"/>
<path d="M3997 4386 c-5 -15 -6 -31 -3 -34 8 -8 18 25 14 45 -3 13 -6 10 -11
-11z"/>
<path d="M5200 4319 c-30 -16 -58 -30 -62 -31 -4 -2 -10 -37 -14 -78 l-6 -76
55 -42 c31 -23 60 -42 64 -42 4 0 36 12 70 26 66 28 67 30 78 124 l6 55 -64
48 c-36 26 -66 46 -68 46 -2 -1 -29 -15 -59 -30z"/>
<path d="M4878 3803 c-50 -23 -58 -30 -58 -54 0 -15 -3 -34 -6 -43 -5 -14 4
-16 60 -16 l66 0 0 70 c0 39 -1 70 -2 69 -2 0 -29 -12 -60 -26z"/>
<path d="M6263 4571 c-61 -29 -62 -30 -68 -78 -3 -26 -8 -60 -10 -75 -4 -23 4
-33 57 -72 67 -50 65 -50 154 -9 46 21 54 29 54 51 0 15 3 50 6 77 l5 50 -59
43 c-33 23 -64 42 -68 42 -5 -1 -37 -14 -71 -29z"/>
<path d="M6177 4343 c-4 -3 -7 -70 -7 -149 l0 -143 59 26 c64 28 65 30 76 123
6 54 6 56 -27 79 -18 14 -47 35 -64 48 -17 12 -34 20 -37 16z"/>
<path d="M6420 4319 c-30 -16 -58 -30 -62 -31 -4 -2 -10 -37 -14 -78 l-6 -76
55 -42 c31 -23 60 -42 64 -42 4 0 36 12 70 26 66 28 67 30 78 124 l6 55 -64
48 c-36 26 -66 46 -68 46 -2 -1 -29 -15 -59 -30z"/>
<path d="M6099 4313 c-56 -25 -56 -25 -63 -76 -11 -98 -10 -101 49 -146 30
-22 59 -41 65 -41 6 0 10 51 10 145 0 80 -1 145 -2 144 -2 0 -28 -12 -59 -26z"/>
<path d="M6263 4061 c-61 -29 -62 -30 -68 -78 -3 -26 -8 -60 -10 -75 -4 -23 4
-33 57 -72 67 -50 65 -50 154 -9 46 21 54 29 54 51 0 15 3 50 6 77 l5 50 -59
43 c-33 23 -64 42 -68 42 -5 -1 -37 -14 -71 -29z"/>
<path d="M6177 3833 c-4 -3 -7 -37 -7 -75 l0 -69 68 3 c63 3 67 4 70 28 2 19
-5 32 -30 50 -18 13 -47 34 -64 47 -17 12 -34 20 -37 16z"/>
<path d="M6098 3803 c-50 -23 -58 -30 -58 -54 0 -15 -3 -34 -6 -43 -5 -14 4
-16 60 -16 l66 0 0 70 c0 39 -1 70 -2 69 -2 0 -29 -12 -60 -26z"/>
<path d="M6030 3641 c0 -23 11 -37 55 -70 30 -22 59 -41 65 -41 6 0 10 28 10
70 l0 70 -65 0 c-65 0 -65 0 -65 -29z"/>
<path d="M6170 3601 l0 -70 59 26 c60 26 71 40 71 91 0 21 -4 22 -65 22 l-65
0 0 -69z"/>
<path d="M3370 1249 c-30 -16 -58 -30 -62 -31 -4 -2 -10 -37 -14 -78 l-6 -76
55 -42 c31 -23 60 -42 64 -42 4 0 36 12 70 26 66 28 67 30 78 124 l6 55 -64
48 c-36 26 -66 46 -68 46 -2 -1 -29 -15 -59 -30z"/>
<path d="M3213 991 c-61 -29 -62 -30 -68 -78 -3 -26 -8 -60 -10 -75 -4 -23 4
-33 57 -72 67 -50 65 -50 154 -9 46 21 54 29 54 51 0 15 3 50 6 77 l5 50 -59
43 c-33 23 -64 42 -68 42 -5 -1 -37 -14 -71 -29z"/>
<path d="M3127 763 c-4 -3 -7 -37 -7 -75 l0 -69 68 3 c63 3 67 4 70 28 2 19
-5 32 -30 50 -18 13 -47 34 -64 47 -17 12 -34 20 -37 16z"/>
<path d="M3048 733 c-50 -23 -58 -30 -58 -54 0 -15 -3 -34 -6 -43 -5 -14 4
-16 60 -16 l66 0 0 70 c0 39 -1 70 -2 69 -2 0 -29 -12 -60 -26z"/>
<path d="M2980 571 c0 -23 11 -37 55 -70 30 -22 59 -41 65 -41 6 0 10 28 10
70 l0 70 -65 0 c-65 0 -65 0 -65 -29z"/>
<path d="M2517 3313 c-4 -3 -7 -70 -7 -149 l0 -143 59 26 c64 28 65 30 76 123
6 54 6 56 -27 79 -18 14 -47 35 -64 48 -17 12 -34 20 -37 16z"/>
<path d="M2439 3283 c-56 -25 -56 -25 -63 -76 -11 -98 -10 -101 49 -146 30
-22 59 -41 65 -41 6 0 10 51 10 145 0 80 -1 145 -2 144 -2 0 -28 -12 -59 -26z"/>
<path d="M6873 3541 c-61 -29 -62 -30 -68 -78 -3 -26 -8 -60 -10 -75 -4 -23 4
-33 57 -72 67 -50 65 -50 154 -9 46 21 54 29 54 51 0 15 3 50 6 77 l5 50 -59
43 c-33 23 -64 42 -68 42 -5 -1 -37 -14 -71 -29z"/>
<path d="M7173 3031 c-61 -29 -62 -30 -68 -78 -3 -26 -8 -60 -10 -75 -4 -23 4
-33 57 -72 67 -50 65 -50 154 -9 46 21 54 29 54 51 0 15 3 50 6 77 l5 50 -59
43 c-33 23 -64 42 -68 42 -5 -1 -37 -14 -71 -29z"/>
<path d="M7483 3031 c-61 -29 -62 -30 -68 -78 -3 -26 -8 -60 -10 -75 -4 -23 4
-33 57 -72 67 -50 65 -50 154 -9 46 21 54 29 54 51 0 15 3 50 6 77 l5 50 -59
43 c-33 23 -64 42 -68 42 -5 -1 -37 -14 -71 -29z"/>
<path d="M7030 2779 c-30 -16 -58 -30 -62 -31 -4 -2 -10 -37 -14 -78 l-6 -76
55 -42 c31 -23 60 -42 64 -42 4 0 36 12 70 26 66 28 67 30 78 124 l6 55 -64
48 c-36 26 -66 46 -68 46 -2 -1 -29 -15 -59 -30z"/>
<path d="M7397 2803 c-4 -3 -7 -70 -7 -149 l0 -143 59 26 c64 28 65 30 76 123
6 54 6 56 -27 79 -18 14 -47 35 -64 48 -17 12 -34 20 -37 16z"/>
<path d="M7640 2779 c-30 -16 -58 -30 -62 -31 -4 -2 -10 -37 -14 -78 l-6 -76
55 -42 c31 -23 60 -42 64 -42 4 0 36 12 70 26 66 28 67 30 78 124 l6 55 -64
48 c-36 26 -66 46 -68 46 -2 -1 -29 -15 -59 -30z"/>
<path d="M7319 2773 c-56 -25 -56 -25 -63 -76 -11 -98 -10 -101 49 -146 30
-22 59 -41 65 -41 6 0 10 51 10 145 0 80 -1 145 -2 144 -2 0 -28 -12 -59 -26z"/>
<path d="M7929 2773 c-56 -25 -56 -25 -63 -76 -11 -98 -10 -101 49 -146 30
-22 59 -41 65 -41 6 0 10 51 10 145 0 80 -1 145 -2 144 -2 0 -28 -12 -59 -26z"/>
<path d="M7173 2521 c-61 -29 -62 -30 -68 -78 -3 -26 -8 -60 -10 -75 -4 -23 4
-33 57 -72 67 -50 65 -50 154 -9 46 21 54 29 54 51 0 15 3 50 6 77 l5 50 -59
43 c-33 23 -64 42 -68 42 -5 -1 -37 -14 -71 -29z"/>
<path d="M8007 2293 c-4 -3 -7 -70 -7 -149 l0 -143 59 26 c64 28 65 30 76 123
6 54 6 56 -27 79 -18 14 -47 35 -64 48 -17 12 -34 20 -37 16z"/>
<path d="M8250 2269 c-30 -16 -58 -30 -62 -31 -4 -2 -10 -37 -14 -78 l-6 -76
55 -42 c31 -23 60 -42 64 -42 4 0 36 12 70 26 66 28 67 30 78 124 l6 55 -64
48 c-36 26 -66 46 -68 46 -2 -1 -29 -15 -59 -30z"/>
<path d="M7929 2263 c-56 -25 -56 -25 -63 -76 -11 -98 -10 -101 49 -146 30
-22 59 -41 65 -41 6 0 10 51 10 145 0 80 -1 145 -2 144 -2 0 -28 -12 -59 -26z"/>
<path d="M7783 2011 c-61 -29 -62 -30 -68 -78 -3 -26 -8 -60 -10 -75 -4 -23 4
-33 57 -72 67 -50 65 -50 154 -9 46 21 54 29 54 51 0 15 3 50 6 77 l5 50 -59
43 c-33 23 -64 42 -68 42 -5 -1 -37 -14 -71 -29z"/>
<path d="M8093 2011 c-61 -29 -62 -30 -68 -78 -3 -26 -8 -60 -10 -75 -4 -23 4
-33 57 -72 67 -50 65 -50 154 -9 46 21 54 29 54 51 0 15 3 50 6 77 l5 50 -59
43 c-33 23 -64 42 -68 42 -5 -1 -37 -14 -71 -29z"/>
<path d="M8393 2011 c-61 -29 -62 -30 -68 -78 -3 -26 -8 -60 -10 -75 -4 -23 4
-33 57 -72 67 -50 65 -50 154 -9 46 21 54 29 54 51 0 15 3 50 6 77 l5 50 -59
43 c-33 23 -64 42 -68 42 -5 -1 -37 -14 -71 -29z"/>
<path d="M7640 1759 c-30 -16 -58 -30 -62 -31 -4 -2 -10 -37 -14 -78 l-6 -76
55 -42 c31 -23 60 -42 64 -42 4 0 36 12 70 26 66 28 67 30 78 124 l6 55 -64
48 c-36 26 -66 46 -68 46 -2 -1 -29 -15 -59 -30z"/>
<path d="M8007 1783 c-4 -3 -7 -70 -7 -149 l0 -143 59 26 c64 28 65 30 76 123
6 54 6 56 -27 79 -18 14 -47 35 -64 48 -17 12 -34 20 -37 16z"/>
<path d="M8250 1759 c-30 -16 -58 -30 -62 -31 -4 -2 -10 -37 -14 -78 l-6 -76
55 -42 c31 -23 60 -42 64 -42 4 0 36 12 70 26 66 28 67 30 78 124 l6 55 -64
48 c-36 26 -66 46 -68 46 -2 -1 -29 -15 -59 -30z"/>
<path d="M7929 1753 c-56 -25 -56 -25 -63 -76 -11 -98 -10 -101 49 -146 30
-22 59 -41 65 -41 6 0 10 51 10 145 0 80 -1 145 -2 144 -2 0 -28 -12 -59 -26z"/>
<path d="M8539 1753 c-56 -25 -56 -25 -63 -76 -11 -98 -10 -101 49 -146 30
-22 59 -41 65 -41 6 0 10 51 10 145 0 80 -1 145 -2 144 -2 0 -28 -12 -59 -26z"/>
<path d="M7783 1501 c-61 -29 -62 -30 -68 -78 -3 -26 -8 -60 -10 -75 -4 -23 4
-33 57 -72 67 -50 65 -50 154 -9 46 21 54 29 54 51 0 15 3 50 6 77 l5 50 -59
43 c-33 23 -64 42 -68 42 -5 -1 -37 -14 -71 -29z"/>
<path d="M8093 1501 c-61 -29 -62 -30 -68 -78 -3 -26 -8 -60 -10 -75 -4 -23 4
-33 57 -72 67 -50 65 -50 154 -9 46 21 54 29 54 51 0 15 3 50 6 77 l5 50 -59
43 c-33 23 -64 42 -68 42 -5 -1 -37 -14 -71 -29z"/>
<path d="M8393 1501 c-61 -29 -62 -30 -68 -78 -3 -26 -8 -60 -10 -75 -4 -23 4
-33 57 -72 67 -50 65 -50 154 -9 46 21 54 29 54 51 0 15 3 50 6 77 l5 50 -59
43 c-33 23 -64 42 -68 42 -5 -1 -37 -14 -71 -29z"/>
<path d="M7640 1249 c-30 -16 -58 -30 -62 -31 -4 -2 -10 -37 -14 -78 l-6 -76
55 -42 c31 -23 60 -42 64 -42 4 0 36 12 70 26 66 28 67 30 78 124 l6 55 -64
48 c-36 26 -66 46 -68 46 -2 -1 -29 -15 -59 -30z"/>
<path d="M8007 1273 c-4 -3 -7 -70 -7 -149 l0 -143 59 26 c64 28 65 30 76 123
6 54 6 56 -27 79 -18 14 -47 35 -64 48 -17 12 -34 20 -37 16z"/>
<path d="M8250 1249 c-30 -16 -58 -30 -62 -31 -4 -2 -10 -37 -14 -78 l-6 -76
55 -42 c31 -23 60 -42 64 -42 4 0 36 12 70 26 66 28 67 30 78 124 l6 55 -64
48 c-36 26 -66 46 -68 46 -2 -1 -29 -15 -59 -30z"/>
<path d="M8617 1273 c-4 -3 -7 -70 -7 -149 l0 -143 59 26 c64 28 65 30 76 123
6 54 6 56 -27 79 -18 14 -47 35 -64 48 -17 12 -34 20 -37 16z"/>
<path d="M7929 1243 c-56 -25 -56 -25 -63 -76 -11 -98 -10 -101 49 -146 30
-22 59 -41 65 -41 6 0 10 51 10 145 0 80 -1 145 -2 144 -2 0 -28 -12 -59 -26z"/>
<path d="M8539 1243 c-56 -25 -56 -25 -63 -76 -11 -98 -10 -101 49 -146 30
-22 59 -41 65 -41 6 0 10 51 10 145 0 80 -1 145 -2 144 -2 0 -28 -12 -59 -26z"/>
<path d="M7483 991 c-61 -29 -62 -30 -68 -78 -3 -26 -8 -60 -10 -75 -4 -23 4
-33 57 -72 67 -50 65 -50 154 -9 46 21 54 29 54 51 0 15 3 50 6 77 l5 50 -59
43 c-33 23 -64 42 -68 42 -5 -1 -37 -14 -71 -29z"/>
<path d="M7783 991 c-61 -29 -62 -30 -68 -78 -3 -26 -8 -60 -10 -75 -4 -23 4
-33 57 -72 67 -50 65 -50 154 -9 46 21 54 29 54 51 0 15 3 50 6 77 l5 50 -59
43 c-33 23 -64 42 -68 42 -5 -1 -37 -14 -71 -29z"/>
<path d="M8093 991 c-61 -29 -62 -30 -68 -78 -3 -26 -8 -60 -10 -75 -4 -23 4
-33 57 -72 67 -50 65 -50 154 -9 46 21 54 29 54 51 0 15 3 50 6 77 l5 50 -59
43 c-33 23 -64 42 -68 42 -5 -1 -37 -14 -71 -29z"/>
<path d="M8393 991 c-61 -29 -62 -30 -68 -78 -3 -26 -8 -60 -10 -75 -4 -23 4
-33 57 -72 67 -50 65 -50 154 -9 46 21 54 29 54 51 0 15 3 50 6 77 l5 50 -59
43 c-33 23 -64 42 -68 42 -5 -1 -37 -14 -71 -29z"/>
<path d="M7397 763 c-4 -3 -7 -37 -7 -75 l0 -69 68 3 c63 3 67 4 70 28 2 19
-5 32 -30 50 -18 13 -47 34 -64 47 -17 12 -34 20 -37 16z"/>
<path d="M7640 739 c-30 -16 -58 -30 -61 -31 -3 -2 -8 -22 -12 -45 l-5 -43 64
0 c36 0 64 -4 64 -10 0 -6 -28 -10 -65 -10 -65 0 -65 0 -65 -29 0 -23 11 -37
55 -70 30 -22 58 -41 62 -41 4 0 36 12 70 26 62 26 73 40 73 92 0 20 -4 22
-60 22 -79 0 -77 18 3 22 58 3 62 5 65 28 2 21 -8 34 -61 73 -36 26 -66 46
-68 46 -2 -1 -29 -15 -59 -30z"/>
<path d="M8007 763 c-4 -3 -7 -37 -7 -75 l0 -69 68 3 c63 3 67 4 70 28 2 19
-5 32 -30 50 -18 13 -47 34 -64 47 -17 12 -34 20 -37 16z"/>
<path d="M8250 739 c-30 -16 -58 -30 -61 -31 -3 -2 -8 -22 -12 -45 l-5 -43 64
0 c36 0 64 -4 64 -10 0 -6 -28 -10 -65 -10 -65 0 -65 0 -65 -29 0 -23 11 -37
55 -70 30 -22 58 -41 62 -41 4 0 36 12 70 26 62 26 73 40 73 92 0 20 -4 22
-60 22 -79 0 -77 18 3 22 58 3 62 5 65 28 2 21 -8 34 -61 73 -36 26 -66 46
-68 46 -2 -1 -29 -15 -59 -30z"/>
<path d="M8617 763 c-4 -3 -7 -37 -7 -75 l0 -69 68 3 c63 3 67 4 70 28 2 19
-5 32 -30 50 -18 13 -47 34 -64 47 -17 12 -34 20 -37 16z"/>
<path d="M7318 733 c-50 -23 -58 -30 -58 -54 0 -15 -3 -34 -6 -43 -5 -14 4
-16 60 -16 l66 0 0 70 c0 39 -1 70 -2 69 -2 0 -29 -12 -60 -26z"/>
<path d="M7928 733 c-50 -23 -58 -30 -58 -54 0 -15 -3 -34 -6 -43 -5 -14 4
-16 60 -16 l66 0 0 70 c0 39 -1 70 -2 69 -2 0 -29 -12 -60 -26z"/>
<path d="M8538 733 c-50 -23 -58 -30 -58 -54 0 -15 -3 -34 -6 -43 -5 -14 4
-16 60 -16 l66 0 0 70 c0 39 -1 70 -2 69 -2 0 -29 -12 -60 -26z"/>
<path d="M7250 571 c0 -23 11 -37 55 -70 30 -22 59 -41 65 -41 6 0 10 28 10
70 l0 70 -65 0 c-65 0 -65 0 -65 -29z"/>
<path d="M7390 531 l0 -70 59 26 c60 26 71 40 71 91 0 21 -4 22 -65 22 l-65 0
0 -69z"/>
<path d="M7860 571 c0 -23 11 -37 55 -70 30 -22 59 -41 65 -41 6 0 10 28 10
70 l0 70 -65 0 c-65 0 -65 0 -65 -29z"/>
<path d="M8000 531 l0 -70 59 26 c60 26 71 40 71 91 0 21 -4 22 -65 22 l-65 0
0 -69z"/>
<path d="M8470 571 c0 -23 11 -37 55 -70 30 -22 59 -41 65 -41 6 0 10 28 10
70 l0 70 -65 0 c-65 0 -65 0 -65 -29z"/>
<path d="M8610 531 l0 -70 59 26 c60 26 71 40 71 91 0 21 -4 22 -65 22 l-65 0
0 -69z"/>
<path d="M7483 471 c-61 -29 -62 -30 -68 -78 -3 -26 -8 -60 -10 -75 -4 -23 4
-33 57 -72 67 -50 65 -50 154 -9 46 21 54 29 54 51 0 15 3 50 6 77 l5 50 -59
43 c-33 23 -64 42 -68 42 -5 -1 -37 -14 -71 -29z"/>
<path d="M7783 471 c-61 -29 -62 -30 -68 -78 -3 -26 -8 -60 -10 -75 -4 -23 4
-33 57 -72 67 -50 65 -50 154 -9 46 21 54 29 54 51 0 15 3 50 6 77 l5 50 -59
43 c-33 23 -64 42 -68 42 -5 -1 -37 -14 -71 -29z"/>
<path d="M8093 471 c-61 -29 -62 -30 -68 -78 -3 -26 -8 -60 -10 -75 -4 -23 4
-33 57 -72 67 -50 65 -50 154 -9 46 21 54 29 54 51 0 15 3 50 6 77 l5 50 -59
43 c-33 23 -64 42 -68 42 -5 -1 -37 -14 -71 -29z"/>
<path d="M8393 471 c-61 -29 -62 -30 -68 -78 -3 -26 -8 -60 -10 -75 -4 -23 4
-33 57 -72 67 -50 65 -50 154 -9 46 21 54 29 54 51 0 15 3 50 6 77 l5 50 -59
43 c-33 23 -64 42 -68 42 -5 -1 -37 -14 -71 -29z"/>
<path d="M8703 471 c-61 -29 -62 -30 -68 -78 -3 -26 -8 -60 -10 -75 -4 -23 4
-33 57 -72 67 -50 65 -50 154 -9 46 21 54 29 54 51 0 15 3 50 6 77 l5 50 -59
43 c-33 23 -64 42 -68 42 -5 -1 -37 -14 -71 -29z"/>
<path d="M7397 243 c-4 -3 -7 -57 -7 -120 l0 -113 59 0 c67 0 66 -1 76 90 6
54 5 56 -27 79 -18 14 -47 35 -64 48 -17 12 -34 20 -37 16z"/>
<path d="M7633 217 l-62 -31 -6 -73 c-10 -102 -9 -103 131 -103 127 0 119 -6
129 90 l6 55 -64 48 c-36 26 -66 46 -68 45 -2 -1 -32 -15 -66 -31z"/>
<path d="M8007 243 c-4 -3 -7 -57 -7 -120 l0 -113 59 0 c67 0 66 -1 76 90 6
54 5 56 -27 79 -18 14 -47 35 -64 48 -17 12 -34 20 -37 16z"/>
<path d="M8243 217 l-62 -31 -6 -73 c-10 -102 -9 -103 131 -103 127 0 119 -6
129 90 l6 55 -64 48 c-36 26 -66 46 -68 45 -2 -1 -32 -15 -66 -31z"/>
<path d="M8617 243 c-4 -3 -7 -55 -7 -115 l0 -108 59 0 c33 0 62 3 64 8 3 4 8
34 12 67 6 60 6 61 -27 84 -18 14 -47 35 -64 48 -17 12 -34 20 -37 16z"/>
<path d="M8853 217 l-62 -31 -6 -72 c-4 -40 -4 -77 -1 -83 8 -13 242 -16 249
-4 3 5 8 35 12 68 l6 60 -64 48 c-36 26 -66 46 -68 45 -2 -1 -32 -15 -66 -31z"/>
<path d="M7318 213 l-57 -25 -6 -74 c-9 -93 -2 -104 71 -104 l54 0 0 115 c0
63 -1 115 -2 114 -2 0 -29 -12 -60 -26z"/>
<path d="M7928 213 l-57 -25 -6 -74 c-9 -93 -2 -104 71 -104 l54 0 0 115 c0
63 -1 115 -2 114 -2 0 -29 -12 -60 -26z"/>
<path d="M8538 213 l-57 -25 -6 -73 c-4 -41 -4 -78 -1 -84 4 -6 34 -11 67 -11
l59 0 0 110 c0 61 -1 110 -2 109 -2 0 -29 -12 -60 -26z"/>
</g>
</svg>
