<svg xmlns="http://www.w3.org/2000/svg" xmlns:xlink="http://www.w3.org/1999/xlink" viewBox="0 0 1200.17 1200.14"><defs><style>.cls-1{fill:none;}.cls-2{opacity:0.1;}.cls-3{fill:url(#hexagone10);}.cls-4{fill:url(#hexagone10-5);}.cls-5{fill:url(#hexagone10-7);}.cls-6{fill:url(#hexagone10-9);}.cls-7{fill:url(#hexagone10-11);}</style><pattern id="hexagone10" data-name="hexagone10" width="30.5" height="49.5" patternTransform="translate(-14.38 -4.63) scale(1 1.03)" patternUnits="userSpaceOnUse" viewBox="0 0 30.5 49.5"><rect class="cls-1" width="30.5" height="49.5"/><polygon class="cls-2" points="43.02 58.62 28.77 64.69 16.25 55.57 17.98 40.38 32.23 34.31 44.75 43.43 43.02 58.62"/><polygon class="cls-2" points="12.52 58.62 -1.73 64.69 -14.25 55.57 -12.52 40.38 1.73 34.31 14.25 43.43 12.52 58.62"/><polygon class="cls-2" points="27.77 33.87 13.52 39.94 1 30.82 2.73 15.63 16.98 9.56 29.5 18.68 27.77 33.87"/><polygon class="cls-2" points="43.02 9.12 28.77 15.19 16.25 6.07 17.98 -9.12 32.23 -15.19 44.75 -6.07 43.02 9.12"/><polygon class="cls-2" points="12.52 9.12 -1.73 15.19 -14.25 6.07 -12.52 -9.12 1.73 -15.19 14.25 -6.07 12.52 9.12"/></pattern><pattern id="hexagone10-5" data-name="hexagone10" width="30.5" height="49.5" patternTransform="translate(-14.38 -4.97) scale(1 1.03)" patternUnits="userSpaceOnUse" viewBox="0 0 30.5 49.5"><rect class="cls-1" width="30.5" height="49.5"/><polygon class="cls-2" points="43.02 58.62 28.77 64.69 16.25 55.57 17.98 40.38 32.23 34.31 44.75 43.43 43.02 58.62"/><polygon class="cls-2" points="12.52 58.62 -1.73 64.69 -14.25 55.57 -12.52 40.38 1.73 34.31 14.25 43.43 12.52 58.62"/><polygon class="cls-2" points="27.77 33.87 13.52 39.94 1 30.82 2.73 15.63 16.98 9.56 29.5 18.68 27.77 33.87"/><polygon class="cls-2" points="43.02 9.12 28.77 15.19 16.25 6.07 17.98 -9.12 32.23 -15.19 44.75 -6.07 43.02 9.12"/><polygon class="cls-2" points="12.52 9.12 -1.73 15.19 -14.25 6.07 -12.52 -9.12 1.73 -15.19 14.25 -6.07 12.52 9.12"/></pattern><pattern id="hexagone10-7" data-name="hexagone10" width="30.5" height="49.5" patternTransform="translate(-59.78 77.41) rotate(0.1) scale(0.94)" patternUnits="userSpaceOnUse" viewBox="0 0 30.5 49.5"><rect class="cls-1" width="30.5" height="49.5"/><polygon class="cls-2" points="43.02 58.62 28.77 64.69 16.25 55.57 17.98 40.38 32.23 34.31 44.75 43.43 43.02 58.62"/><polygon class="cls-2" points="12.52 58.62 -1.73 64.69 -14.25 55.57 -12.52 40.38 1.73 34.31 14.25 43.43 12.52 58.62"/><polygon class="cls-2" points="27.77 33.87 13.52 39.94 1 30.82 2.73 15.63 16.98 9.56 29.5 18.68 27.77 33.87"/><polygon class="cls-2" points="43.02 9.12 28.77 15.19 16.25 6.07 17.98 -9.12 32.23 -15.19 44.75 -6.07 43.02 9.12"/><polygon class="cls-2" points="12.52 9.12 -1.73 15.19 -14.25 6.07 -12.52 -9.12 1.73 -15.19 14.25 -6.07 12.52 9.12"/></pattern><pattern id="hexagone10-9" data-name="hexagone10" width="30.5" height="49.5" patternTransform="translate(-102.5 -119.56) scale(1.17 1.22)" patternUnits="userSpaceOnUse" viewBox="0 0 30.5 49.5"><rect class="cls-1" width="30.5" height="49.5"/><polygon class="cls-2" points="43.02 58.62 28.77 64.69 16.25 55.57 17.98 40.38 32.23 34.31 44.75 43.43 43.02 58.62"/><polygon class="cls-2" points="12.52 58.62 -1.73 64.69 -14.25 55.57 -12.52 40.38 1.73 34.31 14.25 43.43 12.52 58.62"/><polygon class="cls-2" points="27.77 33.87 13.52 39.94 1 30.82 2.73 15.63 16.98 9.56 29.5 18.68 27.77 33.87"/><polygon class="cls-2" points="43.02 9.12 28.77 15.19 16.25 6.07 17.98 -9.12 32.23 -15.19 44.75 -6.07 43.02 9.12"/><polygon class="cls-2" points="12.52 9.12 -1.73 15.19 -14.25 6.07 -12.52 -9.12 1.73 -15.19 14.25 -6.07 12.52 9.12"/></pattern><pattern id="hexagone10-11" data-name="hexagone10" width="30.5" height="49.5" patternTransform="translate(-20.21 -0.5)" patternUnits="userSpaceOnUse" viewBox="0 0 30.5 49.5"><rect class="cls-1" width="30.5" height="49.5"/><polygon class="cls-2" points="43.02 58.62 28.77 64.69 16.25 55.57 17.98 40.38 32.23 34.31 44.75 43.43 43.02 58.62"/><polygon class="cls-2" points="12.52 58.62 -1.73 64.69 -14.25 55.57 -12.52 40.38 1.73 34.31 14.25 43.43 12.52 58.62"/><polygon class="cls-2" points="27.77 33.87 13.52 39.94 1 30.82 2.73 15.63 16.98 9.56 29.5 18.68 27.77 33.87"/><polygon class="cls-2" points="43.02 9.12 28.77 15.19 16.25 6.07 17.98 -9.12 32.23 -15.19 44.75 -6.07 43.02 9.12"/><polygon class="cls-2" points="12.52 9.12 -1.73 15.19 -14.25 6.07 -12.52 -9.12 1.73 -15.19 14.25 -6.07 12.52 9.12"/></pattern></defs><title>Samuel_Pepys_transparent</title><g id="Слой_2" data-name="Слой 2"><g id="Слой_1-2" data-name="Слой 1"><g id="Main_Samuel" data-name="Main Samuel"><path class="cls-1" d="M1200.1,1199.34q-600,.17-1199.9,0Q0,599.69,0,0,600.09.22,1200.17.31,1199.78,599.83,1200.1,1199.34Z"/><g id="shadows"><path class="cls-3" d="M300,816.75c2.76,4.65,5.55,9.29,8.33,13.93,1.82,11.71,3.59,23.36,5.44,35.1,5.92,6,12,13.65,18,19.12s12.1,8.29,17.94,13.35c6.45-1.09,9.32-.76,16.66-2s19.19-4,27.34-5.5c4.32-3.4,7.51-5.44,11.77-9.25s9.09-8.8,13.56-13.1,10.37-8.66,14.39-13.22,4.21-5.25,8.31-11.12,10.93-17.15,15.54-24.18c-1,2.68-2.13,5.53-3.18,8.28,1-2.75,2.19-5.6,3.18-8.28,2.69-1.84,5.33-3.39,8-5.1q5.71,4.63,11.46,9.26l15.78-6.69q1.53-10.53,3.08-21l13.47-5.76q0-8.84,0-17.65l17.18-8.57c-1.52-2-3-3.94-4.55-5.9l11.14-6.92c.38-.73.77-1.46,1.16-2.19q36.49-28.87,73-57.74l20.75,30.36c12.08,3.36,24.17,6.9,36.26,10.09C729.72,811.29,796,889,861.93,968.64c12.73,41,28.36,89.26,40.21,128.19s18.23,66.6,29.8,103.31c-34.29-2-64.36-.31-99.41-.41s-74.37-.39-110.43-.38c-.3,0-.35.72,0,.75-.33-5.92,0-11.79,0-17.7l14.22-6.7q.79-8.71,1.58-17.42l-15.44-10.34q.27-8.25.53-16.5l13.73-8.5,1.71-19.25,12.77-5.81,1-18,14.63-6.14,1.86-16.92-15.92-10.93q.33-8.7.67-17.4l13.14-6.28q.74-8.21,1.48-16.4l-16.86-11.8q1.41-7.86,2.8-15.73l-73.81,38.45c-.77-1.35-1.54-2.71-2.32-4.06-.13-3.46-.27-6.93-.4-10.39l13.7-6.4q.36-9.45.7-18.91l16.17-7.93-.06-15.43q-8-5.48-16-10.93l.63-17.45,13.84-6.39,1.92-16.47-6.67-3.74-49.19,23.51-6.74-6.34q.72-7.68,1.42-15.37L661,893.72c.18-5.57.52-11.09.57-16.7-4.33-3-10.09-6.95-14.08-9.72s-6.2-4.38-9.85-6.93c-11,6.87-22.2,13.44-33.2,20.27-3-2.46-5.07-4.27-8.3-6.87s-7.64-5.93-11.07-8.75c.13-2.83.59-6.57.76-9.14s.14-3.94.27-6.28c4.69-2.63,9.34-5.41,14-8.1,0-5.77,0-11.53,0-17.3l14.8-7.45c.75-5.3,1.52-10.6,2.27-15.9L600.11,789l1.26-17.67,13.54-5.69c.56-5.35.93-10.62,1.65-16-4.3-1.68-.42-6.31-8.48-2.57-38.55,33.86-99.61,85.4-132.74,115.3s-31.24,29.85-54,52.89-35.67,45.57-57.28,69.11c-6.73-6.74-15.16-11.71-22.71-17.6-.27-4.73-.47-9.48-.71-14.22-3.34-2.5-6.66-5-10-7.52l10.07-14.73Q324.84,950.51,309,970.72c-4.87,2.59-9.74,5.2-14.62,7.78-2.3-1.75-4.54-3.77-6.88-5.42s-4.69-3-7.12-4.44c-.11-2.75-.84-3.65-.75-6.83s.78-8.48,1.05-12.06c7.58-2.47,15.19-4.64,22.78-7l19.93-15.07-14-10.87c1-3,2-5.93,3.05-8.9-5.67-1.35-11.45-2.43-17-4.05,3.22-6.27,8.45-15,11-20.8s2.11-8.36,4-13.57c-5.4,2.33-10.73,4.26-16.11,6.4-4.39-3.07-8.79-6.11-13.19-9.16l-16.25,8.4q.3,8.73.62,17.45l-16.48,9.43L234.56,891.6l.24-18.07c-1.42.08-2.78.21-4.23.23-2.34-1.79-5.61-4.09-7.71-5.79s-3-2.8-4.82-4.4c1-5,2-10.22,2.66-15.21,5.45-3.36,8.29-3.5,14.3-7.68s15.17-11.93,21.7-16.9C271.22,821.23,285.53,819.1,300,816.75Z"/><path class="cls-3" d="M253.33,1199.39h48.78c55.6-72.8,107.27-144.94,163.19-217.48-5-.48-10.06-1-15.09-1.47l-22.77,9.42-2.41-.58c-1.55,1.93-2.92,3.86-4.62,5.78-3.3,1.12-9.16,3.15-11.86,4s-2.24.36-4.32,1.18c-.23,4.07-1,10.4-1.52,14s-1.37,4.17-2,7.17c-4.06,1.62-8.05,3.63-12.08,5.44q-.74,9.67-1.48,19.34l-14.41,6.62q-.69,9.62-1.37,19.22l-14.2,7.9-14.57-8.7-17.46,8.39c-1.51-.74-2.65-1.57-4.27-2.22s-4.06,1.59-4.47-1.73c-9.55,17.11-7.22,8.82-19.23,31.11S267.09,1173.12,253.33,1199.39Z"/><path class="cls-4" d="M127.3,1199.37h31l-3.39-8c-3.47-.5-6.9-1.3-10.41-1.52.06-3.73-.38-4.36-.19-8.77s1-9.64,1.2-15.55.35-15.42.52-22a61.8,61.8,0,0,0-6.87,1.87Q133.25,1172.43,127.3,1199.37Z"/><path class="cls-5" d="M397.67,375.26a45.39,45.39,0,0,0,6-.57c5.49-.66,10.9-1.35,16.14-1.79,11.87-1,23.54-2,35.33-2.32,13.83-.38,27.78,0,41.54-.48,5.2-.17,11.64.66,15.24-3.23,9.56-10.36,13.36-22.14,15.31-35.51,1.6-11-1.72-21.23-1-32,.28-4.07.9-6.17,4.94-7.84,2-.81,4.42,5.72,4.6,6.56a578.24,578.24,0,0,1,10.86,63.67c.58,5.4-.86,10.42-.55,15.55.26,4.2-.22,6.41,2.66,9.86,3.12,3.74,8.17,6,11.83,9.7,7.91,8,15.52,16.77,22.87,25.36.28-1.68,1.07-3.59,1.45-5.18a55.11,55.11,0,0,0,1.36-11.18c2.84,7.71,4.39,15.51,6.61,23.44,2.4,8.51,6.21,16.39,9.72,24.61,2.74,6.39,4.91,13.12,7.2,19.84,1.93,5.64.23,12.46,5.57,16.63,5.65,4.39,10.84,3,18.18,1.78,3.46-.55,10.29-2.65,13.29-5.66-3.26,7.7-6.67,14.49-13,20.43-4,3.78-10.46,5.22-14.79,8.55-3.21,2.45-4.23,4.43-5,8.48-1,5.63-.73,11.34-1.52,17.33-2,15.05-4.39,28.75-7.43,44.23-2.9,14.77-10.15,27.82-4.32,44.21.84,2.35,16.43,3.59,19.23,3.34,19.72-1.79,38.94-1.84,57.81-4.08,13.27-1.57,25-4.18,38-6,6.64-.94,13-2,19.94-2.47a12.89,12.89,0,0,1,9.95,3.16c.58.54.21,1.88-.42,2.49-6.25,6.13-14.09,12.54-21.85,16.1-19.6,9-40.22,15.41-60.13,21.89-20.9,6.8-39.06,14.64-60.57,20.13-3,.77-8.82.57-12.56,3-1.77,1.14-6.09,6.86-7.39,8.26-12.28,13.3-22.66,25.25-35.77,37.67-8.16,7.74-22.7,17.25-32,22.26-18.67,10.11-34.82,20-52.58,28.77-12.85,6.36-24.55,9.14-37.86,12.2-6.81,1.56-12.14-1.05-19.19-.25-3.51.4-12.2.07-13.57-4.11-2.73-8.35-2.24-16-.33-24.14,8.26-35.16,26.08-65.4,48.3-93.9,4.19-5.38,10.47-13.94,15-19.93,8.05-10.69,18.41-19.23,24.67-31.29.39-.75,0-1.36-.82-2.24-8.2-9.13-16.41-18.57-23.86-28.55a280.74,280.74,0,0,1-20.26-30.84c-12.29-21.86-23.32-44.77-31.74-68.54-2.59-7.33-2.68-14.62-3.26-22.43-.34-4.62.18-9.42,4-12.83,2.16-1.93,5.85-.65,7.79,1.17,2.65,2.48,4.35,5.94,5.8,9,1.82,3.88,4.64,9.09,6.58,12.48,7.78,13.58,23.47,32.23,32.43,41.63C468.94,535,479.65,543,490.34,553.26c5.63,5.42,9,7.73,12.74,11,6.62,5.68,10.4,9.17,17.41,11.37,5.42,1.7,7.3-.53,10.56-3.51,6.74-6.15,9.34-13.86,13.61-22a88.64,88.64,0,0,0,6.08-15.68c1.92-6.81,3.52-15,5.4-21.42a235,235,0,0,0,7.09-29.85,11.68,11.68,0,0,0-2.41-9.6c-1.44-1.77-4.35-2-6.29-3.21a69.42,69.42,0,0,1-9.92-7.89c1.69,0,5,.36,6.1-1.08,5.42-7.17,5.8-14.44,3-22.52a137.86,137.86,0,0,0-11-23.55c-4.26-7.53-8.67-13.44-15.44-19-1.94-1.59-5.76,1.42-8,1.86a53.43,53.43,0,0,1-15.2,1.2c-18.83-1.7-37.95-2.77-56.29-6.83C430.39,388.7,414.33,381.43,397.67,375.26Z"/></g><g id="wrinkles"><path d="M387.64,733.89q-9.72,1.79-19.42,3.63C374.72,733.08,380,731.92,387.64,733.89Z"/><path d="M375,392q-.36-15.18-.73-30.37l2.67-.25c1.09,10.15,1.81,20.14,1.15,30.34C377.1,391.83,376.07,391.93,375,392Z"/></g><g id="nose"><path d="M356.94,411.82c5.84,6.08,13.26,19.88,14,27.33,1.86,18.61-.27,33-3.76,49.91-2.53,12.26-6.85,23-11.13,34.41-3.93,10.5-9.87,19.46-14.83,29.53-.93,1.89-2.35,4.42-3.36,6.36-.42-1.74-.76-4.57-.15-6.15,4.21-10.88,9.85-20.69,13.58-31.62,4.41-13,8.56-25.73,11.15-39.33a182.37,182.37,0,0,0,3.37-34.77c0-5.85-1.65-10.8-3.5-17.93C361.46,426.23,357.32,416.2,356.94,411.82Z"/><path d="M331.6,573.93c-.25,2.42-1.42,4.19-1.57,6.7-.5,8,1.86,13.3,8.66,17.8,1.23.82,2.59-.49,3.5-1,3.47-2,5.3-2,8.55.31,7.59,5.29,13.64,8.76,23.28,7.07,5.2-.91,9.86-5.37,15-6.85,7.59-2.19,12.71-.14,18.54,4.86a25.8,25.8,0,0,1-5.47.63c-7.58.19-13.62,2.12-20.3,5.51-5.44,2.75-10.51,5.2-16.78,5.14-3.59,0-7.15-2-10.12-3.65A30.46,30.46,0,0,0,344,607c-6-.82-11.6-1.06-15.26-6.36-4.46-6.43-3.51-13-2.45-20.36.37-2.57,2.41-4.64,3.33-7C330.29,573.46,330.93,573.76,331.6,573.93Z"/><path d="M427.73,565.7c4.44,1.87,8.59,3.36,8.27,9.08-.75,13-6.31,21.45-16.06,29.92-1.05.92-3.57-.09-4.65-.79.13-1.57.81-3.82,2-4.79C432.41,586.58,432.74,584.48,427.73,565.7Z"/></g><g id="eyes"><path d="M515.1,453.38c3,1.43,6,2.41,9,3.91-17.9,13.28-35,20.62-57.57,19.73-6.9-.28-12.75-5-19.23-7-2.89-.89-5.93-1.58-8.91-2.37-1.94-.51-3.71-1.68-5.79-2.13,2.47-2.74.92-3,4.37-6.11,5-4.47,11.4-11.66,18.87-14.57,12.6-4.9,25-6.83,38.76-4.88,6.59.93,12.17,5.86,18,9.2,1.27.73,1.91,2.89,2.55,4.19-1.49-.65-3.18-1.61-4.61-2.25s-2.55-1.06-3.89-1.73c.49,2.43,1,4.75,1.45,7.21a8.43,8.43,0,0,1,.08,1.57,56.65,56.65,0,0,1-2.6,9.43C511.07,463.93,513.57,459.82,515.1,453.38Zm-39,21.37a41.73,41.73,0,0,1-6.53-8.75,18.85,18.85,0,0,1-1.87-10.5c.59-4.9,3.05-7.4,4.34-11.79-6.17,2.25-12.68,2.85-18.49,6.21-3.7,2.13-7.05,3.74-6.79,9s1.28,7.78,7.4,10.93C459.39,472.53,469.36,475.78,476.15,474.75Zm9-21.48c0-1.68-1-5.29-2.25-6-2.6-1.54-4,0-6.5-.09.18,1.56.69,4.37,1.93,5.15C480.76,453.83,482.7,453,485.18,453.27Z"/><path d="M273.55,465.39c3.66-6.06,7.05-11.94,14.32-13.81,12-3.08,22.59-2.64,34.73.07,4.48,1,8.6,4.86,12.68,7.37a93.23,93.23,0,0,1,8.91,6.72c1.7,1.37,3.15,3.24,4.86,4.68-2.85,2.17-3.71,3.62-7.28,5.72a36.87,36.87,0,0,1-8.18,3.62,112.53,112.53,0,0,1-11.84,2.84,118,118,0,0,1-34.54-.2c4.38-.78,8.89-.8,13.25-1.65-.58-1.91-2.68-3.82-3.57-5.31a19,19,0,0,1-2.1-5.61,80.1,80.1,0,0,1-1.75-11c-.19-1.72.21-2.67.2-4.27-2.12.37-5.19.52-7,1.55-4.78,2.8-8.48,6.17-12.89,9.26C273.47,465.41,273.49,465.5,273.55,465.39Zm28.11-10.22c-.84,1-.58,4.42.17,5,2.21,1.74,3.89.53,6.26,1-.6-2.27.44-4.12-1.37-6.1C305.81,454.09,302.87,454.4,301.66,455.17Zm28.4,6.87a20.63,20.63,0,0,1,.41,4.18c0,1.31-.14,2.28-.27,3.55s-.48,2.65-.67,3.9c1,0,3.89-.76,4.18-1.67C335.25,467.25,333.2,465.17,330.06,462Zm-56.89,3.63c-2.54.54-4.72.62-4,4,.38,1.79,3.14,3.07,4.69,4a5.45,5.45,0,0,0,1-1.24c-.57-2.27-1.15-4.57-1.7-6.83C273.09,465.54,273.22,465.66,273.17,465.67Z"/><path d="M440.66,431.12c24.08-14.94,50.12-11.79,72.6,4.54-12.13-3.3-23.77-9.65-36.39-10.45S452.94,429.51,440.66,431.12Z"/><path d="M268.67,441.9c6.38-3.64,12.18-8,19.61-9.22,9.75-1.57,19.4-.59,29.2.18,5,.39,9.76,2.66,14.55,4.12a11.42,11.42,0,0,1-.23,1.95,23.1,23.1,0,0,1-7.1-.1c-8.84-1.82-17.47-3.36-26.35-3.11-8.52.24-15.46,3-23.19,6.25a32.06,32.06,0,0,1-6,1.75C269,443.12,268.83,442.54,268.67,441.9Z"/></g><g id="eyebrows"><path d="M347.88,398.89a6.49,6.49,0,0,0,.16-1.26c-.05-2.89.58-5.81-.81-8.48a7.5,7.5,0,0,0-6.74-4.09,281.25,281.25,0,0,0-38.51.06c-12.18,1-24.88,5.34-35.78,10.6-3.4,1.64-5.07,3.08-7.9,5-2,1.33-3.21,1.66-5.08,3.64-1.53,1.63-1.27,6-1.45,8.34a94.58,94.58,0,0,1-1.64,9.52c-.52,2.78-.82-.77.08,1.15,1-.86,6.24-4.86,6.64-5.12,12.66-8,23.8-11,37.89-11.53,10.72-.38,20.5,1.45,31,1.55,5.13.05,9.82,1.85,15,1S347,403.41,347.88,398.89Z"/><path d="M558.31,424.31c-3.42,3.29-8-1.29-10.45-2.88-8.83-5.76-16.28-11.87-25.93-15.26-12.44-4.39-24-6.74-37.25-6.63-16.36.15-31.15,3.08-48.06,5.69-11.12,1.72-19.24,7.25-25-7.25-2.29-5.75-3.24-13.42,2.95-17.31,7.7-4.84,18.76-3.89,27.12-4.1,22.56-.57,44-1.72,65.72,3.84,12.45,3.18,22.35,10.35,32.28,18.26,5.11,4.07,8.63,9.87,12.8,14.84a46.19,46.19,0,0,1,5,7.85C558.15,422.65,559.15,423.5,558.31,424.31Z"/></g><path id="hair" d="M1192.24,1074.09c-3.53-15.68-15.87-25.67-26.92-37.84-13.73-15.11-22.44-23.12-21.78-45.24.25-8.26,8.77-12,11.26-18.86,7.75-21.29,11.56-42.11-.53-62.5s-30.41-31.89-50.72-44.18c-22.47-13.6-38.93-22.06-42.25-50.69-1.07-9.23,6.58-15.71,5.85-24-2.5-28.48-21.36-49-33.68-73.36-8.12-16.08-10.1-34.6-20.49-49.38-8.91-12.69-26.21-16.31-32.82-30.75-10.43-22.77,3.28-47.14-3.58-70.63-5.85-20-23.6-32.73-34-50.59-4.72-8.14-5.15-18.15-7.64-27.44-9.67-36.05-24.54-70.37-42.49-103.11-9.36-17.09-19.74-33.28-32.69-47.85-19.19-21.58-45.28-35.34-64.19-57.22-16-18.48-27.14-40.48-40.85-60.58-49.11-72-129.87-112.33-216.77-112-13.89.06-26.59,2.61-40.48,1.31-15-1.41-29.43-5.4-45-7.84C359.15,86.7,280.77,123.05,222.46,197c-6.31,8-9.79,14.74-19.42,18.4-8.81,3.35-13-3.19-18.07-9.14-2.24,11.63-4.21,23.55-6.48,35.24-19.47,10.45-35.23,23.73-47,42.71-16.75,27-32.43,55.11-48.54,82.58a66.43,66.43,0,0,1-5.4-18.34c-22,24.69-23.43,35.07-8.39,64.53a130.91,130.91,0,0,1-29-6.54,226.76,226.76,0,0,0,14,42.78q-8.53-6-17.09-12c-2.2,27.31,5.19,49.86,23.79,70.08-1.42,30.17-6.35,60.28-13.46,89.46-2.17,8.88-7.4,17.48-4.73,26.1C53.15,656.72,80.6,682,83.73,718.18c-42.3,28.42-49.68,64.88-26.17,109.36-23.64,19-45.32,39.87-49.89,71.26s11.17,57.79,28,82.93c-18.11,8.88-24,16.16-23.38,36.08s10.21,35.55,14.28,53.59,4.72,33.71,1.52,51.41c-1.52,8.44-11.26,13.23-11.78,21.64-1.26,20.48,5.37,36.78,13.67,55H89l50.71-.09c1.69-10.44,7.19-33.64,9.29-41.88s1.63-8.32,2.78-13.78c.85-4.07.2-4.56.91-8.2.3-1.53.67-2.81,1.16-4.7s1.09-4.11,1.79-6.41c.46-1.51,1.2-3.83,1.72-5.7a32.81,32.81,0,0,0,1.12-4.52,37.77,37.77,0,0,0,0-4.76c0-11.32-1.91-19.15-1.18-31.19.87-14.32.63-26.33,3.58-42.29A956.24,956.24,0,0,1,188,926.19c8.36-27,18.18-57,31.91-83.4,9.55-18.32,25.13-35.06,42.59-47,.28-.19,1.24-1.38,1.52-1.66,2-1.89,5.25-4.48,7.11-5.94,3.49-2.74,6.39-5,9.53-7.41s5.82-4.38,8.69-7.08c-.29-4.2-.56-10.59-.45-14.42a153,153,0,0,1,2-20.34c1-6.16,3.08-9.53,3.95-15.44-2.1-5.13-5-14.7-6.69-19.06-3.92-9.87-5.77-14.57-9.69-24.17-6.28-15.39-13.26-31.91-18.34-48.71-3.89-12.91-8.7-30.52-10.71-43.47-5.94-38.33-2.5-75.16-1.29-112.87.3-9.51.5-21.47-.82-28.59-1.54-8.33,2.06-29.89,2.35-31.95,1.8-12.91,2.93-21.89,4.35-30.1,2.06-11.87,3.57-19.69,6.09-29.59,3.35-13.19,7.23-24,11.69-36.51.77-2.17,3.56-3.12,5.47-4.26,4.19-2.51,9.17-5.77,13-8.34,3.3-2.22,6.22-2.22,9.49-1.87,9.31,1,16.76.72,24.86-3.71,9.53-5.22,18.37-9.76,29-12.17a1.4,1.4,0,0,1,.46,0c8.66,1.13,10.72,3.85,10.21,12.54a16,16,0,0,1-.48,2.93,80.88,80.88,0,0,1-10.6,20.78c2.24.41,5.47,2.41,7.63,1.35,9.6-4.72,17-9.16,22.71-18.49,4.78-7.74,5.72-17.34,8.78-26.09a63.88,63.88,0,0,1,7.28-15.05c6.63-9.66,13.32-19.12,18.84-29.57,1.83-3.45,2.53-7.7,4.1-11.31a21.31,21.31,0,0,1,1,3.67c2.29,12.74,1.22,26.61,5,38.94,5.76,18.56,13,33.31,28,46.2,8.79,7.57,20.57,7.56,31.95,8.71,15.79,1.58,31.5,3.69,46.91,8.21,10.37,3,21.4,4.46,32,6.43,3.88.73,5.2,1.76,6.54,5.72,5,14.83,13.2,28.07,20.83,41.85s10.65,23.83,8.76,40.43c-1.6,14.11-6.39,30.77-6.09,46.06.13,6.12,3.24,13,4.48,19.26,1,4.93.63,8.68-.5,14-3,14-6.23,27.59-4.11,42.44,1,7.12,6.14,13.8,9.24,20.58a10.62,10.62,0,0,1,.93,6.69c-2.2,8.82-5.52,17.36-7.42,26.34-2.57,12.14-3.14,24-3,36.57,0,2.5,0,5.22,0,8.18-.18,10.81-.65,20.34.89,31.88.58,4.35,3,11.76,6.83,15.76a61.85,61.85,0,0,0,6.17,5.3c2.8,1.91,6.51,6.66,7.69,8.69,1.87,3.2,6,6.95,7.08,8.61,4,6.4,15.08,8.29,19.42,9.43,19.39,5.1,18.75,8,27.17,23,2.07,3.7.42,8.23.84,9.84,6.08,23.24,13,44.47,24.18,64.77,8.7,15.82,18.59,27.84,32.74,38.91,14.57,11.42,34.31,15.63,49.1,26.8,22.2,16.79,39.69,37.16,54.67,60.64,16.48,25.84,32.29,52.59,44.51,80.87a116.9,116.9,0,0,1,8.74,35.26c1,10.2-4.86,20.39-2.77,30.46,6.73,32.58,26.3,70.14,28.88,103.7l287.08.1C1184.75,1163.09,1200.74,1111.88,1192.24,1074.09Z"/><g id="clothes"><path d="M826,948.1c-4.1.71-8.69,1.1-12.81,1.77-6.71,1.07-14.13,2.2-20.51,3.52s-13.27,1.82-18.78,4.2a525.92,525.92,0,0,0-79.7,42.47c-11.66,7.6-21.66,16.69-31.59,26.56-4.38,4.36-5.13,10.46-7,16.13A100.17,100.17,0,0,0,675.7,1032c26.62-18.33,52-35.47,82.14-49,15.15-6.81,33.39-12.59,51.6-19,1.27-.45,16.15-5.72,20.46-5.92,1.88-.08,6.58-2,8.63-.63-1.65-3.58-3.95-6.85-5.88-10.29C830.32,947.25,828.32,947.69,826,948.1Z"/><path d="M729.66,865.4c-1.55,1.1-2.85,2.2-4.42,3.34a54.73,54.73,0,0,1-6,3.37,370.34,370.34,0,0,0-67.77,45.06c-.62.53-1,1.07-1.62,1.67a65.23,65.23,0,0,0-6.69,7.39c-.91,1.29-.88,2.9-1.42,4.35,2.31,0,4.22.89,6.53,0,3.22-1.23,6.05-3.34,9.09-5.16,15.79-9.46,31.47-19.28,47.69-28.1a238.16,238.16,0,0,1,25.47-11.66c8.41-3.35,17.22-5.86,25.72-9-5.68-2.38-11.12-4.45-17-6.59A47.93,47.93,0,0,1,729.66,865.4Z"/><path d="M693.38,822.43c-5.09.62-8.51,4.76-11.66,7.68-6.63,6.18-15.53,14.52-21.77,19.59-29.29,23.81-57.33,44.8-88.68,66.18a260.81,260.81,0,0,1-23.4,13.75C541.54,932.83,529,939.75,525,943c-16.46,13.7-31.27,29.72-44.2,44.29-55.85,63-106.56,129.27-156.91,196.42-5.68,7.57-12.29,11.08-20.07,16-.87.55-2.37.38-2.68-.55-1.23-3.72-2.67-6.6-.3-10.1C330,1146,359.47,1104.72,392.08,1064c16.3-20.37,34.87-40.18,52.69-61.23,2.83-3.34,12.08-14.5,15-19.38.77-1.29.74-1.58.34-2.71-9.93,4.57-21.07,8.92-30.64,13.38a7.51,7.51,0,0,1-4.17.51c-3.21-.06-2.21-2.48-1.72-3.59,1.23-2.74,2.69-3.79,4.5-5.69a23.55,23.55,0,0,1,4.38-3.58C490.4,943.33,550.76,908.56,607.21,868a281.24,281.24,0,0,0,46.7-42.82c7.4-8.38,11.56-17.62,15.39-27.74,4-10.53,3.65-21.31,5.65-32.26,3.59,10.74,5.33,19.43,9.81,30.55,3.6,8.92,10.08,20.53,15,29.5C698.5,824,695,822.23,693.38,822.43Z"/><path d="M642.3,726.33c-3.85-2.44-7.94-4.51-11.47-7.46-3.16-2.63-5.44-6.08-8.08-9.19a37.48,37.48,0,0,1-.88,7.82,14.84,14.84,0,0,1-2.78,5.64,155.48,155.48,0,0,1-14.19,15.22c-25.33,23.63-51.15,47.18-76.25,70.44-22.81,21.13-42.27,39.26-65.84,61-4.69,4.32-15.95,15.35-21.8,21.53-16.39,17.34-30.45,33.39-46.65,52.61-2.69,3.19-10.87,13.33-14.89,18.64-3.36,4.45-9,11.53-12.81,16.21-.78.27-1.16-.08-1.82-.27,1.35-8.22,2.77-16.43,4-24.66.71-4.72,1.29-9.46,1.83-14.2a9.43,9.43,0,0,0,0-3.35A71.34,71.34,0,0,0,368.2,929c-.69.18-1.37.32-2.05.57-.31,1.53-.77,3.46-1,4.93-.43,2.93-.69,5.8-1,8.61-.68,5.63-1.15,11.19-1.81,16.76-.49,4.21-.44,8.45-1.57,12.52a179.66,179.66,0,0,1-9.31,25.44c-3.71,8.3-8,16.38-12.1,24.5-1.84,3.62-4.06,7-6,10.58-9.21,16.94-18.54,33.89-27.08,51.16-5.93,12-11.76,24.21-17.42,36.36-11.84,25.43-24.49,53.16-35.51,79a34.84,34.84,0,0,0,15.95-3.47c2.59-1.2,3.89-4,5-6.59,13-28.76,26.19-59.08,39-87.8,17.62-39.59,39.72-78.5,62.59-114.29,6.42-10,15.48-19.61,20.41-26.4,7.9-10.85,16.53-22.48,22.17-29.71a280,280,0,0,1,20.87-24c34.29-35.48,70.53-67.14,106.14-100.4,3.52-3.29,6.65-6.09,9.92-9.18,14.2-13.47,28.06-27.1,43-39.65,7.53-6.34,16.47-11.1,24.3-17.19,3.78-2.94,7-6.93,10.86-10C636.05,728.65,639.31,727.56,642.3,726.33Z"/><path d="M607.84,699.05c-1-4.8-4.14-8.32-6.72-12.3-1.46,2.31-2.67,5.82-4.59,7.71-27.42,27-58.22,49.3-91.43,68.5a248.63,248.63,0,0,1-65,26.58c-10.59,2.66-21.39,1.63-32.24,1.58-7.72,0-15.17-2-22.75-3.58-3.75-.76-7.24-2.42-10.82-3.92a17.57,17.57,0,0,1-5.14-2.9c-1.58-1.38-2.19-3.6-2.45-5.69-12.42-4.77-24.93-9.49-37.37-14,4.63,3.94,10.41,9.07,14.68,12.83s7,6.09,10.84,9.76c-7.17-.5-13.93,1.53-20.82-1.3-7.32-3-11.14-9-17.38-14.46-2.46-2.14-6.35-5.57-4.86,2.64.38,2.07,5.07,12.37,9.61,12.48-7.39,2.7-14.48,3.83-22.47,4.72-1.82.21-3.45,1.24-5.2-1.21s-3-7.23-3.3-10.5C286,779,279,784.69,275.37,787.61c-4.74,3.77-7.23,5.78-11.14,9-3.49,2.92-6.14,5.46-9.3,8.48,4.43-.91,10.73-1.52,14.72-2.43s6.65-2.68,9.87-3.6c6.45-1.84,12.36-3.76,18.68-4.78,9.81-1.58,19.51-2.28,29.21-3.24,6.72-.67,13.28-1.21,19.89-1.43a74.26,74.26,0,0,1,8.63.62c3,.22,5.78.65,8.86.94.54,0,2.16.16,2.68.28,3,.67,5.06,1.72,8.09,2.2,10.06,1.58,20.54,3,30.72,4,3.58.35,7.25.92,10.74.51A249.77,249.77,0,0,0,513.88,766c25.87-14.91,49.33-33.56,72.82-52,3.06-2.4,5.95-5.38,9.18-8a44.89,44.89,0,0,1,8.84-5.89C604.78,700.15,607.85,699.09,607.84,699.05Z"/><path d="M153,1145.71a4.56,4.56,0,0,1-.12-1.56c.53-2.87,1.45-5.91,2.22-8.67,1.72-6.16,3.34-12.16,5.06-18.26.54,8.71,1.05,17.69,1,26.36,0,9.48-.74,18.88-1.35,28.2a133.72,133.72,0,0,0-.14,18.23c.74-1,2-2.08,2.63-3,1.76-2.73,3.76-5.09,4.8-8.13,5.36-15.74,9.84-31.72,14.25-47.75.44-1.6.62-3.27,1.07-4.86,8.2-28.87,16.81-57.77,28.27-85.46a591.29,591.29,0,0,1,29.19-59.48c8.19-14.81,17.18-29.21,26.56-43.21,6.3-9.41,14.6-16.71,21.91-25.11s14.19-16.21,19.32-26.18c3.33-6.46,4.1-14.19,5.91-21.26a12.77,12.77,0,0,0,.27-2.91c.14-9.43.49-18.83-.78-28.21-.67-4.92-3.38-9-5.8-13.16a1.81,1.81,0,0,0-2.15-.85c-.83.21-1.13,1-1.58,1.56a39.15,39.15,0,0,0-2.69,3.6c-1.56,2.46-2.43,5.39-4.15,7.72-3.79,5.11-7.49,10.18-12.55,14.06-7.57,5.8-16,10.15-24.05,15.16s-16.15,9.73-23.78,15.56c-3.64,2.78-6.55,6.15-9.69,9.68a32.39,32.39,0,0,0-4.15,6.24c-.71,1.31-1.59,3.79-3,4.86a19.17,19.17,0,0,1-.13-6.63,9.44,9.44,0,0,1,1.48-3.33c2.42-3.72,4.72-7.7,7.69-10.93a61.65,61.65,0,0,1,9.94-8.23c5.63-4,11.44-7.62,17.19-11.42,6.36-4.21,12.87-8,19.15-12.4,4.31-3,8.79-5.58,12.15-9.73,3.68-4.53,5.92-8.79,4.48-14.86-.13-.54-5,.56-5.75.81-10.85,3.62-21.68,6.43-32,11.17-4,1.86-6.92,5-10.28,7.8-1.68,1.38-2.84,3.26-4.24,4.85-.61.69-1,1.48-1.88,1.64s-1.21-.62-1.16-1.34a8.3,8.3,0,0,1,1.09-3.78c1.5-2.42,2.94-4.92,5.08-6.74a86.67,86.67,0,0,1,14.4-10.16,68.28,68.28,0,0,1,13.68-5.66,184.43,184.43,0,0,1,24.32-5.33c8.23-1.21,16.55-1.22,24.78-2.3a241.82,241.82,0,0,0,24.36-4.73,10.76,10.76,0,0,0,3.27-1.2,107.35,107.35,0,0,0,23.85-20c4.56.76,9.16,1.48,13.7,2.3a18.81,18.81,0,0,0-6.33,1c-1.84.54-3.57,3.14-4.46,4-6.62,6.32-12.52,12.11-20.29,16.35-5.81,3.16-12,4-18,6.64a101.63,101.63,0,0,0-12.81,16.23,19.78,19.78,0,0,0-3,8c-.39,3.35-.61,6.88.79,9.92,4.76,10.35,9.29,19.79,18.62,26.73,7,5.21,15.72,4.65,24.07,6.24.82.15,3-.79,3.79-.17,1.09.89.71,1.31.75,2.52.09,2.1-1.11,3.63.19,5.76.55.9,4.61-.47,5.07-.66,3.76-1.58,7.67-2.4,11-3.91,6.48-2.94,13-5.09,18.8-9,11.61-7.79,22.6-15.64,32.43-25.62s17.48-21.95,26.16-32.93c.59.14,1.17.44,1.77.64-.88,3.09-1.46,5.81-3.26,8.59-3.33,5.15-6.89,9.86-10.47,15.17-.82,1.21-2.44,3.71-3.33,5.16.86.31,1.49.78,2.48.42a29,29,0,0,0,7-4.39c9-6.9,18-13.46,27.27-20,.34.72.73,1.41,1.09,2.11-20.32,18-42.67,33.29-64.93,48.74,1-.37,2.55,0,3.45-.23,8.24-2.16,15-3.61,23.14-6.76a230.54,230.54,0,0,0,24.35-10.73c3.83-2,12.41-7.4,16.69-10.32-6.12,6.36-13.92,13.62-20.09,19.6-3.8,3.69-5.65,5.82-9.1,9.24a9.36,9.36,0,0,0-4-.11c-10.3,2.17-20.75,3.78-31.06,6.26-5.16,1.23-9.23,1.8-9.85,8.18-.59,5.95,2.07,12.82,3.11,19,.15.95.92,3,2.36,2.86s2.46-1.09,3.51-2q-7.48,9.06-15.13,18a74.42,74.42,0,0,0,1.75-21.59c-.37-4.73-1.48-9.23-2.08-13.83a8.35,8.35,0,0,0-1.29-3.45c-.88-1.36-3.07-2.37-4.25-1.4-4.88,4-6.57,7.32-7.38,13.64-1.36,10.53-1.74,21.2-4.61,31.84-1.26,4.71-4.92,9.37-8.57,12.75.59-7.5,2.18-15.73,3.4-23,1.17-6.93,2.91-14.42,1.82-20.84s-4.75-4.87-9.45-4.54c-3.52.24-7.2.5-10.27,2-3.62,1.72-4.59,4.35-6.36,7.75-2,3.94-3.3,8.5-5.74,12.38a239.66,239.66,0,0,1-16.13,22.71c-5.45,6.73-11.29,13-16.87,19.69-2.78,3.34-5.51,6.74-8.12,10.45a100.23,100.23,0,0,1-7.17,9.64c-.67-2.21-1.38-4.16-.63-6.48a21,21,0,0,1,3.69-6.28c10.47-13.62,21.56-26.92,31.85-40.67,3.2-4.27,4.2-9,5.38-14.13-9.61,7.48-18.91,14.87-28.58,22.42-2.47,1.93-5,4-7.87,6-1.07.76-3.36,2.19-4.24,3.5,2.3-4.86,4.29-9.54,8-13.64,3.08-3.43,7.16-5.81,10.71-8.88,7.87-6.79,15.52-13.71,22.77-21.3A18.07,18.07,0,0,0,350,898a11.63,11.63,0,0,0,.37-5.46,10.74,10.74,0,0,0-4.71.49,68.63,68.63,0,0,0-8,4.11c-6.6,3.47-13.18,6.45-19.92,9.35-6.27,2.7-13.21,3.61-18.84,7.59-8.44,6-15.83,12.36-21.84,20.92a673.24,673.24,0,0,0-45.77,75.76c-10,19.13-17.5,39.17-25.71,59.19a228.1,228.1,0,0,0-7.94,23c-6.61,22.8-11.9,46-17.67,69-1,4-2.06,7.92-3,12-1.15,4.93-2,9.81-3.26,14.88a70,70,0,0,1-2.5,8.06,13.68,13.68,0,0,1-2,2.48c-1.9-1.38-3.35-2.29-5.15-3.81a7.32,7.32,0,0,1-2.34,1.31c-1.55.38-3.39,1.2-4.92.92-2.67-.48-4.63-1.33-4.87-4.27-.56-6.93,1.12-13.73,1.76-20.64a173.91,173.91,0,0,0,.22-22.94C153.86,1148.39,153.23,1147.19,153,1145.71ZM319.6,875.07c-.65,1.63-1.35,3.27-2,4.95-2.79,7-5.69,13.92-8.43,20.9a1.77,1.77,0,0,0,.4,2.12c.23.23.55,0,.83-.12,7.6-3.77,15.19-7.46,22.8-11.31a3,3,0,0,0,1.58-1.33,2.89,2.89,0,0,0,.26-2.5,20.52,20.52,0,0,0-3.82-5.43c-1.81-1.86-3.88-3.62-5.74-5.39-1-.94-2.31-2.14-3.14-3s-1-1.08-1.69-1.81A26.58,26.58,0,0,1,319.6,875.07Z"/><path d="M286.73,699.94c2.19,10.92,5.34,21.74,6.51,32.9,1.89.1,3.78.19,5.66.33,16.45,16,33.92,29.93,55,39.38,8.32,3.73,17.31,5.47,26.26,6.79,9.47,1.4,18.88,2.25,28.36.58A165.81,165.81,0,0,0,449,767.82c19.9-9.07,37.35-21.86,53.6-36.33,3-2.67,3.47-6.84,5.2-10.13-22.57,16.85-44.37,35.57-71.85,43.72s-54.88,7.38-82.16-1.15c-14.3-4.47-25.16-14.51-37.14-23.67-6.1-4.66-10.57-11.89-16.2-17.88-2.81-3-5.27-7.19-7.75-11.33A121.78,121.78,0,0,1,286.73,699.94Z"/></g><g id="lips"><path class="cls-6" d="M417.84,670c.07-.77,1.88-2.62,2-3.41-4.19-3.07-8.89-6.82-13.69-9-10.6-4.77-18.84-6-30.46-3.2-7.72,1.85-15.35,3.76-23.4.52a6,6,0,0,0-3.09-.35c-8.22,2-14.9,3.71-21.83,8.49-1.79,1.24-3,4.93-4.34,6.51,1.78,1.4,5.62,3.5,7.67,3.1,8.43-1.65,16.41-2.05,24.62-2.36,9.16-.36,17.92,2.21,26.78,2.23,9.51,0,18.63-3.81,28-3.37C412.78,669.31,415.2,669.78,417.84,670Z"/><path class="cls-7" d="M325.2,683.2c.06,1.08,0,0,.23,1.08,1.68,2.51,4.33,5.6,5.94,7.86s2.06,3.7,3.45,5.81c2.77,2.22,5.57,4.5,8.42,6.74,2.9.82,6.24,4,9,4.74s5.13.7,7.59,1.14,3.71.64,6.1.88c-.17-4.5.43-10.69.32-15.18-4.85-2.49-8.13-5.87-13.58-5.54-3.58.22-2.16.06-6.49-.87-3.73-.81-7.26-1.12-11.76-3.3C330.64,684.76,329.7,684,325.2,683.2Z"/><path d="M303.91,664.3c8.32-1.41,16.77-3.26,24.71-6.78,10.06-4.48,18.53-6.62,29.12-3.69,6.4,1.77,10.62,1.8,16.62.2,16.44-4.39,20-3.39,34.76,3.06,6.69,2.92,10.48,6.67,17.16,7.61,7.88,1.11,13.91-2,21.28-4,1.36-.36,3,.45,4.16,1.18a12.24,12.24,0,0,1-2,2.74,16.74,16.74,0,0,1-6.15,4.42,115.48,115.48,0,0,1-26.91,6.44c-15.85,1.54-31.08,2.87-46.95,3.68-4.4.23-9.21-1.4-13.75-2-9.32-1.22-17.22.11-27.06-.09C320.15,676.94,310.25,670.71,303.91,664.3Zm114.16,4.29a11.56,11.56,0,0,1,.05-1.77c-5-2.22-7.5-5.15-12.82-7.59-11.74-5.37-15.33-6.24-28.16-1.81-8.51,3-13.86,2.61-22-1.3a8.33,8.33,0,0,0-3-1.08c-8.35.05-15.45,3.94-22.61,7.91-1.85,1-3.26,2.86-4.68,4.35a12.24,12.24,0,0,0,7.92,2.64c8.51-1.25,16.21-2,24.38-1a107.93,107.93,0,0,0,26,.1c9.37-1,17.51-.23,26.69-.42C412.54,668.61,415.4,668.67,418.07,668.59Z"/><path d="M415.38,694c-3.08,2.07-5.5,5.13-8.9,6.73-9.41,4.4-17.36,11-27.81,13.14-14.59,3.06-25.77.54-38.72-7.87-5-3.27-9.42-11.28-13.15-16.73-1.07-1.57-1.67-4.65-1.9-6.65a3.37,3.37,0,0,1,1.74-.18c3,3.74,7,10.93,9.94,14,5.88,6.15,11.62,11.55,19.27,13,13.58,2.51,24.22-1,36.54-5.7,7.77-3,14.34-8,21.73-11.62C414.5,692.64,414.94,693.28,415.38,694Z"/><path d="M326.56,682.34a.23.23,0,0,1,.14,0c.53.25,4.36,2,6.89,3,2.72,1.08,7.27,3.07,10.55,3.6s5.81.83,9.26,1.28,7.58.22,11.35.3,10.12,0,13.32-.22,3.32-.47,5.87-.69a.3.3,0,0,1,.13,0c.46.16,1,.36,1.54.52a.25.25,0,0,1,.14.4,9.26,9.26,0,0,0-.78,1.11.26.26,0,0,1-.19.13c-2.7.32-4.31.72-7.32,1s-8,.33-11.24.22-7.34-.43-10-.73-4.12-.33-6.29-.62-3.71-.72-5.71-1.11-3.76-1-5.73-1.46a38.64,38.64,0,0,1-6.06-1.85,52.68,52.68,0,0,1-5.72-3.65c-.55-.35-1.44.8-1.54.19a11.54,11.54,0,0,0-.23-1.19Z"/></g></g></g></g></svg>